<?xml version="1.0" encoding="UTF-8" standalone="no"?>
<!-- Created with Inkscape (http://www.inkscape.org/) -->

<svg
   xmlns:dc="http://purl.org/dc/elements/1.1/"
   xmlns:cc="http://creativecommons.org/ns#"
   xmlns:rdf="http://www.w3.org/1999/02/22-rdf-syntax-ns#"
   xmlns:svg="http://www.w3.org/2000/svg"
   xmlns="http://www.w3.org/2000/svg"
   xmlns:xlink="http://www.w3.org/1999/xlink"
   xmlns:sodipodi="http://sodipodi.sourceforge.net/DTD/sodipodi-0.dtd"
   xmlns:inkscape="http://www.inkscape.org/namespaces/inkscape"
   id="svg4486"
   height="128"
   width="128"
   version="1.0"
   inkscape:version="0.48.4 r9939"
   sodipodi:docname="text-x-oware-ogn.svg">
  <sodipodi:namedview
     pagecolor="#ffffff"
     bordercolor="#666666"
     borderopacity="1"
     objecttolerance="10"
     gridtolerance="10"
     guidetolerance="10"
     inkscape:pageopacity="0"
     inkscape:pageshadow="2"
     inkscape:window-width="1680"
     inkscape:window-height="1026"
     id="namedview45"
     showgrid="false"
     inkscape:zoom="5.2149125"
     inkscape:cx="55.334328"
     inkscape:cy="56.450268"
     inkscape:window-x="0"
     inkscape:window-y="24"
     inkscape:window-maximized="1"
     inkscape:current-layer="svg4486" />
  <metadata
     id="metadata51">
    <rdf:RDF>
      <cc:Work
         rdf:about="">
        <dc:format>image/svg+xml</dc:format>
        <dc:type
           rdf:resource="http://purl.org/dc/dcmitype/StillImage" />
        <dc:title></dc:title>
      </cc:Work>
    </rdf:RDF>
  </metadata>
  <defs
     id="defs4488">
    <linearGradient
       id="linearGradient5060">
      <stop
         id="stop5062"
         offset="0" />
      <stop
         id="stop5064"
         style="stop-opacity:0"
         offset="1" />
    </linearGradient>
    <linearGradient
       id="linearGradient2455"
       y2="5.4565"
       gradientUnits="userSpaceOnUse"
       x2="36.358"
       gradientTransform="matrix(2.6605,0,0,2.7752,0.74553,-3.5662)"
       y1="8.059"
       x1="32.892">
      <stop
         id="stop8591"
         style="stop-color:#fefefe"
         offset="0" />
      <stop
         id="stop8593"
         style="stop-color:#cbcbcb"
         offset="1" />
    </linearGradient>
    <linearGradient
       id="linearGradient2459"
       y2="46.017"
       gradientUnits="userSpaceOnUse"
       x2="24"
       gradientTransform="matrix(2.7576,0,0,2.6744,-2.1817,-4.186)"
       y1="2"
       x1="24">
      <stop
         id="stop3213"
         style="stop-color:#fff"
         offset="0" />
      <stop
         id="stop3215"
         style="stop-color:#fff;stop-opacity:0"
         offset="1" />
    </linearGradient>
    <radialGradient
       id="radialGradient2462"
       gradientUnits="userSpaceOnUse"
       cy="112.3"
       cx="102"
       gradientTransform="matrix(0.97872,0,0,-1.0535,1.3617,127.48)"
       r="139.56">
      <stop
         id="stop41"
         style="stop-color:#b7b8b9"
         offset="0" />
      <stop
         id="stop47"
         style="stop-color:#ececec"
         offset=".18851" />
      <stop
         id="stop49"
         style="stop-color:#fafafa;stop-opacity:0"
         offset=".25718" />
      <stop
         id="stop51"
         style="stop-color:#fff;stop-opacity:0"
         offset=".30111" />
      <stop
         id="stop53"
         style="stop-color:#fafafa;stop-opacity:0"
         offset=".53130" />
      <stop
         id="stop55"
         style="stop-color:#ebecec;stop-opacity:0"
         offset=".84490" />
      <stop
         id="stop57"
         style="stop-color:#e1e2e3;stop-opacity:0"
         offset="1" />
    </radialGradient>
    <linearGradient
       id="linearGradient2465"
       y2="47.013"
       gradientUnits="userSpaceOnUse"
       x2="25.132"
       gradientTransform="matrix(2.6571,0,0,2.5422,0.22866,-4.9133)"
       y1=".98521"
       x1="25.132">
      <stop
         id="stop3602"
         style="stop-color:#f4f4f4"
         offset="0" />
      <stop
         id="stop3604"
         style="stop-color:#dbdbdb"
         offset="1" />
    </linearGradient>
    <linearGradient
       id="linearGradient2467"
       y2="2.9062"
       gradientUnits="userSpaceOnUse"
       x2="-51.786"
       gradientTransform="matrix(2.1456,0,0,2.3791,158.09,-7.7465)"
       y1="50.786"
       x1="-51.786">
      <stop
         id="stop3106"
         style="stop-color:#aaa"
         offset="0" />
      <stop
         id="stop3108"
         style="stop-color:#c8c8c8"
         offset="1" />
    </linearGradient>
    <linearGradient
       id="linearGradient2483"
       y2="609.51"
       gradientUnits="userSpaceOnUse"
       x2="302.86"
       gradientTransform="matrix(0.17251,0,0,0.039201,0.64822,98.774)"
       y1="366.65"
       x1="302.86">
      <stop
         id="stop5050"
         style="stop-opacity:0"
         offset="0" />
      <stop
         id="stop5056"
         offset=".5" />
      <stop
         id="stop5052"
         style="stop-opacity:0"
         offset="1" />
    </linearGradient>
    <radialGradient
       id="radialGradient2485"
       xlink:href="#linearGradient5060"
       gradientUnits="userSpaceOnUse"
       cy="486.65"
       cx="605.71"
       gradientTransform="matrix(-0.059038,0,0,0.039201,56.93,98.774)"
       r="117.14" />
    <radialGradient
       id="radialGradient2487"
       xlink:href="#linearGradient5060"
       gradientUnits="userSpaceOnUse"
       cy="486.65"
       cx="605.71"
       gradientTransform="matrix(0.059038,0,0,0.039201,69.07,98.774)"
       r="117.14" />
    <radialGradient
       inkscape:collect="always"
       xlink:href="#linearGradient8838"
       id="radialGradient3029"
       gradientUnits="userSpaceOnUse"
       gradientTransform="matrix(1.5811765,0,0,0.23632991,-79.821174,34.12172)"
       cx="62.625"
       cy="4.625"
       fx="62.625"
       fy="4.625"
       r="10.625" />
    <linearGradient
       id="linearGradient8838">
      <stop
         id="stop8840"
         style="stop-color:#2d2d2d;stop-opacity:1;"
         offset="0" />
      <stop
         id="stop8842"
         style="stop-color:#373737;stop-opacity:0;"
         offset="1" />
    </linearGradient>
    <linearGradient
       inkscape:collect="always"
       xlink:href="#linearGradient3806"
       id="linearGradient3039"
       gradientUnits="userSpaceOnUse"
       gradientTransform="matrix(0.97994668,0,0,0.97994668,0.38502379,0.38502348)"
       x1="2.3972638"
       y1="19.200001"
       x2="36.002735"
       y2="19.200001" />
    <linearGradient
       id="linearGradient3806">
      <stop
         style="stop-color:#5a5a5a;stop-opacity:1;"
         offset="0"
         id="stop3808" />
      <stop
         style="stop-color:#6e6e6e;stop-opacity:1;"
         offset="1"
         id="stop3810" />
    </linearGradient>
    <radialGradient
       inkscape:collect="always"
       xlink:href="#linearGradient8838"
       id="radialGradient3069"
       gradientUnits="userSpaceOnUse"
       gradientTransform="matrix(2.9417237,0,0,0.43968355,-120.22544,90.525578)"
       cx="62.625"
       cy="4.625"
       fx="62.625"
       fy="4.625"
       r="10.625" />
    <linearGradient
       inkscape:collect="always"
       xlink:href="#linearGradient3806"
       id="linearGradient3071"
       gradientUnits="userSpaceOnUse"
       gradientTransform="matrix(0.97994668,0,0,0.97994668,0.38502379,0.38502348)"
       x1="2.3972638"
       y1="19.200001"
       x2="36.002735"
       y2="19.200001" />
    <linearGradient
       inkscape:collect="always"
       xlink:href="#linearGradient3806"
       id="linearGradient3079"
       gradientUnits="userSpaceOnUse"
       gradientTransform="matrix(1.870972,0,0,1.870972,28.077338,26.841577)"
       x1="2.3972638"
       y1="19.200001"
       x2="36.002735"
       y2="19.200001" />
    <linearGradient
       inkscape:collect="always"
       xlink:href="#linearGradient3806"
       id="linearGradient3046"
       gradientUnits="userSpaceOnUse"
       gradientTransform="matrix(1.870972,0,0,1.870972,28.077338,26.841577)"
       x1="2.3972638"
       y1="19.200001"
       x2="36.002735"
       y2="19.200001" />
    <radialGradient
       inkscape:collect="always"
       xlink:href="#linearGradient8838"
       id="radialGradient3049"
       gradientUnits="userSpaceOnUse"
       gradientTransform="matrix(2.9417237,0,0,0.43968355,-120.22544,90.525578)"
       cx="62.625"
       cy="4.625"
       fx="62.625"
       fy="4.625"
       r="10.625" />
    <linearGradient
       inkscape:collect="always"
       xlink:href="#linearGradient2455"
       id="linearGradient3052"
       gradientUnits="userSpaceOnUse"
       gradientTransform="matrix(2.6605,0,0,2.7752,0.74553,-3.5662)"
       x1="32.892"
       y1="8.059"
       x2="36.358"
       y2="5.4565" />
    <linearGradient
       inkscape:collect="always"
       xlink:href="#linearGradient2459"
       id="linearGradient3058"
       gradientUnits="userSpaceOnUse"
       gradientTransform="matrix(2.7576,0,0,2.6744,-2.1817,-4.186)"
       x1="24"
       y1="2"
       x2="24"
       y2="46.017" />
    <radialGradient
       inkscape:collect="always"
       xlink:href="#radialGradient2462"
       id="radialGradient3061"
       gradientUnits="userSpaceOnUse"
       gradientTransform="matrix(0.97872,0,0,-1.0535,1.3617,127.48)"
       cx="102"
       cy="112.3"
       r="139.56" />
    <linearGradient
       inkscape:collect="always"
       xlink:href="#linearGradient2465"
       id="linearGradient3064"
       gradientUnits="userSpaceOnUse"
       gradientTransform="matrix(2.6571,0,0,2.5422,0.22866,-4.9133)"
       x1="25.132"
       y1=".98521"
       x2="25.132"
       y2="47.013" />
    <linearGradient
       inkscape:collect="always"
       xlink:href="#linearGradient2467"
       id="linearGradient3066"
       gradientUnits="userSpaceOnUse"
       gradientTransform="matrix(2.1456,0,0,2.3791,158.09,-7.7465)"
       x1="-51.786"
       y1="50.786"
       x2="-51.786"
       y2="2.9062" />
    <radialGradient
       inkscape:collect="always"
       xlink:href="#linearGradient8838"
       id="radialGradient3081"
       gradientUnits="userSpaceOnUse"
       gradientTransform="matrix(2.9417237,0,0,0.43968355,-120.22544,90.525578)"
       cx="62.625"
       cy="4.625"
       fx="62.625"
       fy="4.625"
       r="10.625" />
    <linearGradient
       inkscape:collect="always"
       xlink:href="#linearGradient3806"
       id="linearGradient3083"
       gradientUnits="userSpaceOnUse"
       gradientTransform="matrix(1.870972,0,0,1.870972,28.077338,26.841577)"
       x1="2.3972638"
       y1="19.200001"
       x2="36.002735"
       y2="19.200001" />
    <linearGradient
       inkscape:collect="always"
       xlink:href="#linearGradient3806"
       id="linearGradient3091"
       gradientUnits="userSpaceOnUse"
       gradientTransform="matrix(2.1048435,0,0,2.1048435,23.587005,22.196774)"
       x1="2.3972638"
       y1="19.200001"
       x2="36.002735"
       y2="19.200001" />
    <radialGradient
       inkscape:collect="always"
       xlink:href="#linearGradient8838"
       id="radialGradient3094"
       gradientUnits="userSpaceOnUse"
       gradientTransform="matrix(3.3094392,0,0,0.49464399,-143.25362,93.841275)"
       cx="62.625"
       cy="4.625"
       fx="62.625"
       fy="4.625"
       r="10.625" />
  </defs>
  <g
     id="g3864">
    <g
       transform="matrix(1.0408,0,0,0.63024,-1.5714,43.69)"
       id="g2478">
      <rect
         x="21.35"
         y="113.15"
         width="83.300003"
         height="9.5200996"
         style="opacity:0.3;fill:url(#linearGradient2483)"
         id="rect2879" />
      <path
         d="m 21.35,113.15 v 9.5196 c -3.0403,0.0179 -7.35,-2.1329 -7.35,-4.7604 0,-2.6276 3.3928,-4.7592 7.35,-4.7592 z"
         style="opacity:0.3;fill:url(#radialGradient2485)"
         id="path2881"
         inkscape:connector-curvature="0" />
      <path
         d="m 104.65,113.15 v 9.5196 c 3.0403,0.0179 7.35,-2.1329 7.35,-4.7604 0,-2.6276 -3.3928,-4.7592 -7.35,-4.7592 z"
         style="opacity:0.3;fill:url(#radialGradient2487)"
         id="path2883"
         inkscape:connector-curvature="0" />
    </g>
    <path
       d="m 17.5,1.5 h 63.933 c 3.7384,1.262 23.822,15.639 29.067,25.594 V 118.5 h -93 V 1.5 z"
       style="fill:url(#linearGradient3064);stroke:url(#linearGradient3066);stroke-width:0.99992001;stroke-linejoin:round"
       id="path4160"
       inkscape:connector-curvature="0" />
    <path
       d="M 18.979,118 C 18.439,118 18,117.53 18,116.95 V 3.17 C 18,2.5853 18.439,2.1134 18.979,2.1134 39.227,2.4046 61.666,1.6778 81.89,2.1859 l 27.82,23.902 0.29,90.862 c 0,0.58 -0.44,1.05 -0.98,1.05 H 18.977 z"
       style="fill:url(#radialGradient3061)"
       id="path4191"
       inkscape:connector-curvature="0" />
    <path
       d="M 109.5,26.518 V 117.5 h -91 V 2.5 h 63.056"
       style="opacity:0.6;fill:none;stroke:url(#linearGradient3058);stroke-width:0.99992001;stroke-linejoin:round"
       id="path2435"
       inkscape:connector-curvature="0" />
    <path
       d="m 71.923,1.8392 c 13.028,0 6.551,25.808 6.551,25.808 0,0 31.506,-7.19 31.506,5.562 l 0.08,-6.058 c -6.74,-6.731 -20.999,-19.9 -30.179,-24.913 0,-3e-4 -7.958,-0.3988 -7.958,-0.3988 z"
       style="opacity:0.05;fill-rule:evenodd"
       id="path3232"
       inkscape:connector-curvature="0" />
    <path
       d="m 74.396,1.8392 c 12.182,0 6.125,24.131 6.125,24.131 0,0 29.459,-5.64 29.459,6.141 1.56,-10.052 -25.983,-33.4 -35.584,-30.272 v 2e-4 z"
       style="opacity:0.1;fill-rule:evenodd"
       id="path3230"
       inkscape:connector-curvature="0" />
    <path
       d="m 82.365756,24.461263 c 0,0 27.619014,-4.806193 27.619014,7.516361 0,-6.958754 -15.54953,-26.4251302 -33.363086,-30.1390433 8.658775,3.3152414 7.48276,14.4196473 5.744072,22.6226823 z"
       style="opacity:0.15;fill-rule:evenodd"
       id="path12038"
       inkscape:connector-curvature="0" />
    <path
       d="m 76.621,1.8392 c 8.4973,0 6.2287,20.432 6.2287,20.432 0,0 27.134,-2.6161 27.134,9.7068 0,-3.0025 0.2291,-5.1527 -0.35674,-6.0896 -4.21,-6.731 -22.391,-21.836 -28.956,-23.815 -0.491,-0.1485 -1.58,-0.2338 -4.053,-0.2338 z"
       style="fill:url(#linearGradient3052);fill-rule:evenodd"
       id="path4474"
       inkscape:connector-curvature="0" />
    <path
       d="m 99.16279,96.129006 a 35.162791,5.2555998 0 0 1 -70.325581,0 35.162791,5.2555998 0 1 1 70.325581,0 z"
       id="path8836"
       style="opacity:0.75665397;fill:url(#radialGradient3094);fill-opacity:1;fill-rule:evenodd;stroke:none;stroke-width:0.99999988;marker:none;visibility:visible;display:inline;overflow:visible"
       inkscape:connector-curvature="0" />
    <path
       style="fill:#f5f5f5;fill-opacity:1;fill-rule:nonzero;stroke:url(#linearGradient3091);stroke-width:2.7493329;stroke-linecap:butt;stroke-linejoin:miter;stroke-miterlimit:10;stroke-opacity:1;stroke-dasharray:none"
       d="m 98.625334,62.60977 c 0,19.118595 -15.503631,34.619708 -34.625333,34.619708 -19.121702,0 -34.625335,-15.501113 -34.625335,-34.619708 0,-19.118596 15.503633,-34.61971 34.625335,-34.61971 19.121702,0 34.625333,15.501114 34.625333,34.61971"
       id="path65"
       inkscape:connector-curvature="0" />
    <path
       style="fill:#8cbf00;fill-opacity:1;fill-rule:nonzero;stroke:#197f33;stroke-width:1.598;stroke-linecap:butt;stroke-linejoin:miter;stroke-miterlimit:10;stroke-opacity:1;stroke-dasharray:none"
       d="m 85.468383,62.60977 c 0,3.823718 -3.100725,6.923939 -6.925064,6.923939 -3.824347,0 -6.925069,-3.100221 -6.925069,-6.923939 0,-3.823724 3.100722,-6.923945 6.925069,-6.923945 3.824339,0 6.925064,3.100221 6.925064,6.923945"
       id="path67"
       inkscape:connector-curvature="0" />
    <path
       style="fill:#8cbf00;fill-opacity:1;fill-rule:nonzero;stroke:#197f33;stroke-width:1.598;stroke-linecap:butt;stroke-linejoin:miter;stroke-miterlimit:10;stroke-opacity:1;stroke-dasharray:none"
       d="m 75.418925,76.437367 c 0,3.823717 -3.100725,6.92394 -6.925067,6.92394 -3.824344,0 -6.925067,-3.100223 -6.925067,-6.92394 0,-3.823723 3.100723,-6.923943 6.925067,-6.923943 3.824342,0 6.925067,3.10022 6.925067,6.923943"
       id="path69"
       inkscape:connector-curvature="0" />
    <path
       style="fill:#8cbf00;fill-opacity:1;fill-rule:nonzero;stroke:#197f33;stroke-width:1.598;stroke-linecap:butt;stroke-linejoin:miter;stroke-miterlimit:10;stroke-opacity:1;stroke-dasharray:none"
       d="m 59.16125,71.156509 c 0,3.823721 -3.100732,6.923941 -6.925065,6.923941 -3.824346,0 -6.925069,-3.10022 -6.925069,-6.923941 0,-3.823718 3.100723,-6.923942 6.925069,-6.923942 3.824333,0 6.925065,3.100224 6.925065,6.923942"
       id="path71"
       inkscape:connector-curvature="0" />
    <path
       style="fill:#8cbf00;fill-opacity:1;fill-rule:nonzero;stroke:#197f33;stroke-width:1.598;stroke-linecap:butt;stroke-linejoin:miter;stroke-miterlimit:10;stroke-opacity:1;stroke-dasharray:none"
       d="m 59.16125,54.06303 c 0,3.823718 -3.100732,6.923942 -6.925065,6.923942 -3.824346,0 -6.925069,-3.100224 -6.925069,-6.923942 0,-3.823721 3.100723,-6.923944 6.925069,-6.923944 3.824333,0 6.925065,3.100223 6.925065,6.923944"
       id="path73"
       inkscape:connector-curvature="0" />
    <path
       style="fill:#8cbf00;fill-opacity:1;fill-rule:nonzero;stroke:#197f33;stroke-width:1.598;stroke-linecap:butt;stroke-linejoin:miter;stroke-miterlimit:10;stroke-opacity:1;stroke-dasharray:none"
       d="m 75.418925,48.782175 c 0,3.823717 -3.100725,6.923938 -6.925067,6.923938 -3.824344,0 -6.925067,-3.100221 -6.925067,-6.923938 0,-3.823723 3.100723,-6.923944 6.925067,-6.923944 3.824342,0 6.925067,3.100221 6.925067,6.923944"
       id="path75"
       inkscape:connector-curvature="0" />
  </g>
</svg>
