<svg id="svg4" height="48" width="48" xmlns="http://www.w3.org/2000/svg">
 <g id="g1974" transform="matrix(1.271973 0 0 1.271973 -148.25797 -29.38904)">
  <path id="path1652-4" d="m131.67188 25.871094-1.17383 1.173828 2.95703 2.957031a15 15 0 0 0 -11.40039 8.072266h-3.13867v5.310547h1.58398a15 15 0 0 0 -.0742 1.488281 15 15 0 0 0 .004.28125h-.004v6.433594h30v-6.433594h-.004a15 15 0 0 0 .004-.28125 15 15 0 0 0 -.0742-1.488281h1.58399v-5.310547h-3.14063a15 15 0 0 0 -11.39844-8.072266l2.95704-2.957031-1.17383-1.173828-3.75391 3.753906.25.25a15 15 0 0 0 -.25-.002 15 15 0 0 0 -.11328 0 15 15 0 0 0 -.13672.002l.25-.25zm-.11524 11.541015a3.3180001 3.3180001 0 0 1 .004 0 3.3180001 3.3180001 0 0 1 3.31836 3.31836 3.3180001 3.3180001 0 0 1 -3.31836 3.318359 3.3180001 3.3180001 0 0 1 -3.31641-3.318359 3.3180001 3.3180001 0 0 1 3.3125-3.31836zm7.73047 0a3.3180001 3.3180001 0 0 1 .004 0 3.3180001 3.3180001 0 0 1 3.3164 3.31836 3.3180001 3.3180001 0 0 1 -3.3164 3.318359 3.3180001 3.3180001 0 0 1 -3.31836-3.318359 3.3180001 3.3180001 0 0 1 3.31445-3.31836z" fill="#646464"/>
  <path id="rect905-3-61" d="m52.737556-150.20546h5.338163v29.683741h-5.338163z" fill="#646464" transform="rotate(90)"/>
 </g>
</svg>
