<svg id="svg4" height="48" width="48" xmlns="http://www.w3.org/2000/svg">
 <g id="g1000">
  <path id="path846" d="m22.725344 43.840012h14.583861" fill="none" stroke="#646464" stroke-width="1.225"/>
  <path id="path846-3" d="m27.744616 40.824485h16.842553" fill="none" stroke="#646464"/>
  <path id="path846-6" d="m39.383774 43.840012h5.203395" fill="none" stroke="#646464" stroke-width="1.225"/>
  <path id="rect880-1-6-9-2" d="m24.403867 12.216219-17.5229903 17.52299.00552.0055-3.198553 3.198553-.383937 6.78933-.027622.499946h-.00283l-.2734544 4.767462 4.7688278-.27207v-.0028l.5027084-.03038 6.8197895-.386624 3.179218-3.179218.08977-.08977 17.433221-17.43322zm-15.4182425 19.627738 7.1705045 7.170505-2.193135 2.193135-6.0145509.377032.09115-1.624136-1.6268978.09391.3811751-6.015933z" fill="#646464"/>
  <path id="rect880-6-2-8-2-6-6" d="m24.914858 17.108253a.83979573 1.0164168 45.007267 0 0 -1.312568.124885l-11.705041 11.704566a.83979573 1.0164168 45.007267 0 0 -.124884 1.312497.83979573 1.0164168 45.007267 0 0 1.31258-.124897l11.705017-11.704542a.83979573 1.0164168 45.007267 0 0 .124896-1.312509z" fill="#fff"/>
  <path id="path1012-2-3-7-1" d="m36.241381 4.233601a2.7415628 4.2158718 45.003303 0 0 -4.919771 1.0424812l-4.692282 4.6920692 11.403733 11.4030926 4.69226-4.692071a2.7415628 4.2158718 45.003303 0 0 1.042512-4.919524z" fill="#646464"/>
 </g>
</svg>
