<svg id="svg4" height="48" width="48" xmlns="http://www.w3.org/2000/svg">
 <g id="g2628">
  <path id="path1994" d="m18.853516 3a1.7562954 1.7562954 0 0 0 -1.75586 1.7578125 1.7562954 1.7562954 0 0 0 .0059.125h-.0059v.1972656a1.7562954 1.7562954 0 0 0 -.05664-.1113281 1.7562954 1.7562954 0 0 0 -2.400391-.6445312 1.7562954 1.7562954 0 0 0 -.642578 2.3984374 1.7562954 1.7562954 0 0 0 .06836.1074219l-.0039.00391.822266 1.4238281.0059-.00195a1.7562954 1.7562954 0 0 0 .05859.1152344 1.7562954 1.7562954 0 0 0 .15625.2246093 19.288151 19.288151 0 0 0 -9.0039065 9.9238281 4.6589707 4.6589707 0 0 0 -.234375-.0059 4.6589707 4.6589707 0 0 0 -.099609 0 4.6589707 4.6589707 0 0 0 -4.5585937 4.65625 4.6589707 4.6589707 0 0 0 3.6074218 4.539062 19.288151 19.288151 0 0 0 19.1835494 17.29105 19.288151 19.288151 0 0 0 19.185547-17.291016 4.6589707 4.6589707 0 0 0 3.605469-4.539062 4.6589707 4.6589707 0 0 0 -4.658204-4.65625 4.6589707 4.6589707 0 0 0 -.09961 0 4.6589707 4.6589707 0 0 0 -.134765.0039 19.288151 19.288151 0 0 0 -17.898437-12.095697 19.288151 19.288151 0 0 0 -.0098 0l.154297-.5742188-.0059-.00195a1.7562954 1.7562954 0 0 0 .03906-.1191406 1.7562954 1.7562954 0 0 0 -1.242187-2.1523437 1.7562954 1.7562954 0 0 0 -2.150391 1.2421874 1.7562954 1.7562954 0 0 0 -.02734.125l-.0059-.00195-.140625.5253907v-.5820375h-.0059a1.7562954 1.7562954 0 0 0 .0059-.125 1.7562954 1.7562954 0 0 0 -1.757698-1.7578125zm5.089843 6.7753906a15.933866 15.933866 0 0 1 .05664 0 15.933866 15.933866 0 0 1 15.527344 12.3613284 2.2205639 2.2205639 0 0 1 1.884765-1.046875 2.2205639 2.2205639 0 0 1 2.21875 2.220703 2.2205639 2.2205639 0 0 1 -2.21875 2.220703 2.2205639 2.2205639 0 0 1 -1.498047-.580078 15.933866 15.933866 0 0 1 .01953.761719 15.933866 15.933866 0 0 1 -15.933591 15.933593 15.933866 15.933866 0 0 1 -15.9335938-15.933593 15.933866 15.933866 0 0 1 .0175782-.763672 2.2205639 2.2205639 0 0 1 -1.4960938.582031 2.2205639 2.2205639 0 0 1 -2.21875-2.220703 2.2205639 2.2205639 0 0 1 2.21875-2.220703 2.2205639 2.2205639 0 0 1 1.8847656 1.046875 15.933866 15.933866 0 0 1 15.4707028-12.3613284z" fill="#646464"/>
  <path id="path2014" d="m20.774445 18.960502a1.7562954 1.7562954 0 0 0 -1.755316 1.757291 1.7562954 1.7562954 0 0 0 .0059.126366h-.0059v1.646721h.0059a1.7562954 1.7562954 0 0 0 -.0059.128341 1.7562954 1.7562954 0 0 0 1.755316 1.755317 1.7562954 1.7562954 0 0 0 1.757291-1.755317 1.7562954 1.7562954 0 0 0 -.0059-.128341h.0059v-1.646721h-.0059a1.7562954 1.7562954 0 0 0 .0059-.126366 1.7562954 1.7562954 0 0 0 -1.757291-1.757291z" fill="#646464"/>
  <path id="path2014-2" d="m27.223581 18.960502a1.7562954 1.7562954 0 0 0 -1.755318 1.757291 1.7562954 1.7562954 0 0 0 .006.126366h-.006v1.646721h.006a1.7562954 1.7562954 0 0 0 -.006.128341 1.7562954 1.7562954 0 0 0 1.755318 1.755317 1.7562954 1.7562954 0 0 0 1.75729-1.755317 1.7562954 1.7562954 0 0 0 -.006-.128341h.006v-1.646721h-.006a1.7562954 1.7562954 0 0 0 .006-.126366 1.7562954 1.7562954 0 0 0 -1.75729-1.757291z" fill="#646464"/>
  <path id="path2158" d="m32.034177 30.012653a8.638041 7.4192586 0 0 1 -8.034177 4.695323 8.638041 7.4192586 0 0 1 -8.03615-4.693348l-1.399909 1.401883a10.590523 9.0962555 0 0 0 9.436059 4.967803 10.590523 9.0962555 0 0 0 9.43606-4.967803z" fill="#646464"/>
 </g>
</svg>
