<svg id="svg4" height="48" width="48" xmlns="http://www.w3.org/2000/svg">
 <g id="g1542" transform="matrix(.70710678 -.70710678 .70710678 .70710678 -71.368165 50.358469)">
  <path id="rect1003-2-4" d="m86.195312 25.726562a16 16 0 0 0 -11.435546 4.685547 16 16 0 0 0 0 22.628907 16 16 0 0 0 8.660156 4.46289v3.958985h-2.322266v10.685547a3.3180001 3.3180001 0 0 0 3.31836 3.314453h3.320312a3.3180001 3.3180001 0 0 0 3.314453-3.31836v-10.68164h-2.322265v-3.958985a16 16 0 0 0 8.658203-4.46289 16 16 0 0 0 0-22.628907 16 16 0 0 0 -11.191407-4.685547zm-.199218 3.31836a12.682 12.682 0 0 1 8.933594 3.603516 12.682 12.682 0 0 1 .111328.111328 12.682 12.682 0 0 1 0 17.933593 12.682 12.682 0 0 1 -17.933594 0 12.682 12.682 0 0 1 0-17.933593 12.682 12.682 0 0 1 8.888672-3.714844z" fill="#646464"/>
  <path id="rect880-6-2-8-3-0-7" d="m86.892159 64.781508a.83979573 1.0164168.007267 0 0 -.839844 1.015625v.470703 3.246094 1.615234a.83979573 1.0164168.007267 0 0 .839844 1.015625.83979573 1.0164168.007267 0 0 .839844-1.015625v-1.615234-3.246094-.470703a.83979573 1.0164168.007267 0 0 -.839844-1.015625z" fill="#fff"/>
 </g>
 <path id="path1562" d="m16.19701 28.200893c.417101.111762.835677.190001 1.252794.244694l.262358-.979132c-.417803-.04714-.83756-.119277-1.256333-.231487-3.317829-.88901-5.66198-3.567717-6.294256-6.717336l-.03019-.0081-.8826778.509614c.7955428 3.375736 3.3679558 6.222385 6.9482998 7.181735z" fill="#646464"/>
</svg>
