<?xml version="1.0" encoding="UTF-8" standalone="no"?>
<svg
   xmlns:dc="http://purl.org/dc/elements/1.1/"
   xmlns:cc="http://creativecommons.org/ns#"
   xmlns:rdf="http://www.w3.org/1999/02/22-rdf-syntax-ns#"
   xmlns:svg="http://www.w3.org/2000/svg"
   xmlns="http://www.w3.org/2000/svg"
   xmlns:sodipodi="http://sodipodi.sourceforge.net/DTD/sodipodi-0.dtd"
   xmlns:inkscape="http://www.inkscape.org/namespaces/inkscape"
   inkscape:version="1.0 (6e3e5246a0, 2020-05-07)"
   sodipodi:docname="match-error.svg"
   id="svg4"
   version="1.1"
   width="24"
   height="24">
  <metadata
     id="metadata10">
    <rdf:RDF>
      <cc:Work
         rdf:about="">
        <dc:format>image/svg+xml</dc:format>
        <dc:type
           rdf:resource="http://purl.org/dc/dcmitype/StillImage" />
        <dc:title></dc:title>
      </cc:Work>
    </rdf:RDF>
  </metadata>
  <defs
     id="defs8" />
  <sodipodi:namedview
     inkscape:document-rotation="0"
     inkscape:current-layer="svg4"
     inkscape:window-maximized="1"
     inkscape:window-y="27"
     inkscape:window-x="0"
     inkscape:cy="31.93282"
     inkscape:cx="-11.559205"
     inkscape:zoom="11.313709"
     showgrid="false"
     id="namedview6"
     inkscape:window-height="1016"
     inkscape:window-width="1920"
     inkscape:pageshadow="2"
     inkscape:pageopacity="0"
     guidetolerance="10"
     gridtolerance="10"
     objecttolerance="10"
     borderopacity="1"
     bordercolor="#666666"
     pagecolor="#ffffff"
     showguides="false" />
  <g
     id="g1118">
    <path
       style="color:#000000;font-style:normal;font-variant:normal;font-weight:normal;font-stretch:normal;font-size:medium;line-height:normal;font-family:sans-serif;font-variant-ligatures:normal;font-variant-position:normal;font-variant-caps:normal;font-variant-numeric:normal;font-variant-alternates:normal;font-variant-east-asian:normal;font-feature-settings:normal;font-variation-settings:normal;text-indent:0;text-align:start;text-decoration:none;text-decoration-line:none;text-decoration-style:solid;text-decoration-color:#000000;letter-spacing:normal;word-spacing:normal;text-transform:none;writing-mode:lr-tb;direction:ltr;text-orientation:mixed;dominant-baseline:auto;baseline-shift:baseline;text-anchor:start;white-space:normal;shape-padding:0;shape-margin:0;inline-size:0;clip-rule:nonzero;display:inline;overflow:visible;visibility:visible;isolation:auto;mix-blend-mode:normal;color-interpolation:sRGB;color-interpolation-filters:linearRGB;solid-color:#000000;solid-opacity:1;vector-effect:none;fill:#646464;fill-opacity:1;fill-rule:nonzero;stroke:none;stroke-width:1.99991;stroke-linecap:butt;stroke-linejoin:miter;stroke-miterlimit:4;stroke-dasharray:none;stroke-dashoffset:0;stroke-opacity:1;color-rendering:auto;image-rendering:auto;shape-rendering:auto;text-rendering:auto;enable-background:accumulate;stop-color:#000000"
       d="M 12,2 C 6.4889966,2 2,6.4889958 2,12 c -2e-7,5.511004 4.4889965,10 10,10 5.511004,0 10,-4.488996 10,-10 C 22,6.4889957 17.511003,1.9999999 12,2 Z m 0,2 c 4.430172,-10e-8 8,3.5698271 8,8 0,4.430173 -3.569828,8 -8,8 C 7.5698283,20 3.9999999,16.430173 4,12 4,7.5698271 7.5698284,4 12,4 Z"
       id="path951" />
    <path
       id="rect1054"
       style="fill:#646464;fill-opacity:1;stroke:none;stroke-width:0.839177;stroke-miterlimit:4;stroke-dasharray:none;stroke-opacity:1;stop-color:#000000"
       d="M 8.628906,7.9443358 7.921875,8.6513671 8.628906,9.3583983 7.921875,10.065429 8.628906,10.774414 9.335938,10.067382 10.042969,10.774414 10.75,10.065429 10.042969,9.3583983 10.75,8.6513671 10.042969,7.9443358 9.335938,8.6513671 Z" />
    <path
       d="m 13.95703,7.9443358 -0.707031,0.7070313 0.707031,0.7070312 -0.707031,0.7070307 0.707031,0.708985 0.707032,-0.707032 0.707031,0.707032 0.707031,-0.708985 -0.707031,-0.7070307 0.707031,-0.7070312 -0.707031,-0.7070313 -0.707031,0.7070313 z"
       style="fill:#646464;fill-opacity:1;stroke:none;stroke-width:0.839177;stroke-miterlimit:4;stroke-dasharray:none;stroke-opacity:1;stop-color:#000000"
       id="rect1054-1" />
    <path
       id="path1028"
       style="color:#000000;font-style:normal;font-variant:normal;font-weight:normal;font-stretch:normal;font-size:medium;line-height:normal;font-family:sans-serif;font-variant-ligatures:normal;font-variant-position:normal;font-variant-caps:normal;font-variant-numeric:normal;font-variant-alternates:normal;font-variant-east-asian:normal;font-feature-settings:normal;font-variation-settings:normal;text-indent:0;text-align:start;text-decoration:none;text-decoration-line:none;text-decoration-style:solid;text-decoration-color:#000000;letter-spacing:normal;word-spacing:normal;text-transform:none;writing-mode:lr-tb;direction:ltr;text-orientation:mixed;dominant-baseline:auto;baseline-shift:baseline;text-anchor:start;white-space:normal;shape-padding:0;shape-margin:0;inline-size:0;clip-rule:nonzero;display:inline;overflow:visible;visibility:visible;opacity:1;isolation:auto;mix-blend-mode:normal;color-interpolation:sRGB;color-interpolation-filters:linearRGB;solid-color:#000000;solid-opacity:1;vector-effect:none;fill:#646464;fill-opacity:1;fill-rule:nonzero;stroke:none;stroke-width:1.11664px;stroke-linecap:butt;stroke-linejoin:miter;stroke-miterlimit:4;stroke-dasharray:none;stroke-dashoffset:0;stroke-opacity:1;color-rendering:auto;image-rendering:auto;shape-rendering:auto;text-rendering:auto;enable-background:accumulate;stop-color:#000000;stop-opacity:1"
       d="M 8 13.5 L 8 14.5 L 8.8359375 14.5 A 2 2 0 0 0 8.8359375 14.548828 A 2 2 0 0 0 10.835938 16.548828 A 2 2 0 0 0 12.835938 14.548828 A 2 2 0 0 0 12.832031 14.5 L 16 14.5 L 16 13.5 L 8 13.5 z M 9.8378906 14.5 L 11.832031 14.5 A 1 1 0 0 1 11.835938 14.548828 A 1 1 0 0 1 10.835938 15.548828 A 1 1 0 0 1 9.8359375 14.548828 A 1 1 0 0 1 9.8378906 14.5 z " />
  </g>
</svg>
