<?xml version="1.0" encoding="UTF-8" standalone="no"?>
<svg
   xmlns:dc="http://purl.org/dc/elements/1.1/"
   xmlns:cc="http://creativecommons.org/ns#"
   xmlns:rdf="http://www.w3.org/1999/02/22-rdf-syntax-ns#"
   xmlns:svg="http://www.w3.org/2000/svg"
   xmlns="http://www.w3.org/2000/svg"
   xmlns:sodipodi="http://sodipodi.sourceforge.net/DTD/sodipodi-0.dtd"
   xmlns:inkscape="http://www.inkscape.org/namespaces/inkscape"
   height="24"
   width="24"
   version="1.1"
   id="svg4"
   sodipodi:docname="match-comment.svg"
   inkscape:version="1.0 (6e3e5246a0, 2020-05-07)">
  <metadata
     id="metadata10">
    <rdf:RDF>
      <cc:Work
         rdf:about="">
        <dc:format>image/svg+xml</dc:format>
        <dc:type
           rdf:resource="http://purl.org/dc/dcmitype/StillImage" />
        <dc:title />
      </cc:Work>
    </rdf:RDF>
  </metadata>
  <defs
     id="defs8" />
  <sodipodi:namedview
     showguides="false"
     pagecolor="#ffffff"
     bordercolor="#666666"
     borderopacity="1"
     objecttolerance="10"
     gridtolerance="10"
     guidetolerance="10"
     inkscape:pageopacity="0"
     inkscape:pageshadow="2"
     inkscape:window-width="1920"
     inkscape:window-height="1016"
     id="namedview6"
     showgrid="false"
     inkscape:zoom="11.313709"
     inkscape:cx="0.50476482"
     inkscape:cy="24.5846"
     inkscape:window-x="0"
     inkscape:window-y="27"
     inkscape:window-maximized="1"
     inkscape:current-layer="svg4"
     inkscape:document-rotation="0" />
  <g
     transform="matrix(-1,0,0,1,24,0)"
     id="g1349">
    <path
       d="M 11.980469,2 A 10,10 0 0 0 2,12 10,10 0 0 0 3.1464844,16.644531 L 2.1328125,21.955078 7.4648438,20.9375 7.46875,20.914062 A 10,10 0 0 0 12,22 10,10 0 0 0 22,12 10,10 0 0 0 12,2 10,10 0 0 0 11.980469,2 Z M 12,4 a 8,8 0 0 1 8,8 8,8 0 0 1 -8,8 8,8 0 0 1 -3.828125,-0.976562 L 7.8164062,19.091797 5.4375,19.546875 4.4609375,19.732422 4.6445312,18.773438 4.796875,17.970703 5.1269531,16.246094 5.1484375,16.128906 A 8,8 0 0 1 4,12 8,8 0 0 1 12,4 Z"
       style="fill:#646464;fill-opacity:1;stroke:none;stroke-width:1.55265;stroke-miterlimit:4;stroke-dasharray:none;stroke-opacity:1;stop-color:#000000"
       id="path1120" />
    <circle
       style="fill:#646464;fill-opacity:1;stroke:none;stroke-width:1.004;stroke-miterlimit:4;stroke-dasharray:none;stroke-opacity:1;stop-color:#000000"
       id="path1198"
       cx="8.9999962"
       cy="11.999182"
       r="1" />
    <circle
       r="1"
       cy="11.999182"
       cx="12"
       id="path1198-3"
       style="fill:#646464;fill-opacity:1;stroke:none;stroke-width:1.004;stroke-miterlimit:4;stroke-dasharray:none;stroke-opacity:1;stop-color:#000000" />
    <circle
       r="1"
       cy="11.999182"
       cx="15.000004"
       id="path1198-6"
       style="fill:#646464;fill-opacity:1;stroke:none;stroke-width:1.004;stroke-miterlimit:4;stroke-dasharray:none;stroke-opacity:1;stop-color:#000000" />
  </g>
</svg>
