<?xml version="1.0" encoding="UTF-8" standalone="no"?>
<svg
   xmlns:dc="http://purl.org/dc/elements/1.1/"
   xmlns:cc="http://creativecommons.org/ns#"
   xmlns:rdf="http://www.w3.org/1999/02/22-rdf-syntax-ns#"
   xmlns:svg="http://www.w3.org/2000/svg"
   xmlns="http://www.w3.org/2000/svg"
   xmlns:sodipodi="http://sodipodi.sourceforge.net/DTD/sodipodi-0.dtd"
   xmlns:inkscape="http://www.inkscape.org/namespaces/inkscape"
   inkscape:version="1.0 (6e3e5246a0, 2020-05-07)"
   sodipodi:docname="thinking.svg"
   id="svg4"
   version="1.1"
   width="24"
   height="24">
  <metadata
     id="metadata10">
    <rdf:RDF>
      <cc:Work
         rdf:about="">
        <dc:format>image/svg+xml</dc:format>
        <dc:type
           rdf:resource="http://purl.org/dc/dcmitype/StillImage" />
        <dc:title />
      </cc:Work>
    </rdf:RDF>
  </metadata>
  <defs
     id="defs8" />
  <sodipodi:namedview
     inkscape:document-rotation="0"
     inkscape:current-layer="svg4"
     inkscape:window-maximized="1"
     inkscape:window-y="27"
     inkscape:window-x="0"
     inkscape:cy="18.865653"
     inkscape:cx="8.0582098"
     inkscape:zoom="22.627417"
     showgrid="false"
     id="namedview6"
     inkscape:window-height="1016"
     inkscape:window-width="1920"
     inkscape:pageshadow="2"
     inkscape:pageopacity="0"
     guidetolerance="10"
     gridtolerance="10"
     objecttolerance="10"
     borderopacity="1"
     bordercolor="#666666"
     pagecolor="#ffffff"
     showguides="false" />
  <path
     d="M 9.5761719 1.7988281 A 0.4433634 0.4433634 0 0 0 9.4589844 1.8164062 L 9.4589844 1.8125 A 10.5 10.5 0 0 0 6.5820312 3.0058594 A 0.4433634 0.4433634 0 0 0 6.5058594 3.0683594 A 0.4433634 0.4433634 0 0 0 6.453125 3.6347656 A 2 2 0 0 1 6.4882812 3.6777344 A 2 2 0 0 1 6.4941406 3.6835938 A 2 2 0 0 1 6.3125 6.3046875 A 2 2 0 0 1 3.6914062 6.484375 L 3.6894531 6.4863281 A 0.4433634 0.4433634 0 0 0 3.6757812 6.4726562 A 2 2 0 0 1 3.6542969 6.4570312 A 0.4433634 0.4433634 0 0 0 3.6523438 6.4550781 A 0.4433634 0.4433634 0 0 0 3.0761719 6.4980469 A 0.4433634 0.4433634 0 0 0 3.0019531 6.59375 L 3 6.5917969 A 10.5 10.5 0 0 0 1.8085938 9.4707031 L 1.8105469 9.4707031 A 0.4433634 0.4433634 0 0 0 1.7988281 9.5703125 A 0.4433634 0.4433634 0 0 0 2.1621094 10.005859 A 2 2 0 0 1 2.21875 10.011719 A 2 2 0 0 1 2.2265625 10.013672 A 2 2 0 0 1 3.9511719 11.996094 A 2 2 0 0 1 2.2265625 13.976562 L 2.2265625 13.978516 A 0.4433634 0.4433634 0 0 0 2.2070312 13.978516 A 2 2 0 0 1 2.1796875 13.982422 A 0.4433634 0.4433634 0 0 0 2.1757812 13.982422 A 0.4433634 0.4433634 0 0 0 1.7988281 14.419922 A 0.4433634 0.4433634 0 0 0 1.8164062 14.541016 L 1.8105469 14.541016 A 10.5 10.5 0 0 0 3.0058594 17.417969 A 0.4433634 0.4433634 0 0 0 3.0683594 17.496094 A 0.4433634 0.4433634 0 0 0 3.6347656 17.546875 A 2 2 0 0 1 3.6777344 17.511719 A 2 2 0 0 1 3.6835938 17.507812 A 2 2 0 0 1 6.3046875 17.689453 A 2 2 0 0 1 6.484375 20.308594 L 6.4863281 20.310547 A 0.4433634 0.4433634 0 0 0 6.4746094 20.324219 A 2 2 0 0 1 6.4570312 20.345703 A 0.4433634 0.4433634 0 0 0 6.4550781 20.347656 A 0.4433634 0.4433634 0 0 0 6.4980469 20.923828 A 0.4433634 0.4433634 0 0 0 6.59375 20.998047 L 6.5917969 21 A 10.5 10.5 0 0 0 9.4707031 22.191406 L 9.4707031 22.189453 A 0.4433634 0.4433634 0 0 0 9.5703125 22.201172 A 0.4433634 0.4433634 0 0 0 10.005859 21.837891 A 2 2 0 0 1 10.011719 21.78125 A 2 2 0 0 1 10.013672 21.773438 A 2 2 0 0 1 11.994141 20.048828 A 2 2 0 0 1 13.974609 21.773438 L 13.976562 21.773438 A 0.4433634 0.4433634 0 0 0 13.978516 21.792969 A 2 2 0 0 1 13.980469 21.820312 A 0.4433634 0.4433634 0 0 0 13.982422 21.824219 A 0.4433634 0.4433634 0 0 0 14.419922 22.201172 A 0.4433634 0.4433634 0 0 0 14.539062 22.183594 L 14.539062 22.1875 A 10.5 10.5 0 0 0 17.416016 20.994141 A 0.4433634 0.4433634 0 0 0 17.494141 20.931641 A 0.4433634 0.4433634 0 0 0 17.546875 20.365234 A 2 2 0 0 1 17.509766 20.322266 A 2 2 0 0 1 17.505859 20.316406 A 2 2 0 0 1 17.6875 17.695312 A 2 2 0 0 1 20.306641 17.515625 L 20.308594 17.511719 A 0.4433634 0.4433634 0 0 0 20.324219 17.525391 A 2 2 0 0 1 20.34375 17.542969 A 0.4433634 0.4433634 0 0 0 20.347656 17.544922 A 0.4433634 0.4433634 0 0 0 20.923828 17.501953 A 0.4433634 0.4433634 0 0 0 20.996094 17.404297 L 21 17.408203 A 10.5 10.5 0 0 0 22.189453 14.529297 A 0.4433634 0.4433634 0 0 0 22.201172 14.429688 A 0.4433634 0.4433634 0 0 0 21.837891 13.992188 A 2 2 0 0 1 21.78125 13.986328 A 2 2 0 0 1 21.773438 13.986328 A 2 2 0 0 1 20.048828 12.003906 A 2 2 0 0 1 21.773438 10.023438 L 21.773438 10.021484 A 0.4433634 0.4433634 0 0 0 21.792969 10.021484 A 2 2 0 0 1 21.820312 10.017578 A 0.4433634 0.4433634 0 0 0 21.822266 10.017578 A 0.4433634 0.4433634 0 0 0 22.199219 9.5800781 A 0.4433634 0.4433634 0 0 0 22.183594 9.4589844 L 22.1875 9.4589844 A 10.5 10.5 0 0 0 20.994141 6.5820312 L 20.992188 6.5839844 A 0.4433634 0.4433634 0 0 0 20.931641 6.5039062 A 0.4433634 0.4433634 0 0 0 20.365234 6.453125 A 2 2 0 0 1 20.320312 6.4882812 A 2 2 0 0 1 20.316406 6.4921875 A 2 2 0 0 1 17.695312 6.3105469 A 2 2 0 0 1 17.513672 3.6914062 L 17.511719 3.6894531 A 0.4433634 0.4433634 0 0 0 17.525391 3.6757812 A 2 2 0 0 1 17.542969 3.6542969 A 0.4433634 0.4433634 0 0 0 17.544922 3.6523438 A 0.4433634 0.4433634 0 0 0 17.501953 3.0761719 A 0.4433634 0.4433634 0 0 0 17.404297 3.0019531 L 17.408203 3 A 10.5 10.5 0 0 0 14.529297 1.8085938 L 14.529297 1.8105469 A 0.4433634 0.4433634 0 0 0 14.429688 1.7988281 A 0.4433634 0.4433634 0 0 0 13.992188 2.1621094 A 2 2 0 0 1 13.986328 2.21875 A 2 2 0 0 1 13.986328 2.2265625 A 2 2 0 0 1 12.003906 3.9511719 A 2 2 0 0 1 10.023438 2.2265625 L 10.021484 2.2265625 A 0.4433634 0.4433634 0 0 0 10.021484 2.2070312 A 2 2 0 0 1 10.017578 2.1796875 A 0.4433634 0.4433634 0 0 0 10.017578 2.1757812 A 0.4433634 0.4433634 0 0 0 9.5800781 1.7988281 A 0.4433634 0.4433634 0 0 0 9.5761719 1.7988281 z M 12 6.5 A 5.5 5.5 0 0 1 17.5 12 A 5.5 5.5 0 0 1 12 17.5 A 5.5 5.5 0 0 1 6.5 12 A 5.5 5.5 0 0 1 12 6.5 z M 11.939453 8 A 4 4 0 0 0 8 12 A 4 4 0 0 0 12 16 A 4 4 0 0 0 16 12 A 4 4 0 0 0 12 8 A 4 4 0 0 0 11.939453 8 z M 11.951172 10 A 2 2 0 0 1 11.96875 10 A 2 2 0 0 1 12 10 A 2 2 0 0 1 14 12 A 2 2 0 0 1 12 14 A 2 2 0 0 1 10 12 A 2 2 0 0 1 11.951172 10 z "
     style="fill:#646464;fill-opacity:1;stroke-width:0;stop-color:#000000"
     id="path2239" />
</svg>
