<?xml version="1.0" encoding="UTF-8" standalone="no"?>
<!-- Created with Inkscape (http://www.inkscape.org/) -->

<svg
   xmlns:dc="http://purl.org/dc/elements/1.1/"
   xmlns:cc="http://creativecommons.org/ns#"
   xmlns:rdf="http://www.w3.org/1999/02/22-rdf-syntax-ns#"
   xmlns:svg="http://www.w3.org/2000/svg"
   xmlns="http://www.w3.org/2000/svg"
   xmlns:sodipodi="http://sodipodi.sourceforge.net/DTD/sodipodi-0.dtd"
   xmlns:inkscape="http://www.inkscape.org/namespaces/inkscape"
   width="38"
   height="38"
   id="svg2"
   version="1.1"
   inkscape:version="0.48.4 r9939"
   sodipodi:docname="numbers.svg">
  <defs
     id="defs4" />
  <sodipodi:namedview
     id="base"
     pagecolor="#ffffff"
     bordercolor="#666666"
     borderopacity="1.0"
     inkscape:pageopacity="0.0"
     inkscape:pageshadow="2"
     inkscape:zoom="22.868421"
     inkscape:cx="-0.39961532"
     inkscape:cy="29.494822"
     inkscape:document-units="px"
     inkscape:current-layer="capa1"
     showgrid="false"
     inkscape:window-width="1680"
     inkscape:window-height="1026"
     inkscape:window-x="0"
     inkscape:window-y="24"
     inkscape:window-maximized="1" />
  <metadata
     id="metadata7">
    <rdf:RDF>
      <cc:Work
         rdf:about="">
        <dc:format>image/svg+xml</dc:format>
        <dc:type
           rdf:resource="http://purl.org/dc/dcmitype/StillImage" />
        <dc:title />
      </cc:Work>
    </rdf:RDF>
  </metadata>
  <g
     inkscape:label="Capa 1"
     inkscape:groupmode="layer"
     id="capa1"
     transform="translate(0,-1014.3622)">
    <g
       id="48"
       transform="translate(-304.36608,679.62337)">
      <path
         d="m 298.07885,341.70206 0,-1.76 -5.962,0 0,-3.564 1.98,-9.174 5.764,0 -2.838,8.602 1.078,0 0.44,-2.486 4.532,-0.154 0,2.64 0.55,0 0,4.136 -0.55,0 0,1.76 -4.994,0"
         style="font-size:22px;font-style:normal;font-variant:normal;font-weight:900;font-stretch:normal;line-height:125%;letter-spacing:0px;word-spacing:0px;fill:#f5f5f5;fill-opacity:1;stroke:#323232;stroke-width:1.5;stroke-miterlimit:4;stroke-opacity:1;font-family:Titillium Web;-inkscape-font-specification:Titillium Web Heavy"
         id="path3956-5-2"
         inkscape:connector-curvature="0" />
      <path
         d="m 310.85285,327.20306 c 2.74266,1e-5 4.45866,0.66001 5.148,1.98 0.26399,0.52801 0.39599,1.22468 0.396,2.09 -10e-6,0.85068 -0.11735,1.52534 -0.352,2.024 -0.22001,0.49867 -0.66001,0.93867 -1.32,1.32 0.76266,0.36667 1.26865,0.79201 1.518,1.276 0.24932,0.46934 0.37399,1.21734 0.374,2.244 -10e-6,2.75733 -1.92134,4.136 -5.764,4.136 -3.84267,0 -5.764,-1.39333 -5.764,-4.18 0,-0.95333 0.13933,-1.66466 0.418,-2.134 0.27867,-0.48399 0.77733,-0.93866 1.496,-1.364 -0.63067,-0.38133 -1.06334,-0.81399 -1.298,-1.298 -0.23467,-0.49866 -0.352,-1.22466 -0.352,-2.178 0,-2.61065 1.83333,-3.91599 5.5,-3.916 m 0,11.352 c 0.30799,0 0.52799,-0.066 0.66,-0.198 0.14666,-0.14666 0.21999,-0.43266 0.22,-0.858 -10e-6,-0.42533 -0.19067,-0.82866 -0.572,-1.21 l -0.594,0 c -0.39601,0.32267 -0.59401,0.78467 -0.594,1.386 -10e-6,0.58667 0.29333,0.88 0.88,0.88 m -0.022,-7.678 c -0.26401,1e-5 -0.44734,0.0807 -0.55,0.242 -0.088,0.16134 -0.13201,0.42534 -0.132,0.792 -10e-6,0.36668 0.13933,0.71868 0.418,1.056 l 0.594,0 c 0.27866,-0.29332 0.41799,-0.65999 0.418,-1.1 -10e-6,-0.65999 -0.24934,-0.98999 -0.748,-0.99"
         style="font-size:22px;font-style:normal;font-variant:normal;font-weight:900;font-stretch:normal;line-height:125%;letter-spacing:0px;word-spacing:0px;fill:#f5f5f5;fill-opacity:1;stroke:#323232;stroke-width:1.5;stroke-miterlimit:4;stroke-opacity:1;font-family:Titillium Web;-inkscape-font-specification:Titillium Web Heavy"
         id="path3964-5"
         inkscape:connector-curvature="0" />
    </g>
    <g
       id="47"
       transform="translate(-267.98331,680.93287)">
      <path
         d="m 261.69609,340.67756 0,-1.76 -5.962,0 0,-3.564 1.98,-9.174 5.764,0 -2.838,8.602 1.078,0 0.44,-2.486 4.532,-0.154 0,2.64 0.55,0 0,4.136 -0.55,0 0,1.76 -4.994,0"
         style="font-size:22px;font-style:normal;font-variant:normal;font-weight:900;font-stretch:normal;line-height:125%;letter-spacing:0px;word-spacing:0px;fill:#f5f5f5;fill-opacity:1;stroke:#323232;stroke-width:1.5;stroke-miterlimit:4;stroke-opacity:1;font-family:Titillium Web;-inkscape-font-specification:Titillium Web Heavy"
         id="path3956-5"
         inkscape:connector-curvature="0" />
      <path
         d="m 270.29009,330.65656 0,-4.62 9.944,0 0,4.862 -3.872,9.922 -4.928,-1.012 3.652,-8.602 0,-0.55 -4.796,0"
         style="font-size:22px;font-style:normal;font-variant:normal;font-weight:900;font-stretch:normal;line-height:125%;letter-spacing:0px;word-spacing:0px;fill:#f5f5f5;fill-opacity:1;stroke:#323232;stroke-width:1.5;stroke-miterlimit:4;stroke-opacity:1;font-family:Titillium Web;-inkscape-font-specification:Titillium Web Heavy"
         id="path3962-5"
         inkscape:connector-curvature="0" />
    </g>
    <g
       id="46"
       transform="translate(-233.3623,682.24757)">
      <path
         d="m 227.07508,339.36286 0,-1.76 -5.962,0 0,-3.564 1.98,-9.174 5.764,0 -2.838,8.602 1.078,0 0.44,-2.486 4.532,-0.154 0,2.64 0.55,0 0,4.136 -0.55,0 0,1.76 -4.994,0"
         style="font-size:22px;font-style:normal;font-variant:normal;font-weight:900;font-stretch:normal;line-height:125%;letter-spacing:0px;word-spacing:0px;fill:#f5f5f5;fill-opacity:1;stroke:#323232;stroke-width:1.5;stroke-miterlimit:4;stroke-opacity:1;font-family:Titillium Web;-inkscape-font-specification:Titillium Web Heavy"
         id="path3956-1"
         inkscape:connector-curvature="0" />
      <path
         d="m 240.57508,328.60486 c -0.572,1e-5 -0.98267,0.12468 -1.232,0.374 -0.24933,0.24934 -0.396,0.62334 -0.44,1.122 l 0.22,-0.088 c 0.51333,-0.20532 1.04866,-0.30799 1.606,-0.308 1.672,1e-5 2.90399,0.40334 3.696,1.21 0.79199,0.79201 1.18799,2.03867 1.188,3.74 -1e-5,1.68667 -0.49134,2.94067 -1.474,3.762 -0.98267,0.82133 -2.332,1.232 -4.048,1.232 -2.024,0 -3.51266,-0.616 -4.466,-1.848 -0.95333,-1.232 -1.43,-3.08 -1.43,-5.544 0,-2.94799 0.60134,-4.99399 1.804,-6.138 0.572,-0.55732 1.21,-0.95332 1.914,-1.188 0.704,-0.23465 1.42267,-0.35199 2.156,-0.352 1.276,10e-6 2.728,0.19068 4.356,0.572 l 0.814,0.176 -0.352,3.652 c -1.64267,-0.24932 -3.08,-0.37399 -4.312,-0.374 m -0.44,4.994 c -0.45467,10e-6 -0.87267,0.088 -1.254,0.264 0,0.67467 0.0807,1.15867 0.242,1.452 0.16133,0.27867 0.484,0.418 0.968,0.418 0.68933,0 1.034,-0.352 1.034,-1.056 0,-0.71866 -0.33,-1.07799 -0.99,-1.078"
         style="font-size:22px;font-style:normal;font-variant:normal;font-weight:900;font-stretch:normal;line-height:125%;letter-spacing:0px;word-spacing:0px;fill:#f5f5f5;fill-opacity:1;stroke:#323232;stroke-width:1.5;stroke-miterlimit:4;stroke-opacity:1;font-family:Titillium Web;-inkscape-font-specification:Titillium Web Heavy"
         id="path3960-9"
         inkscape:connector-curvature="0" />
    </g>
    <g
       id="45"
       transform="translate(-343.79893,702.18751)">
      <path
         d="m 337.51171,319.42292 0,-1.76 -5.962,0 0,-3.564 1.98,-9.174 5.764,0 -2.838,8.602 1.078,0 0.44,-2.486 4.532,-0.154 0,2.64 0.55,0 0,4.136 -0.55,0 0,1.76 -4.994,0"
         style="font-size:22px;font-style:normal;font-variant:normal;font-weight:900;font-stretch:normal;line-height:125%;letter-spacing:0px;word-spacing:0px;fill:#f5f5f5;fill-opacity:1;stroke:#323232;stroke-width:1.5;stroke-miterlimit:4;stroke-opacity:1;font-family:Titillium Web;-inkscape-font-specification:Titillium Web Heavy"
         id="path3956-0"
         inkscape:connector-curvature="0" />
      <path
         d="m 355.49971,304.78192 0,4.4 -6.226,0 -0.11,0.968 c 0.63066,-0.21999 1.28332,-0.32999 1.958,-0.33 1.70132,10e-6 2.94799,0.34468 3.74,1.034 0.79199,0.68934 1.18799,1.90667 1.188,3.652 -1e-5,3.37333 -1.83335,5.06 -5.5,5.06 -0.68934,0 -1.51801,-0.0733 -2.486,-0.22 -0.96801,-0.132 -1.76,-0.27133 -2.376,-0.418 l -0.946,-0.22 0.374,-3.586 c 1.97999,0.29334 3.62999,0.44 4.95,0.44 0.74799,0 1.12199,-0.198 1.122,-0.594 -10e-6,-0.41066 -0.35201,-0.616 -1.056,-0.616 -0.46934,0 -0.96801,0.066 -1.496,0.198 l -0.264,0.066 -3.256,-0.396 0.308,-9.438 10.076,0"
         style="font-size:22px;font-style:normal;font-variant:normal;font-weight:900;font-stretch:normal;line-height:125%;letter-spacing:0px;word-spacing:0px;fill:#f5f5f5;fill-opacity:1;stroke:#323232;stroke-width:1.5;stroke-miterlimit:4;stroke-opacity:1;font-family:Titillium Web;-inkscape-font-specification:Titillium Web Heavy"
         id="path3958-0"
         inkscape:connector-curvature="0" />
    </g>
    <g
       id="44"
       transform="translate(-305.89114,701.09193)">
      <path
         d="m 299.60391,320.5185 0,-1.76 -5.962,0 0,-3.564 1.98,-9.174 5.764,0 -2.838,8.602 1.078,0 0.44,-2.486 4.532,-0.154 0,2.64 0.55,0 0,4.136 -0.55,0 0,1.76 -4.994,0"
         style="font-size:22px;font-style:normal;font-variant:normal;font-weight:900;font-stretch:normal;line-height:125%;letter-spacing:0px;word-spacing:0px;fill:#f5f5f5;fill-opacity:1;stroke:#323232;stroke-width:1.5;stroke-miterlimit:4;stroke-opacity:1;font-family:Titillium Web;-inkscape-font-specification:Titillium Web Heavy"
         id="path3956-73"
         inkscape:connector-curvature="0" />
      <path
         d="m 312.59791,320.5185 0,-1.76 -5.962,0 0,-3.564 1.98,-9.174 5.764,0 -2.838,8.602 1.078,0 0.44,-2.486 4.532,-0.154 0,2.64 0.55,0 0,4.136 -0.55,0 0,1.76 -4.994,0"
         style="font-size:22px;font-style:normal;font-variant:normal;font-weight:900;font-stretch:normal;line-height:125%;letter-spacing:0px;word-spacing:0px;fill:#f5f5f5;fill-opacity:1;stroke:#323232;stroke-width:1.5;stroke-miterlimit:4;stroke-opacity:1;font-family:Titillium Web;-inkscape-font-specification:Titillium Web Heavy"
         id="path3956-17"
         inkscape:connector-curvature="0" />
    </g>
    <g
       id="43"
       transform="translate(-267.76418,702.40663)">
      <path
         d="m 261.47695,319.2038 0,-1.76 -5.962,0 0,-3.564 1.98,-9.174 5.764,0 -2.838,8.602 1.078,0 0.44,-2.486 4.532,-0.154 0,2.64 0.55,0 0,4.136 -0.55,0 0,1.76 -4.994,0"
         style="font-size:22px;font-style:normal;font-variant:normal;font-weight:900;font-stretch:normal;line-height:125%;letter-spacing:0px;word-spacing:0px;fill:#f5f5f5;fill-opacity:1;stroke:#323232;stroke-width:1.5;stroke-miterlimit:4;stroke-opacity:1;font-family:Titillium Web;-inkscape-font-specification:Titillium Web Heavy"
         id="path3956-9"
         inkscape:connector-curvature="0" />
      <path
         d="m 273.65695,304.4198 c 2.15599,10e-6 3.71799,0.30801 4.686,0.924 0.98265,0.61601 1.47399,1.70135 1.474,3.256 -1e-5,0.80668 -0.10268,1.42268 -0.308,1.848 -0.19068,0.42534 -0.53535,0.81401 -1.034,1.166 0.55732,0.42534 0.95332,0.85067 1.188,1.276 0.23465,0.41067 0.35199,0.99734 0.352,1.76 -10e-6,1.83334 -0.47668,3.102 -1.43,3.806 -0.95334,0.68933 -2.42734,1.034 -4.422,1.034 -1.21734,0 -2.53734,-0.13933 -3.96,-0.418 l -0.726,-0.154 0.132,-3.85 c 1.68666,0.14667 2.88933,0.22 3.608,0.22 0.71866,0 1.19533,-0.0367 1.43,-0.11 0.23466,-0.088 0.35199,-0.264 0.352,-0.528 -10e-6,-0.27866 -0.0807,-0.46933 -0.242,-0.572 -0.16134,-0.10266 -0.46934,-0.17599 -0.924,-0.22 l -3.102,0 0,-3.894 2.904,0 c 0.79199,1e-5 1.18799,-0.21999 1.188,-0.66 -10e-6,-0.45466 -0.50601,-0.68199 -1.518,-0.682 -0.68934,10e-6 -1.70134,0.0513 -3.036,0.154 l -0.572,0.044 -0.11,-3.762 c 1.68666,-0.42532 3.04333,-0.63799 4.07,-0.638"
         style="font-size:22px;font-style:normal;font-variant:normal;font-weight:900;font-stretch:normal;line-height:125%;letter-spacing:0px;word-spacing:0px;fill:#f5f5f5;fill-opacity:1;stroke:#323232;stroke-width:1.5;stroke-miterlimit:4;stroke-opacity:1;font-family:Titillium Web;-inkscape-font-specification:Titillium Web Heavy"
         id="path3954-96"
         inkscape:connector-curvature="0" />
    </g>
    <g
       id="42"
       transform="translate(-234.01967,704.59782)">
      <path
         d="m 227.73245,317.01261 0,-1.76 -5.962,0 0,-3.564 1.98,-9.174 5.764,0 -2.838,8.602 1.078,0 0.44,-2.486 4.532,-0.154 0,2.64 0.55,0 0,4.136 -0.55,0 0,1.76 -4.994,0"
         style="font-size:22px;font-style:normal;font-variant:normal;font-weight:900;font-stretch:normal;line-height:125%;letter-spacing:0px;word-spacing:0px;fill:#f5f5f5;fill-opacity:1;stroke:#323232;stroke-width:1.5;stroke-miterlimit:4;stroke-opacity:1;font-family:Titillium Web;-inkscape-font-specification:Titillium Web Heavy"
         id="path3956-76"
         inkscape:connector-curvature="0" />
      <path
         d="m 246.18245,317.17761 -10.076,0 0,-3.784 1.914,-1.848 c 0.41066,-0.38133 0.80666,-0.76266 1.188,-1.144 -1e-5,10e-6 0.30799,-0.30799 0.924,-0.924 0.24933,-0.24933 0.47666,-0.52799 0.682,-0.836 0.20533,-0.30799 0.32266,-0.53532 0.352,-0.682 0.044,-0.16132 0.066,-0.32266 0.066,-0.484 -1e-5,-0.38132 -0.11001,-0.62332 -0.33,-0.726 -0.22001,-0.10266 -0.60867,-0.15399 -1.166,-0.154 -1.05601,10e-6 -2.024,0.0807 -2.904,0.242 l -0.462,0.088 -0.22,-3.762 c 1.52533,-0.54265 3.11666,-0.81399 4.774,-0.814 1.67199,1e-5 2.97732,0.38135 3.916,1.144 0.95332,0.74801 1.42999,1.79668 1.43,3.146 -1e-5,1.33468 -0.22001,2.38334 -0.66,3.146 -0.44001,0.76267 -1.26134,1.56201 -2.464,2.398 l -1.474,1.034 4.51,0 0,3.96"
         style="font-size:22px;font-style:normal;font-variant:normal;font-weight:900;font-stretch:normal;line-height:125%;letter-spacing:0px;word-spacing:0px;fill:#f5f5f5;fill-opacity:1;stroke:#323232;stroke-width:1.5;stroke-miterlimit:4;stroke-opacity:1;font-family:Titillium Web;-inkscape-font-specification:Titillium Web Heavy"
         id="path3952-91"
         inkscape:connector-curvature="0" />
    </g>
    <g
       id="41"
       transform="translate(-202.24722,704.15962)">
      <path
         d="m 195.96,317.45081 0,-1.76 -5.962,0 0,-3.564 1.98,-9.174 5.764,0 -2.838,8.602 1.078,0 0.44,-2.486 4.532,-0.154 0,2.64 0.55,0 0,4.136 -0.55,0 0,1.76 -4.994,0"
         style="font-size:22px;font-style:normal;font-variant:normal;font-weight:900;font-stretch:normal;line-height:125%;letter-spacing:0px;word-spacing:0px;fill:#f5f5f5;fill-opacity:1;stroke:#323232;stroke-width:1.5;stroke-miterlimit:4;stroke-opacity:1;font-family:Titillium Web;-inkscape-font-specification:Titillium Web Heavy"
         id="path3956-7"
         inkscape:connector-curvature="0" />
      <path
         d="m 212.498,302.95281 0,14.498 -4.994,0 0,-9.152 -3.036,1.21 -1.32,-3.564 5.148,-2.992 4.202,0"
         style="font-size:22px;font-style:normal;font-variant:normal;font-weight:900;font-stretch:normal;line-height:125%;letter-spacing:0px;word-spacing:0px;fill:#f5f5f5;fill-opacity:1;stroke:#323232;stroke-width:1.5;stroke-miterlimit:4;stroke-opacity:1;font-family:Titillium Web;-inkscape-font-specification:Titillium Web Heavy"
         id="path3950-84"
         inkscape:connector-curvature="0" />
    </g>
    <g
       id="40"
       transform="translate(-171.78952,703.72135)">
      <path
         d="m 165.5023,317.88908 0,-1.76 -5.962,0 0,-3.564 1.98,-9.174 5.764,0 -2.838,8.602 1.078,0 0.44,-2.486 4.532,-0.154 0,2.64 0.55,0 0,4.136 -0.55,0 0,1.76 -4.994,0"
         style="font-size:22px;font-style:normal;font-variant:normal;font-weight:900;font-stretch:normal;line-height:125%;letter-spacing:0px;word-spacing:0px;fill:#f5f5f5;fill-opacity:1;stroke:#323232;stroke-width:1.5;stroke-miterlimit:4;stroke-opacity:1;font-family:Titillium Web;-inkscape-font-specification:Titillium Web Heavy"
         id="path3956-3"
         inkscape:connector-curvature="0" />
      <path
         d="m 172.5563,310.65108 c 0,-2.66932 0.43267,-4.59065 1.298,-5.764 0.86534,-1.18799 2.36133,-1.78199 4.488,-1.782 2.12666,1e-5 3.60799,0.58668 4.444,1.76 0.83599,1.15868 1.25399,3.08001 1.254,5.764 -1e-5,2.66934 -0.42534,4.598 -1.276,5.786 -0.83601,1.17333 -2.32467,1.76 -4.466,1.76 -2.14133,0 -3.63733,-0.58667 -4.488,-1.76 -0.836,-1.188 -1.254,-3.10933 -1.254,-5.764 m 6.116,-3.3 c -0.088,-0.0733 -0.21267,-0.10999 -0.374,-0.11 -0.16133,10e-6 -0.286,0.0367 -0.374,0.11 -0.088,0.0733 -0.16133,0.23468 -0.22,0.484 -0.10267,0.44001 -0.154,1.37868 -0.154,2.816 0,1.42267 0.044,2.34667 0.132,2.772 0.10267,0.41067 0.308,0.616 0.616,0.616 0.308,0 0.506,-0.20533 0.594,-0.616 0.10266,-0.42533 0.154,-1.18799 0.154,-2.288 0,-1.09999 -0.0147,-1.86266 -0.044,-2.288 -0.0147,-0.42532 -0.0513,-0.76266 -0.11,-1.012 -0.0587,-0.24932 -0.132,-0.41066 -0.22,-0.484"
         style="font-size:22px;font-style:normal;font-variant:normal;font-weight:900;font-stretch:normal;line-height:125%;letter-spacing:0px;word-spacing:0px;fill:#f5f5f5;fill-opacity:1;stroke:#323232;stroke-width:1.5;stroke-miterlimit:4;stroke-opacity:1;font-family:Titillium Web;-inkscape-font-specification:Titillium Web Heavy"
         id="path3968-6"
         inkscape:connector-curvature="0" />
    </g>
    <g
       id="39"
       transform="translate(-342.48421,724.53779)">
      <path
         d="m 334.41499,282.28864 c 2.15599,1e-5 3.71799,0.30801 4.686,0.924 0.98265,0.61601 1.47399,1.70135 1.474,3.256 -1e-5,0.80668 -0.10268,1.42268 -0.308,1.848 -0.19068,0.42534 -0.53535,0.81401 -1.034,1.166 0.55732,0.42534 0.95332,0.85067 1.188,1.276 0.23465,0.41067 0.35199,0.99734 0.352,1.76 -10e-6,1.83334 -0.47668,3.102 -1.43,3.806 -0.95335,0.68933 -2.42734,1.034 -4.422,1.034 -1.21734,0 -2.53734,-0.13933 -3.96,-0.418 l -0.726,-0.154 0.132,-3.85 c 1.68666,0.14667 2.88933,0.22 3.608,0.22 0.71866,0 1.19532,-0.0367 1.43,-0.11 0.23466,-0.088 0.35199,-0.264 0.352,-0.528 -10e-6,-0.27866 -0.0807,-0.46933 -0.242,-0.572 -0.16134,-0.10266 -0.46934,-0.17599 -0.924,-0.22 l -3.102,0 0,-3.894 2.904,0 c 0.79199,10e-6 1.18799,-0.21999 1.188,-0.66 -10e-6,-0.45466 -0.50601,-0.68199 -1.518,-0.682 -0.68934,1e-5 -1.70134,0.0513 -3.036,0.154 l -0.572,0.044 -0.11,-3.762 c 1.68666,-0.42532 3.04333,-0.63799 4.07,-0.638"
         style="font-size:22px;font-style:normal;font-variant:normal;font-weight:900;font-stretch:normal;line-height:125%;letter-spacing:0px;word-spacing:0px;fill:#f5f5f5;fill-opacity:1;stroke:#323232;stroke-width:1.5;stroke-miterlimit:4;stroke-opacity:1;font-family:Titillium Web;-inkscape-font-specification:Titillium Web Heavy"
         id="path3954-7"
         inkscape:connector-curvature="0" />
      <path
         d="m 348.35499,293.33264 c 0.57199,0 0.98266,-0.12466 1.232,-0.374 0.24932,-0.24933 0.39599,-0.62333 0.44,-1.122 l -0.22,0.088 c -0.51334,0.20534 -1.04868,0.308 -1.606,0.308 -1.67201,0 -2.90401,-0.39599 -3.696,-1.188 -0.792,-0.80666 -1.188,-2.05333 -1.188,-3.74 0,-1.70132 0.49133,-2.96265 1.474,-3.784 0.98266,-0.82132 2.33199,-1.23199 4.048,-1.232 2.02399,1e-5 3.51265,0.61601 4.466,1.848 0.95332,1.23201 1.42999,3.08001 1.43,5.544 -10e-6,2.948 -0.59401,4.994 -1.782,6.138 -0.58668,0.55733 -1.23201,0.95333 -1.936,1.188 -0.70401,0.23467 -1.42268,0.352 -2.156,0.352 -1.27601,0 -2.72801,-0.18333 -4.356,-0.55 l -0.814,-0.198 0.352,-3.652 c 1.64266,0.24934 3.07999,0.374 4.312,0.374 m 0.44,-4.994 c 0.45466,10e-6 0.87266,-0.088 1.254,-0.264 -1e-5,-0.67466 -0.0807,-1.15132 -0.242,-1.43 -0.16134,-0.29332 -0.48401,-0.43999 -0.968,-0.44 -0.68934,1e-5 -1.03401,0.35934 -1.034,1.078 -10e-6,0.70401 0.32999,1.05601 0.99,1.056"
         style="font-size:22px;font-style:normal;font-variant:normal;font-weight:900;font-stretch:normal;line-height:125%;letter-spacing:0px;word-spacing:0px;fill:#f5f5f5;fill-opacity:1;stroke:#323232;stroke-width:1.5;stroke-miterlimit:4;stroke-opacity:1;font-family:Titillium Web;-inkscape-font-specification:Titillium Web Heavy"
         id="path3966-6"
         inkscape:connector-curvature="0" />
    </g>
    <g
       id="38"
       transform="translate(-306.98671,720.81275)">
      <path
         d="m 298.91749,286.01368 c 2.15599,10e-6 3.71799,0.30801 4.686,0.924 0.98265,0.61601 1.47399,1.70135 1.474,3.256 -1e-5,0.80668 -0.10268,1.42268 -0.308,1.848 -0.19068,0.42534 -0.53535,0.81401 -1.034,1.166 0.55732,0.42534 0.95332,0.85067 1.188,1.276 0.23465,0.41067 0.35199,0.99734 0.352,1.76 -10e-6,1.83334 -0.47668,3.102 -1.43,3.806 -0.95335,0.68933 -2.42734,1.034 -4.422,1.034 -1.21734,0 -2.53734,-0.13933 -3.96,-0.418 l -0.726,-0.154 0.132,-3.85 c 1.68666,0.14667 2.88933,0.22 3.608,0.22 0.71866,0 1.19532,-0.0367 1.43,-0.11 0.23466,-0.088 0.35199,-0.264 0.352,-0.528 -1e-5,-0.27866 -0.0807,-0.46933 -0.242,-0.572 -0.16134,-0.10266 -0.46934,-0.17599 -0.924,-0.22 l -3.102,0 0,-3.894 2.904,0 c 0.79199,10e-6 1.18799,-0.21999 1.188,-0.66 -10e-6,-0.45466 -0.50601,-0.68199 -1.518,-0.682 -0.68934,10e-6 -1.70134,0.0513 -3.036,0.154 l -0.572,0.044 -0.11,-3.762 c 1.68666,-0.42532 3.04333,-0.63799 4.07,-0.638"
         style="font-size:22px;font-style:normal;font-variant:normal;font-weight:900;font-stretch:normal;line-height:125%;letter-spacing:0px;word-spacing:0px;fill:#f5f5f5;fill-opacity:1;stroke:#323232;stroke-width:1.5;stroke-miterlimit:4;stroke-opacity:1;font-family:Titillium Web;-inkscape-font-specification:Titillium Web Heavy"
         id="path3954-81"
         inkscape:connector-curvature="0" />
      <path
         d="m 313.47349,286.01368 c 2.74266,10e-6 4.45866,0.66001 5.148,1.98 0.26399,0.52801 0.39599,1.22468 0.396,2.09 -1e-5,0.85068 -0.11735,1.52534 -0.352,2.024 -0.22001,0.49867 -0.66001,0.93867 -1.32,1.32 0.76266,0.36667 1.26865,0.79201 1.518,1.276 0.24932,0.46934 0.37399,1.21734 0.374,2.244 -10e-6,2.75733 -1.92134,4.136 -5.764,4.136 -3.84267,0 -5.764,-1.39333 -5.764,-4.18 0,-0.95333 0.13933,-1.66466 0.418,-2.134 0.27867,-0.48399 0.77733,-0.93866 1.496,-1.364 -0.63067,-0.38133 -1.06334,-0.81399 -1.298,-1.298 -0.23467,-0.49866 -0.352,-1.22466 -0.352,-2.178 0,-2.61065 1.83333,-3.91599 5.5,-3.916 m 0,11.352 c 0.30799,0 0.52799,-0.066 0.66,-0.198 0.14666,-0.14666 0.21999,-0.43266 0.22,-0.858 -1e-5,-0.42533 -0.19067,-0.82866 -0.572,-1.21 l -0.594,0 c -0.39601,0.32267 -0.59401,0.78467 -0.594,1.386 -10e-6,0.58667 0.29333,0.88 0.88,0.88 m -0.022,-7.678 c -0.26401,10e-6 -0.44734,0.0807 -0.55,0.242 -0.088,0.16134 -0.13201,0.42534 -0.132,0.792 -1e-5,0.36668 0.13933,0.71868 0.418,1.056 l 0.594,0 c 0.27866,-0.29332 0.41799,-0.65999 0.418,-1.1 -1e-5,-0.65999 -0.24934,-0.98999 -0.748,-0.99"
         style="font-size:22px;font-style:normal;font-variant:normal;font-weight:900;font-stretch:normal;line-height:125%;letter-spacing:0px;word-spacing:0px;fill:#f5f5f5;fill-opacity:1;stroke:#323232;stroke-width:1.5;stroke-miterlimit:4;stroke-opacity:1;font-family:Titillium Web;-inkscape-font-specification:Titillium Web Heavy"
         id="path3964-2"
         inkscape:connector-curvature="0" />
    </g>
    <g
       id="37"
       transform="translate(-269.51717,724.09953)">
      <path
         d="m 261.44794,282.7269 c 2.15599,10e-6 3.71799,0.30801 4.686,0.924 0.98265,0.61601 1.47399,1.70135 1.474,3.256 -10e-6,0.80668 -0.10268,1.42268 -0.308,1.848 -0.19068,0.42534 -0.53535,0.81401 -1.034,1.166 0.55732,0.42534 0.95332,0.85067 1.188,1.276 0.23465,0.41067 0.35199,0.99734 0.352,1.76 -1e-5,1.83334 -0.47668,3.102 -1.43,3.806 -0.95334,0.68933 -2.42734,1.034 -4.422,1.034 -1.21734,0 -2.53734,-0.13933 -3.96,-0.418 l -0.726,-0.154 0.132,-3.85 c 1.68666,0.14667 2.88933,0.22 3.608,0.22 0.71866,0 1.19533,-0.0367 1.43,-0.11 0.23466,-0.088 0.35199,-0.264 0.352,-0.528 -10e-6,-0.27866 -0.0807,-0.46933 -0.242,-0.572 -0.16134,-0.10266 -0.46934,-0.17599 -0.924,-0.22 l -3.102,0 0,-3.894 2.904,0 c 0.79199,1e-5 1.18799,-0.21999 1.188,-0.66 -1e-5,-0.45466 -0.50601,-0.68199 -1.518,-0.682 -0.68934,10e-6 -1.70134,0.0513 -3.036,0.154 l -0.572,0.044 -0.11,-3.762 c 1.68666,-0.42532 3.04333,-0.63799 4.07,-0.638"
         style="font-size:22px;font-style:normal;font-variant:normal;font-weight:900;font-stretch:normal;line-height:125%;letter-spacing:0px;word-spacing:0px;fill:#f5f5f5;fill-opacity:1;stroke:#323232;stroke-width:1.5;stroke-miterlimit:4;stroke-opacity:1;font-family:Titillium Web;-inkscape-font-specification:Titillium Web Heavy"
         id="path3954-6"
         inkscape:connector-curvature="0" />
      <path
         d="m 271.82394,287.4899 0,-4.62 9.944,0 0,4.862 -3.872,9.922 -4.928,-1.012 3.652,-8.602 0,-0.55 -4.796,0"
         style="font-size:22px;font-style:normal;font-variant:normal;font-weight:900;font-stretch:normal;line-height:125%;letter-spacing:0px;word-spacing:0px;fill:#f5f5f5;fill-opacity:1;stroke:#323232;stroke-width:1.5;stroke-miterlimit:4;stroke-opacity:1;font-family:Titillium Web;-inkscape-font-specification:Titillium Web Heavy"
         id="path3962-6"
         inkscape:connector-curvature="0" />
    </g>
    <g
       id="36"
       transform="translate(-236.42998,724.09953)">
      <path
         d="m 228.36076,282.7269 c 2.15599,10e-6 3.71799,0.30801 4.686,0.924 0.98265,0.61601 1.47399,1.70135 1.474,3.256 -1e-5,0.80668 -0.10268,1.42268 -0.308,1.848 -0.19068,0.42534 -0.53535,0.81401 -1.034,1.166 0.55732,0.42534 0.95332,0.85067 1.188,1.276 0.23465,0.41067 0.35199,0.99734 0.352,1.76 -1e-5,1.83334 -0.47668,3.102 -1.43,3.806 -0.95334,0.68933 -2.42734,1.034 -4.422,1.034 -1.21734,0 -2.53734,-0.13933 -3.96,-0.418 l -0.726,-0.154 0.132,-3.85 c 1.68666,0.14667 2.88933,0.22 3.608,0.22 0.71866,0 1.19533,-0.0367 1.43,-0.11 0.23466,-0.088 0.35199,-0.264 0.352,-0.528 -1e-5,-0.27866 -0.0807,-0.46933 -0.242,-0.572 -0.16134,-0.10266 -0.46934,-0.17599 -0.924,-0.22 l -3.102,0 0,-3.894 2.904,0 c 0.79199,1e-5 1.18799,-0.21999 1.188,-0.66 -1e-5,-0.45466 -0.50601,-0.68199 -1.518,-0.682 -0.68934,10e-6 -1.70134,0.0513 -3.036,0.154 l -0.572,0.044 -0.11,-3.762 c 1.68666,-0.42532 3.04333,-0.63799 4.07,-0.638"
         style="font-size:22px;font-style:normal;font-variant:normal;font-weight:900;font-stretch:normal;line-height:125%;letter-spacing:0px;word-spacing:0px;fill:#f5f5f5;fill-opacity:1;stroke:#323232;stroke-width:1.5;stroke-miterlimit:4;stroke-opacity:1;font-family:Titillium Web;-inkscape-font-specification:Titillium Web Heavy"
         id="path3954-5"
         inkscape:connector-curvature="0" />
      <path
         d="m 243.64276,286.7529 c -0.572,10e-6 -0.98267,0.12468 -1.232,0.374 -0.24933,0.24934 -0.396,0.62334 -0.44,1.122 l 0.22,-0.088 c 0.51333,-0.20532 1.04866,-0.30799 1.606,-0.308 1.672,1e-5 2.90399,0.40334 3.696,1.21 0.79199,0.79201 1.18799,2.03867 1.188,3.74 -1e-5,1.68667 -0.49134,2.94067 -1.474,3.762 -0.98267,0.82133 -2.332,1.232 -4.048,1.232 -2.024,0 -3.51266,-0.616 -4.466,-1.848 -0.95333,-1.232 -1.43,-3.08 -1.43,-5.544 0,-2.94799 0.60134,-4.99399 1.804,-6.138 0.572,-0.55732 1.21,-0.95332 1.914,-1.188 0.704,-0.23465 1.42267,-0.35199 2.156,-0.352 1.276,10e-6 2.728,0.19068 4.356,0.572 l 0.814,0.176 -0.352,3.652 c -1.64267,-0.24932 -3.08,-0.37399 -4.312,-0.374 m -0.44,4.994 c -0.45467,1e-5 -0.87267,0.088 -1.254,0.264 0,0.67467 0.0807,1.15867 0.242,1.452 0.16133,0.27867 0.484,0.418 0.968,0.418 0.68933,0 1.034,-0.352 1.034,-1.056 0,-0.71866 -0.33,-1.07799 -0.99,-1.078"
         style="font-size:22px;font-style:normal;font-variant:normal;font-weight:900;font-stretch:normal;line-height:125%;letter-spacing:0px;word-spacing:0px;fill:#f5f5f5;fill-opacity:1;stroke:#323232;stroke-width:1.5;stroke-miterlimit:4;stroke-opacity:1;font-family:Titillium Web;-inkscape-font-specification:Titillium Web Heavy"
         id="path3960-7"
         inkscape:connector-curvature="0" />
    </g>
    <g
       id="35"
       transform="translate(-203.78107,724.53779)">
      <path
         d="m 195.71185,282.28864 c 2.156,1e-5 3.718,0.30801 4.686,0.924 0.98266,0.61601 1.47399,1.70135 1.474,3.256 -1e-5,0.80668 -0.10267,1.42268 -0.308,1.848 -0.19067,0.42534 -0.53534,0.81401 -1.034,1.166 0.55733,0.42534 0.95333,0.85067 1.188,1.276 0.23466,0.41067 0.35199,0.99734 0.352,1.76 -1e-5,1.83334 -0.47667,3.102 -1.43,3.806 -0.95334,0.68933 -2.42734,1.034 -4.422,1.034 -1.21733,0 -2.53733,-0.13933 -3.96,-0.418 l -0.726,-0.154 0.132,-3.85 c 1.68667,0.14667 2.88933,0.22 3.608,0.22 0.71867,0 1.19533,-0.0367 1.43,-0.11 0.23466,-0.088 0.352,-0.264 0.352,-0.528 0,-0.27866 -0.0807,-0.46933 -0.242,-0.572 -0.16133,-0.10266 -0.46933,-0.17599 -0.924,-0.22 l -3.102,0 0,-3.894 2.904,0 c 0.792,10e-6 1.188,-0.21999 1.188,-0.66 0,-0.45466 -0.506,-0.68199 -1.518,-0.682 -0.68933,1e-5 -1.70133,0.0513 -3.036,0.154 l -0.572,0.044 -0.11,-3.762 c 1.68667,-0.42532 3.04333,-0.63799 4.07,-0.638"
         style="font-size:22px;font-style:normal;font-variant:normal;font-weight:900;font-stretch:normal;line-height:125%;letter-spacing:0px;word-spacing:0px;fill:#f5f5f5;fill-opacity:1;stroke:#323232;stroke-width:1.5;stroke-miterlimit:4;stroke-opacity:1;font-family:Titillium Web;-inkscape-font-specification:Titillium Web Heavy"
         id="path3954-83"
         inkscape:connector-curvature="0" />
      <path
         d="m 215.48185,282.43164 0,4.4 -6.226,0 -0.11,0.968 c 0.63066,-0.21999 1.28332,-0.32999 1.958,-0.33 1.70132,10e-6 2.94799,0.34468 3.74,1.034 0.79199,0.68934 1.18799,1.90667 1.188,3.652 -1e-5,3.37333 -1.83335,5.06 -5.5,5.06 -0.68934,0 -1.51801,-0.0733 -2.486,-0.22 -0.96801,-0.132 -1.76,-0.27133 -2.376,-0.418 l -0.946,-0.22 0.374,-3.586 c 1.97999,0.29334 3.62999,0.44 4.95,0.44 0.74799,0 1.12199,-0.198 1.122,-0.594 -1e-5,-0.41066 -0.35201,-0.616 -1.056,-0.616 -0.46934,0 -0.96801,0.066 -1.496,0.198 l -0.264,0.066 -3.256,-0.396 0.308,-9.438 10.076,0"
         style="font-size:22px;font-style:normal;font-variant:normal;font-weight:900;font-stretch:normal;line-height:125%;letter-spacing:0px;word-spacing:0px;fill:#f5f5f5;fill-opacity:1;stroke:#323232;stroke-width:1.5;stroke-miterlimit:4;stroke-opacity:1;font-family:Titillium Web;-inkscape-font-specification:Titillium Web Heavy"
         id="path3958-4"
         inkscape:connector-curvature="0" />
    </g>
    <g
       id="34"
       transform="translate(-171.57038,725.19514)">
      <path
         d="m 163.50115,281.63129 c 2.15599,1e-5 3.71799,0.30801 4.686,0.924 0.98265,0.61601 1.47399,1.70135 1.474,3.256 -1e-5,0.80668 -0.10268,1.42268 -0.308,1.848 -0.19068,0.42534 -0.53535,0.81401 -1.034,1.166 0.55732,0.42534 0.95332,0.85067 1.188,1.276 0.23465,0.41067 0.35199,0.99734 0.352,1.76 -1e-5,1.83334 -0.47668,3.102 -1.43,3.806 -0.95334,0.68933 -2.42734,1.034 -4.422,1.034 -1.21734,0 -2.53734,-0.13933 -3.96,-0.418 l -0.726,-0.154 0.132,-3.85 c 1.68666,0.14667 2.88933,0.22 3.608,0.22 0.71866,0 1.19533,-0.0367 1.43,-0.11 0.23466,-0.088 0.35199,-0.264 0.352,-0.528 -1e-5,-0.27866 -0.0807,-0.46933 -0.242,-0.572 -0.16134,-0.10266 -0.46934,-0.17599 -0.924,-0.22 l -3.102,0 0,-3.894 2.904,0 c 0.79199,10e-6 1.18799,-0.21999 1.188,-0.66 -1e-5,-0.45466 -0.50601,-0.68199 -1.518,-0.682 -0.68934,1e-5 -1.70134,0.0513 -3.036,0.154 l -0.572,0.044 -0.11,-3.762 c 1.68666,-0.42532 3.04333,-0.63799 4.07,-0.638"
         style="font-size:22px;font-style:normal;font-variant:normal;font-weight:900;font-stretch:normal;line-height:125%;letter-spacing:0px;word-spacing:0px;fill:#f5f5f5;fill-opacity:1;stroke:#323232;stroke-width:1.5;stroke-miterlimit:4;stroke-opacity:1;font-family:Titillium Web;-inkscape-font-specification:Titillium Web Heavy"
         id="path3954-2"
         inkscape:connector-curvature="0" />
      <path
         d="m 178.27715,296.41529 0,-1.76 -5.962,0 0,-3.564 1.98,-9.174 5.764,0 -2.838,8.602 1.078,0 0.44,-2.486 4.532,-0.154 0,2.64 0.55,0 0,4.136 -0.55,0 0,1.76 -4.994,0"
         style="font-size:22px;font-style:normal;font-variant:normal;font-weight:900;font-stretch:normal;line-height:125%;letter-spacing:0px;word-spacing:0px;fill:#f5f5f5;fill-opacity:1;stroke:#323232;stroke-width:1.5;stroke-miterlimit:4;stroke-opacity:1;font-family:Titillium Web;-inkscape-font-specification:Titillium Web Heavy"
         id="path3956-50"
         inkscape:connector-curvature="0" />
    </g>
    <g
       id="33"
       transform="translate(-342.70332,746.23069)">
      <path
         d="m 334.6341,260.59574 c 2.15599,1e-5 3.71799,0.30801 4.686,0.924 0.98265,0.61601 1.47399,1.70135 1.474,3.256 -1e-5,0.80668 -0.10268,1.42268 -0.308,1.848 -0.19068,0.42534 -0.53535,0.81401 -1.034,1.166 0.55732,0.42534 0.95332,0.85067 1.188,1.276 0.23465,0.41067 0.35199,0.99734 0.352,1.76 -10e-6,1.83334 -0.47668,3.102 -1.43,3.806 -0.95335,0.68933 -2.42734,1.034 -4.422,1.034 -1.21734,0 -2.53734,-0.13933 -3.96,-0.418 l -0.726,-0.154 0.132,-3.85 c 1.68666,0.14667 2.88933,0.22 3.608,0.22 0.71866,0 1.19532,-0.0367 1.43,-0.11 0.23466,-0.088 0.35199,-0.264 0.352,-0.528 -10e-6,-0.27866 -0.0807,-0.46933 -0.242,-0.572 -0.16134,-0.10266 -0.46934,-0.17599 -0.924,-0.22 l -3.102,0 0,-3.894 2.904,0 c 0.79199,10e-6 1.18799,-0.21999 1.188,-0.66 -10e-6,-0.45466 -0.50601,-0.68199 -1.518,-0.682 -0.68934,1e-5 -1.70134,0.0513 -3.036,0.154 l -0.572,0.044 -0.11,-3.762 c 1.68666,-0.42532 3.04333,-0.63799 4.07,-0.638"
         style="font-size:22px;font-style:normal;font-variant:normal;font-weight:900;font-stretch:normal;line-height:125%;letter-spacing:0px;word-spacing:0px;fill:#f5f5f5;fill-opacity:1;stroke:#323232;stroke-width:1.5;stroke-miterlimit:4;stroke-opacity:1;font-family:Titillium Web;-inkscape-font-specification:Titillium Web Heavy"
         id="path3954-34"
         inkscape:connector-curvature="0" />
      <path
         d="m 348.5961,260.59574 c 2.15599,1e-5 3.71799,0.30801 4.686,0.924 0.98265,0.61601 1.47399,1.70135 1.474,3.256 -1e-5,0.80668 -0.10268,1.42268 -0.308,1.848 -0.19068,0.42534 -0.53535,0.81401 -1.034,1.166 0.55732,0.42534 0.95332,0.85067 1.188,1.276 0.23465,0.41067 0.35199,0.99734 0.352,1.76 -10e-6,1.83334 -0.47668,3.102 -1.43,3.806 -0.95334,0.68933 -2.42734,1.034 -4.422,1.034 -1.21734,0 -2.53734,-0.13933 -3.96,-0.418 l -0.726,-0.154 0.132,-3.85 c 1.68666,0.14667 2.88933,0.22 3.608,0.22 0.71866,0 1.19533,-0.0367 1.43,-0.11 0.23466,-0.088 0.35199,-0.264 0.352,-0.528 -1e-5,-0.27866 -0.0807,-0.46933 -0.242,-0.572 -0.16134,-0.10266 -0.46934,-0.17599 -0.924,-0.22 l -3.102,0 0,-3.894 2.904,0 c 0.79199,10e-6 1.18799,-0.21999 1.188,-0.66 -10e-6,-0.45466 -0.50601,-0.68199 -1.518,-0.682 -0.68934,1e-5 -1.70134,0.0513 -3.036,0.154 l -0.572,0.044 -0.11,-3.762 c 1.68666,-0.42532 3.04333,-0.63799 4.07,-0.638"
         style="font-size:22px;font-style:normal;font-variant:normal;font-weight:900;font-stretch:normal;line-height:125%;letter-spacing:0px;word-spacing:0px;fill:#f5f5f5;fill-opacity:1;stroke:#323232;stroke-width:1.5;stroke-miterlimit:4;stroke-opacity:1;font-family:Titillium Web;-inkscape-font-specification:Titillium Web Heavy"
         id="path3954-56"
         inkscape:connector-curvature="0" />
    </g>
    <g
       id="32"
       transform="translate(-305.45287,746.23069)">
      <path
         d="m 297.38364,260.59574 c 2.15599,1e-5 3.71799,0.30801 4.686,0.924 0.98265,0.61601 1.47399,1.70135 1.474,3.256 -10e-6,0.80668 -0.10268,1.42268 -0.308,1.848 -0.19068,0.42534 -0.53535,0.81401 -1.034,1.166 0.55732,0.42534 0.95332,0.85067 1.188,1.276 0.23465,0.41067 0.35199,0.99734 0.352,1.76 -1e-5,1.83334 -0.47668,3.102 -1.43,3.806 -0.95334,0.68933 -2.42734,1.034 -4.422,1.034 -1.21734,0 -2.53734,-0.13933 -3.96,-0.418 l -0.726,-0.154 0.132,-3.85 c 1.68666,0.14667 2.88933,0.22 3.608,0.22 0.71866,0 1.19533,-0.0367 1.43,-0.11 0.23466,-0.088 0.35199,-0.264 0.352,-0.528 -10e-6,-0.27866 -0.0807,-0.46933 -0.242,-0.572 -0.16134,-0.10266 -0.46934,-0.17599 -0.924,-0.22 l -3.102,0 0,-3.894 2.904,0 c 0.79199,10e-6 1.18799,-0.21999 1.188,-0.66 -1e-5,-0.45466 -0.50601,-0.68199 -1.518,-0.682 -0.68934,1e-5 -1.70134,0.0513 -3.036,0.154 l -0.572,0.044 -0.11,-3.762 c 1.68666,-0.42532 3.04333,-0.63799 4.07,-0.638"
         style="font-size:22px;font-style:normal;font-variant:normal;font-weight:900;font-stretch:normal;line-height:125%;letter-spacing:0px;word-spacing:0px;fill:#f5f5f5;fill-opacity:1;stroke:#323232;stroke-width:1.5;stroke-miterlimit:4;stroke-opacity:1;font-family:Titillium Web;-inkscape-font-specification:Titillium Web Heavy"
         id="path3954-3"
         inkscape:connector-curvature="0" />
      <path
         d="m 317.61564,275.54474 -10.076,0 0,-3.784 1.914,-1.848 c 0.41066,-0.38133 0.80666,-0.76266 1.188,-1.144 -10e-6,1e-5 0.30799,-0.30799 0.924,-0.924 0.24932,-0.24933 0.47666,-0.52799 0.682,-0.836 0.20532,-0.30799 0.32266,-0.53532 0.352,-0.682 0.044,-0.16132 0.066,-0.32266 0.066,-0.484 -10e-6,-0.38132 -0.11001,-0.62332 -0.33,-0.726 -0.22001,-0.10266 -0.60868,-0.15399 -1.166,-0.154 -1.05601,1e-5 -2.02401,0.0807 -2.904,0.242 l -0.462,0.088 -0.22,-3.762 c 1.52533,-0.54265 3.11666,-0.81399 4.774,-0.814 1.67199,10e-6 2.97732,0.38135 3.916,1.144 0.95332,0.74801 1.42998,1.79668 1.43,3.146 -2e-5,1.33468 -0.22001,2.38334 -0.66,3.146 -0.44001,0.76267 -1.26135,1.56201 -2.464,2.398 l -1.474,1.034 4.51,0 0,3.96"
         style="font-size:22px;font-style:normal;font-variant:normal;font-weight:900;font-stretch:normal;line-height:125%;letter-spacing:0px;word-spacing:0px;fill:#f5f5f5;fill-opacity:1;stroke:#323232;stroke-width:1.5;stroke-miterlimit:4;stroke-opacity:1;font-family:Titillium Web;-inkscape-font-specification:Titillium Web Heavy"
         id="path3952-03"
         inkscape:connector-curvature="0" />
    </g>
    <g
       id="31"
       transform="translate(-270.83186,747.76454)">
      <path
         d="m 262.76264,259.06189 c 2.15599,10e-6 3.71799,0.30801 4.686,0.924 0.98265,0.61601 1.47399,1.70135 1.474,3.256 -10e-6,0.80668 -0.10268,1.42268 -0.308,1.848 -0.19068,0.42534 -0.53535,0.81401 -1.034,1.166 0.55732,0.42534 0.95332,0.85067 1.188,1.276 0.23465,0.41067 0.35199,0.99734 0.352,1.76 -10e-6,1.83334 -0.47668,3.102 -1.43,3.806 -0.95335,0.68933 -2.42734,1.034 -4.422,1.034 -1.21734,0 -2.53734,-0.13933 -3.96,-0.418 l -0.726,-0.154 0.132,-3.85 c 1.68666,0.14667 2.88933,0.22 3.608,0.22 0.71866,0 1.19532,-0.0367 1.43,-0.11 0.23466,-0.088 0.35199,-0.264 0.352,-0.528 -1e-5,-0.27866 -0.0807,-0.46933 -0.242,-0.572 -0.16134,-0.10266 -0.46934,-0.17599 -0.924,-0.22 l -3.102,0 0,-3.894 2.904,0 c 0.79199,1e-5 1.18799,-0.21999 1.188,-0.66 -10e-6,-0.45466 -0.50601,-0.68199 -1.518,-0.682 -0.68934,10e-6 -1.70134,0.0513 -3.036,0.154 l -0.572,0.044 -0.11,-3.762 c 1.68666,-0.42532 3.04333,-0.63799 4.07,-0.638"
         style="font-size:22px;font-style:normal;font-variant:normal;font-weight:900;font-stretch:normal;line-height:125%;letter-spacing:0px;word-spacing:0px;fill:#f5f5f5;fill-opacity:1;stroke:#323232;stroke-width:1.5;stroke-miterlimit:4;stroke-opacity:1;font-family:Titillium Web;-inkscape-font-specification:Titillium Web Heavy"
         id="path3954-9"
         inkscape:connector-curvature="0" />
      <path
         d="m 281.08264,259.34789 0,14.498 -4.994,0 0,-9.152 -3.036,1.21 -1.32,-3.564 5.148,-2.992 4.202,0"
         style="font-size:22px;font-style:normal;font-variant:normal;font-weight:900;font-stretch:normal;line-height:125%;letter-spacing:0px;word-spacing:0px;fill:#f5f5f5;fill-opacity:1;stroke:#323232;stroke-width:1.5;stroke-miterlimit:4;stroke-opacity:1;font-family:Titillium Web;-inkscape-font-specification:Titillium Web Heavy"
         id="path3950-32"
         inkscape:connector-curvature="0" />
    </g>
    <g
       id="30"
       transform="translate(-237.74472,748.20277)">
      <path
         d="m 229.67549,258.62366 c 2.15599,1e-5 3.71799,0.30801 4.686,0.924 0.98266,0.61601 1.47399,1.70135 1.474,3.256 -1e-5,0.80668 -0.10268,1.42268 -0.308,1.848 -0.19068,0.42534 -0.53534,0.81401 -1.034,1.166 0.55732,0.42534 0.95332,0.85067 1.188,1.276 0.23466,0.41067 0.35199,0.99734 0.352,1.76 -1e-5,1.83334 -0.47668,3.102 -1.43,3.806 -0.95334,0.68933 -2.42734,1.034 -4.422,1.034 -1.21733,0 -2.53733,-0.13933 -3.95999,-0.418 l -0.726,-0.154 0.132,-3.85 c 1.68666,0.14667 2.88933,0.22 3.608,0.22 0.71865,0 1.19532,-0.0367 1.42999,-0.11 0.23466,-0.088 0.352,-0.264 0.352,-0.528 0,-0.27866 -0.0807,-0.46933 -0.242,-0.572 -0.16134,-0.10266 -0.46934,-0.17599 -0.924,-0.22 l -3.10199,0 0,-3.894 2.90399,0 c 0.792,10e-6 1.188,-0.21999 1.188,-0.66 0,-0.45466 -0.506,-0.68199 -1.51799,-0.682 -0.68934,10e-6 -1.70134,0.0513 -3.036,0.154 l -0.572,0.044 -0.11,-3.762 c 1.68666,-0.42532 3.04333,-0.63799 4.06999,-0.638"
         style="font-size:22px;font-style:normal;font-variant:normal;font-weight:900;font-stretch:normal;line-height:125%;letter-spacing:0px;word-spacing:0px;fill:#f5f5f5;fill-opacity:1;stroke:#323232;stroke-width:1.5;stroke-miterlimit:4;stroke-opacity:1;font-family:Titillium Web;-inkscape-font-specification:Titillium Web Heavy"
         id="path3954-8"
         inkscape:connector-curvature="0" />
      <path
         d="m 238.5115,266.16966 c 0,-2.66932 0.43267,-4.59065 1.298,-5.764 0.86534,-1.18799 2.36133,-1.78199 4.488,-1.782 2.12666,1e-5 3.60799,0.58668 4.444,1.76 0.83599,1.15868 1.25399,3.08001 1.254,5.764 -1e-5,2.66934 -0.42534,4.598 -1.276,5.786 -0.83601,1.17333 -2.32467,1.76 -4.466,1.76 -2.14133,0 -3.63733,-0.58667 -4.488,-1.76 -0.836,-1.188 -1.254,-3.10933 -1.254,-5.764 m 6.116,-3.3 c -0.088,-0.0733 -0.21267,-0.10999 -0.374,-0.11 -0.16133,1e-5 -0.286,0.0367 -0.374,0.11 -0.088,0.0733 -0.16133,0.23468 -0.22,0.484 -0.10267,0.44001 -0.154,1.37868 -0.154,2.816 0,1.42267 0.044,2.34667 0.132,2.772 0.10267,0.41067 0.308,0.616 0.616,0.616 0.308,0 0.506,-0.20533 0.594,-0.616 0.10266,-0.42533 0.154,-1.18799 0.154,-2.288 0,-1.09999 -0.0147,-1.86266 -0.044,-2.288 -0.0147,-0.42532 -0.0513,-0.76266 -0.11,-1.012 -0.0587,-0.24932 -0.132,-0.41066 -0.22,-0.484"
         style="font-size:22px;font-style:normal;font-variant:normal;font-weight:900;font-stretch:normal;line-height:125%;letter-spacing:0px;word-spacing:0px;fill:#f5f5f5;fill-opacity:1;stroke:#323232;stroke-width:1.5;stroke-miterlimit:4;stroke-opacity:1;font-family:Titillium Web;-inkscape-font-specification:Titillium Web Heavy"
         id="path3968-7"
         inkscape:connector-curvature="0" />
    </g>
    <g
       id="29"
       transform="translate(-203.78107,748.42189)">
      <path
         d="m 201.60785,273.35354 -10.076,0 0,-3.784 1.914,-1.848 c 0.41067,-0.38133 0.80666,-0.76266 1.188,-1.144 0,10e-6 0.308,-0.30799 0.924,-0.924 0.24933,-0.24933 0.47666,-0.52799 0.682,-0.836 0.20533,-0.30799 0.32266,-0.53532 0.352,-0.682 0.044,-0.16132 0.066,-0.32266 0.066,-0.484 0,-0.38132 -0.11,-0.62332 -0.33,-0.726 -0.22,-0.10266 -0.60867,-0.15399 -1.166,-0.154 -1.056,10e-6 -2.024,0.0807 -2.904,0.242 l -0.462,0.088 -0.22,-3.762 c 1.52533,-0.54265 3.11666,-0.81399 4.774,-0.814 1.67199,1e-5 2.97733,0.38135 3.916,1.144 0.95332,0.74801 1.42999,1.79668 1.43,3.146 -1e-5,1.33468 -0.22001,2.38334 -0.66,3.146 -0.44001,0.76267 -1.26134,1.56201 -2.464,2.398 l -1.474,1.034 4.51,0 0,3.96"
         style="font-size:22px;font-style:normal;font-variant:normal;font-weight:900;font-stretch:normal;line-height:125%;letter-spacing:0px;word-spacing:0px;fill:#f5f5f5;fill-opacity:1;stroke:#323232;stroke-width:1.5;stroke-miterlimit:4;stroke-opacity:1;font-family:Titillium Web;-inkscape-font-specification:Titillium Web Heavy"
         id="path3952-2"
         inkscape:connector-curvature="0" />
      <path
         d="m 209.65185,269.44854 c 0.57199,0 0.98266,-0.12466 1.232,-0.374 0.24932,-0.24933 0.39599,-0.62333 0.44,-1.122 l -0.22,0.088 c -0.51334,0.20534 -1.04868,0.308 -1.606,0.308 -1.67201,0 -2.90401,-0.39599 -3.696,-1.188 -0.792,-0.80666 -1.188,-2.05333 -1.188,-3.74 0,-1.70132 0.49133,-2.96265 1.474,-3.784 0.98266,-0.82132 2.33199,-1.23199 4.048,-1.232 2.02399,10e-6 3.51265,0.61601 4.466,1.848 0.95332,1.23201 1.42999,3.08001 1.43,5.544 -1e-5,2.948 -0.59401,4.994 -1.782,6.138 -0.58668,0.55733 -1.23201,0.95333 -1.936,1.188 -0.70401,0.23467 -1.42268,0.352 -2.156,0.352 -1.27601,0 -2.72801,-0.18333 -4.356,-0.55 l -0.814,-0.198 0.352,-3.652 c 1.64266,0.24934 3.07999,0.374 4.312,0.374 m 0.44,-4.994 c 0.45466,10e-6 0.87266,-0.088 1.254,-0.264 -1e-5,-0.67466 -0.0807,-1.15132 -0.242,-1.43 -0.16134,-0.29332 -0.48401,-0.43999 -0.968,-0.44 -0.68934,1e-5 -1.03401,0.35934 -1.034,1.078 -1e-5,0.70401 0.32999,1.05601 0.99,1.056"
         style="font-size:22px;font-style:normal;font-variant:normal;font-weight:900;font-stretch:normal;line-height:125%;letter-spacing:0px;word-spacing:0px;fill:#f5f5f5;fill-opacity:1;stroke:#323232;stroke-width:1.5;stroke-miterlimit:4;stroke-opacity:1;font-family:Titillium Web;-inkscape-font-specification:Titillium Web Heavy"
         id="path3966-4"
         inkscape:connector-curvature="0" />
    </g>
    <g
       id="28"
       transform="translate(-172.66598,749.07926)">
      <path
         d="m 170.49276,272.69617 -10.076,0 0,-3.784 1.914,-1.848 c 0.41066,-0.38133 0.80666,-0.76266 1.188,-1.144 0,1e-5 0.308,-0.30799 0.924,-0.924 0.24933,-0.24933 0.47666,-0.52799 0.682,-0.836 0.20533,-0.30799 0.32266,-0.53532 0.352,-0.682 0.044,-0.16132 0.066,-0.32266 0.066,-0.484 -10e-6,-0.38132 -0.11001,-0.62332 -0.33,-0.726 -0.22001,-0.10266 -0.60867,-0.15399 -1.166,-0.154 -1.056,10e-6 -2.024,0.0807 -2.904,0.242 l -0.462,0.088 -0.22,-3.762 c 1.52533,-0.54265 3.11666,-0.81399 4.774,-0.814 1.67199,10e-6 2.97732,0.38135 3.916,1.144 0.95332,0.74801 1.42999,1.79668 1.43,3.146 -1e-5,1.33468 -0.22001,2.38334 -0.66,3.146 -0.44001,0.76267 -1.26134,1.56201 -2.464,2.398 l -1.474,1.034 4.51,0 0,3.96"
         style="font-size:22px;font-style:normal;font-variant:normal;font-weight:900;font-stretch:normal;line-height:125%;letter-spacing:0px;word-spacing:0px;fill:#f5f5f5;fill-opacity:1;stroke:#323232;stroke-width:1.5;stroke-miterlimit:4;stroke-opacity:1;font-family:Titillium Web;-inkscape-font-specification:Titillium Web Heavy"
         id="path3952-5"
         inkscape:connector-curvature="0" />
      <path
         d="m 179.15276,257.74717 c 2.74266,1e-5 4.45866,0.66001 5.148,1.98 0.26399,0.52801 0.39599,1.22468 0.396,2.09 -1e-5,0.85068 -0.11735,1.52534 -0.352,2.024 -0.22001,0.49867 -0.66001,0.93867 -1.32,1.32 0.76266,0.36667 1.26865,0.79201 1.518,1.276 0.24932,0.46934 0.37399,1.21734 0.374,2.244 -1e-5,2.75733 -1.92134,4.136 -5.764,4.136 -3.84267,0 -5.764,-1.39333 -5.764,-4.18 0,-0.95333 0.13933,-1.66466 0.418,-2.134 0.27867,-0.48399 0.77733,-0.93866 1.496,-1.364 -0.63067,-0.38133 -1.06334,-0.81399 -1.298,-1.298 -0.23467,-0.49866 -0.352,-1.22466 -0.352,-2.178 0,-2.61065 1.83333,-3.91599 5.5,-3.916 m 0,11.352 c 0.30799,0 0.52799,-0.066 0.66,-0.198 0.14666,-0.14666 0.21999,-0.43266 0.22,-0.858 -1e-5,-0.42533 -0.19067,-0.82866 -0.572,-1.21 l -0.594,0 c -0.39601,0.32267 -0.59401,0.78467 -0.594,1.386 -1e-5,0.58667 0.29333,0.88 0.88,0.88 m -0.022,-7.678 c -0.26401,10e-6 -0.44734,0.0807 -0.55,0.242 -0.088,0.16134 -0.13201,0.42534 -0.132,0.792 -1e-5,0.36668 0.13933,0.71868 0.418,1.056 l 0.594,0 c 0.27866,-0.29332 0.41799,-0.65999 0.418,-1.1 -1e-5,-0.65999 -0.24934,-0.98999 -0.748,-0.99"
         style="font-size:22px;font-style:normal;font-variant:normal;font-weight:900;font-stretch:normal;line-height:125%;letter-spacing:0px;word-spacing:0px;fill:#f5f5f5;fill-opacity:1;stroke:#323232;stroke-width:1.5;stroke-miterlimit:4;stroke-opacity:1;font-family:Titillium Web;-inkscape-font-specification:Titillium Web Heavy"
         id="path3964-4"
         inkscape:connector-curvature="0" />
    </g>
    <g
       id="27"
       transform="translate(-342.04597,768.58096)">
      <path
         d="m 339.87275,253.19447 -10.076,0 0,-3.784 1.914,-1.848 c 0.41066,-0.38133 0.80666,-0.76266 1.188,-1.144 -1e-5,10e-6 0.30799,-0.30799 0.924,-0.924 0.24933,-0.24933 0.47666,-0.52799 0.682,-0.836 0.20533,-0.30799 0.32266,-0.53532 0.352,-0.682 0.044,-0.16132 0.066,-0.32266 0.066,-0.484 -1e-5,-0.38132 -0.11001,-0.62332 -0.33,-0.726 -0.22001,-0.10266 -0.60867,-0.15399 -1.166,-0.154 -1.05601,1e-5 -2.024,0.0807 -2.904,0.242 l -0.462,0.088 -0.22,-3.762 c 1.52533,-0.54265 3.11666,-0.81399 4.774,-0.814 1.67199,1e-5 2.97732,0.38135 3.916,1.144 0.95332,0.74801 1.42999,1.79668 1.43,3.146 -1e-5,1.33468 -0.22001,2.38334 -0.66,3.146 -0.44001,0.76267 -1.26134,1.56201 -2.464,2.398 l -1.474,1.034 4.51,0 0,3.96"
         style="font-size:22px;font-style:normal;font-variant:normal;font-weight:900;font-stretch:normal;line-height:125%;letter-spacing:0px;word-spacing:0px;fill:#f5f5f5;fill-opacity:1;stroke:#323232;stroke-width:1.5;stroke-miterlimit:4;stroke-opacity:1;font-family:Titillium Web;-inkscape-font-specification:Titillium Web Heavy"
         id="path3952-11"
         inkscape:connector-curvature="0" />
      <path
         d="m 344.35275,243.00847 0,-4.62 9.944,0 0,4.862 -3.872,9.922 -4.928,-1.012 3.652,-8.602 0,-0.55 -4.796,0"
         style="font-size:22px;font-style:normal;font-variant:normal;font-weight:900;font-stretch:normal;line-height:125%;letter-spacing:0px;word-spacing:0px;fill:#f5f5f5;fill-opacity:1;stroke:#323232;stroke-width:1.5;stroke-miterlimit:4;stroke-opacity:1;font-family:Titillium Web;-inkscape-font-specification:Titillium Web Heavy"
         id="path3962-1"
         inkscape:connector-curvature="0" />
    </g>
    <g
       id="26"
       transform="translate(-306.7676,769.01919)">
      <path
         d="m 304.59437,252.75624 -10.076,0 0,-3.784 1.914,-1.848 c 0.41066,-0.38133 0.80666,-0.76266 1.188,-1.144 0,1e-5 0.308,-0.30799 0.924,-0.924 0.24933,-0.24933 0.47666,-0.52799 0.682,-0.836 0.20533,-0.30799 0.32266,-0.53532 0.352,-0.682 0.044,-0.16132 0.066,-0.32266 0.066,-0.484 -10e-6,-0.38132 -0.11001,-0.62332 -0.33,-0.726 -0.22,-0.10266 -0.60867,-0.15399 -1.166,-0.154 -1.056,1e-5 -2.024,0.0807 -2.904,0.242 l -0.462,0.088 -0.22,-3.762 c 1.52533,-0.54265 3.11666,-0.81399 4.774,-0.814 1.67199,1e-5 2.97733,0.38135 3.916,1.144 0.95332,0.74801 1.42999,1.79668 1.43,3.146 -10e-6,1.33468 -0.22001,2.38334 -0.66,3.146 -0.44001,0.76267 -1.26134,1.56201 -2.464,2.398 l -1.474,1.034 4.51,0 0,3.96"
         style="font-size:22px;font-style:normal;font-variant:normal;font-weight:900;font-stretch:normal;line-height:125%;letter-spacing:0px;word-spacing:0px;fill:#f5f5f5;fill-opacity:1;stroke:#323232;stroke-width:1.5;stroke-miterlimit:4;stroke-opacity:1;font-family:Titillium Web;-inkscape-font-specification:Titillium Web Heavy"
         id="path3952-99"
         inkscape:connector-curvature="0" />
      <path
         d="m 313.98037,241.83324 c -0.572,1e-5 -0.98267,0.12468 -1.232,0.374 -0.24933,0.24934 -0.396,0.62334 -0.44,1.122 l 0.22,-0.088 c 0.51333,-0.20532 1.04866,-0.30799 1.606,-0.308 1.672,10e-6 2.90399,0.40334 3.696,1.21 0.79199,0.79201 1.18799,2.03867 1.188,3.74 -1e-5,1.68667 -0.49134,2.94067 -1.474,3.762 -0.98267,0.82133 -2.332,1.232 -4.048,1.232 -2.024,0 -3.51266,-0.616 -4.466,-1.848 -0.95333,-1.232 -1.43,-3.08 -1.43,-5.544 0,-2.94799 0.60134,-4.99399 1.804,-6.138 0.572,-0.55732 1.21,-0.95332 1.914,-1.188 0.704,-0.23465 1.42267,-0.35199 2.156,-0.352 1.276,1e-5 2.728,0.19068 4.356,0.572 l 0.814,0.176 -0.352,3.652 c -1.64267,-0.24932 -3.08,-0.37399 -4.312,-0.374 m -0.44,4.994 c -0.45467,1e-5 -0.87267,0.088 -1.254,0.264 0,0.67467 0.0807,1.15867 0.242,1.452 0.16133,0.27867 0.484,0.418 0.968,0.418 0.68933,0 1.034,-0.352 1.034,-1.056 0,-0.71866 -0.33,-1.07799 -0.99,-1.078"
         style="font-size:22px;font-style:normal;font-variant:normal;font-weight:900;font-stretch:normal;line-height:125%;letter-spacing:0px;word-spacing:0px;fill:#f5f5f5;fill-opacity:1;stroke:#323232;stroke-width:1.5;stroke-miterlimit:4;stroke-opacity:1;font-family:Titillium Web;-inkscape-font-specification:Titillium Web Heavy"
         id="path3960-5"
         inkscape:connector-curvature="0" />
    </g>
    <g
       id="25"
       transform="translate(-271.05099,769.01919)">
      <path
         d="m 268.87776,252.75624 -10.076,0 0,-3.784 1.914,-1.848 c 0.41067,-0.38133 0.80667,-0.76266 1.188,-1.144 0,1e-5 0.308,-0.30799 0.924,-0.924 0.24933,-0.24933 0.47667,-0.52799 0.682,-0.836 0.20533,-0.30799 0.32267,-0.53532 0.352,-0.682 0.044,-0.16132 0.066,-0.32266 0.066,-0.484 0,-0.38132 -0.11,-0.62332 -0.33,-0.726 -0.22,-0.10266 -0.60867,-0.15399 -1.166,-0.154 -1.056,1e-5 -2.024,0.0807 -2.904,0.242 l -0.462,0.088 -0.22,-3.762 c 1.52534,-0.54265 3.11667,-0.81399 4.774,-0.814 1.672,1e-5 2.97733,0.38135 3.916,1.144 0.95333,0.74801 1.42999,1.79668 1.43,3.146 -10e-6,1.33468 -0.22001,2.38334 -0.66,3.146 -0.44001,0.76267 -1.26134,1.56201 -2.464,2.398 l -1.474,1.034 4.51,0 0,3.96"
         style="font-size:22px;font-style:normal;font-variant:normal;font-weight:900;font-stretch:normal;line-height:125%;letter-spacing:0px;word-spacing:0px;fill:#f5f5f5;fill-opacity:1;stroke:#323232;stroke-width:1.5;stroke-miterlimit:4;stroke-opacity:1;font-family:Titillium Web;-inkscape-font-specification:Titillium Web Heavy"
         id="path3952-1"
         inkscape:connector-curvature="0" />
      <path
         d="m 282.75176,237.95024 0,4.4 -6.226,0 -0.11,0.968 c 0.63066,-0.21999 1.28332,-0.32999 1.958,-0.33 1.70132,1e-5 2.94799,0.34468 3.74,1.034 0.79199,0.68934 1.18799,1.90667 1.188,3.652 -10e-6,3.37333 -1.83335,5.06 -5.5,5.06 -0.68934,0 -1.51801,-0.0733 -2.486,-0.22 -0.96801,-0.132 -1.76,-0.27133 -2.376,-0.418 l -0.946,-0.22 0.374,-3.586 c 1.97999,0.29334 3.62999,0.44 4.95,0.44 0.74799,0 1.12199,-0.198 1.122,-0.594 -10e-6,-0.41066 -0.35201,-0.616 -1.056,-0.616 -0.46934,0 -0.96801,0.066 -1.496,0.198 l -0.264,0.066 -3.256,-0.396 0.308,-9.438 10.076,0"
         style="font-size:22px;font-style:normal;font-variant:normal;font-weight:900;font-stretch:normal;line-height:125%;letter-spacing:0px;word-spacing:0px;fill:#f5f5f5;fill-opacity:1;stroke:#323232;stroke-width:1.5;stroke-miterlimit:4;stroke-opacity:1;font-family:Titillium Web;-inkscape-font-specification:Titillium Web Heavy"
         id="path3958-5"
         inkscape:connector-curvature="0" />
    </g>
    <g
       id="24"
       transform="translate(-237.96383,770.11479)">
      <path
         d="m 235.79061,251.66064 -10.076,0 0,-3.784 1.914,-1.848 c 0.41067,-0.38133 0.80667,-0.76266 1.188,-1.144 0,1e-5 0.308,-0.30799 0.924,-0.924 0.24933,-0.24933 0.47666,-0.52799 0.682,-0.836 0.20533,-0.30799 0.32266,-0.53532 0.352,-0.682 0.044,-0.16132 0.066,-0.32266 0.066,-0.484 0,-0.38132 -0.11,-0.62332 -0.33,-0.726 -0.22,-0.10266 -0.60867,-0.15399 -1.166,-0.154 -1.056,1e-5 -2.024,0.0807 -2.904,0.242 l -0.462,0.088 -0.22,-3.762 c 1.52533,-0.54265 3.11667,-0.81399 4.774,-0.814 1.672,1e-5 2.97733,0.38135 3.916,1.144 0.95333,0.74801 1.42999,1.79668 1.43,3.146 -1e-5,1.33468 -0.22001,2.38334 -0.66,3.146 -0.44001,0.76267 -1.26134,1.56201 -2.464,2.398 l -1.474,1.034 4.51,0 0,3.96"
         style="font-size:22px;font-style:normal;font-variant:normal;font-weight:900;font-stretch:normal;line-height:125%;letter-spacing:0px;word-spacing:0px;fill:#f5f5f5;fill-opacity:1;stroke:#323232;stroke-width:1.5;stroke-miterlimit:4;stroke-opacity:1;font-family:Titillium Web;-inkscape-font-specification:Titillium Web Heavy"
         id="path3952-00"
         inkscape:connector-curvature="0" />
      <path
         d="m 244.67061,251.49564 0,-1.76 -5.962,0 0,-3.564 1.98,-9.174 5.764,0 -2.838,8.602 1.078,0 0.44,-2.486 4.532,-0.154 0,2.64 0.55,0 0,4.136 -0.55,0 0,1.76 -4.994,0"
         style="font-size:22px;font-style:normal;font-variant:normal;font-weight:900;font-stretch:normal;line-height:125%;letter-spacing:0px;word-spacing:0px;fill:#f5f5f5;fill-opacity:1;stroke:#323232;stroke-width:1.5;stroke-miterlimit:4;stroke-opacity:1;font-family:Titillium Web;-inkscape-font-specification:Titillium Web Heavy"
         id="path3956-6"
         inkscape:connector-curvature="0" />
    </g>
    <g
       id="23"
       transform="translate(-203.78107,770.99128)">
      <path
         d="m 209.67385,235.83515 c 2.15599,1e-5 3.71799,0.30801 4.686,0.924 0.98265,0.61601 1.47399,1.70135 1.474,3.256 -1e-5,0.80668 -0.10268,1.42268 -0.308,1.848 -0.19068,0.42534 -0.53535,0.81401 -1.034,1.166 0.55732,0.42534 0.95332,0.85067 1.188,1.276 0.23465,0.41067 0.35199,0.99734 0.352,1.76 -1e-5,1.83334 -0.47668,3.102 -1.43,3.806 -0.95334,0.68933 -2.42734,1.034 -4.422,1.034 -1.21734,0 -2.53734,-0.13933 -3.96,-0.418 l -0.726,-0.154 0.132,-3.85 c 1.68666,0.14667 2.88933,0.22 3.608,0.22 0.71866,0 1.19533,-0.0367 1.43,-0.11 0.23466,-0.088 0.35199,-0.264 0.352,-0.528 -1e-5,-0.27866 -0.0807,-0.46933 -0.242,-0.572 -0.16134,-0.10266 -0.46934,-0.17599 -0.924,-0.22 l -3.102,0 0,-3.894 2.904,0 c 0.79199,1e-5 1.18799,-0.21999 1.188,-0.66 -1e-5,-0.45466 -0.50601,-0.68199 -1.518,-0.682 -0.68934,1e-5 -1.70134,0.0513 -3.036,0.154 l -0.572,0.044 -0.11,-3.762 c 1.68666,-0.42532 3.04333,-0.63799 4.07,-0.638"
         style="font-size:22px;font-style:normal;font-variant:normal;font-weight:900;font-stretch:normal;line-height:125%;letter-spacing:0px;word-spacing:0px;fill:#f5f5f5;fill-opacity:1;stroke:#323232;stroke-width:1.5;stroke-miterlimit:4;stroke-opacity:1;font-family:Titillium Web;-inkscape-font-specification:Titillium Web Heavy"
         id="path3954-26"
         inkscape:connector-curvature="0" />
      <path
         d="m 201.60785,250.78415 -10.076,0 0,-3.784 1.914,-1.848 c 0.41066,-0.38133 0.80666,-0.76266 1.188,-1.144 -1e-5,1e-5 0.30799,-0.30799 0.924,-0.924 0.24933,-0.24933 0.47666,-0.52799 0.682,-0.836 0.20532,-0.30799 0.32266,-0.53532 0.352,-0.682 0.044,-0.16132 0.066,-0.32266 0.066,-0.484 -1e-5,-0.38132 -0.11001,-0.62332 -0.33,-0.726 -0.22001,-0.10266 -0.60867,-0.15399 -1.166,-0.154 -1.05601,1e-5 -2.02401,0.0807 -2.904,0.242 l -0.462,0.088 -0.22,-3.762 c 1.52533,-0.54265 3.11666,-0.81399 4.774,-0.814 1.67199,1e-5 2.97732,0.38135 3.916,1.144 0.95332,0.74801 1.42999,1.79668 1.43,3.146 -1e-5,1.33468 -0.22001,2.38334 -0.66,3.146 -0.44001,0.76267 -1.26135,1.56201 -2.464,2.398 l -1.474,1.034 4.51,0 0,3.96"
         style="font-size:22px;font-style:normal;font-variant:normal;font-weight:900;font-stretch:normal;line-height:125%;letter-spacing:0px;word-spacing:0px;fill:#f5f5f5;fill-opacity:1;stroke:#323232;stroke-width:1.5;stroke-miterlimit:4;stroke-opacity:1;font-family:Titillium Web;-inkscape-font-specification:Titillium Web Heavy"
         id="path3952-4"
         inkscape:connector-curvature="0" />
    </g>
    <g
       id="22"
       transform="translate(-172.22775,770.99127)">
      <path
         d="m 170.05453,250.78416 -10.076,0 0,-3.784 1.914,-1.848 c 0.41067,-0.38133 0.80667,-0.76266 1.188,-1.144 0,1e-5 0.308,-0.30799 0.924,-0.924 0.24933,-0.24933 0.47667,-0.52799 0.682,-0.836 0.20533,-0.30799 0.32267,-0.53532 0.352,-0.682 0.044,-0.16132 0.066,-0.32266 0.066,-0.484 0,-0.38132 -0.11,-0.62332 -0.33,-0.726 -0.22,-0.10266 -0.60867,-0.15399 -1.166,-0.154 -1.056,1e-5 -2.024,0.0807 -2.904,0.242 l -0.462,0.088 -0.22,-3.762 c 1.52534,-0.54265 3.11667,-0.81399 4.774,-0.814 1.672,10e-6 2.97733,0.38135 3.916,1.144 0.95333,0.74801 1.42999,1.79668 1.43,3.146 -1e-5,1.33468 -0.22001,2.38334 -0.66,3.146 -0.44001,0.76267 -1.26134,1.56201 -2.464,2.398 l -1.474,1.034 4.51,0 0,3.96"
         style="font-size:22px;font-style:normal;font-variant:normal;font-weight:900;font-stretch:normal;line-height:125%;letter-spacing:0px;word-spacing:0px;fill:#f5f5f5;fill-opacity:1;stroke:#323232;stroke-width:1.5;stroke-miterlimit:4;stroke-opacity:1;font-family:Titillium Web;-inkscape-font-specification:Titillium Web Heavy"
         id="path3952-9"
         inkscape:connector-curvature="0" />
      <path
         d="m 184.39053,250.78416 -10.076,0 0,-3.784 1.914,-1.848 c 0.41067,-0.38133 0.80667,-0.76266 1.188,-1.144 0,1e-5 0.308,-0.30799 0.924,-0.924 0.24933,-0.24933 0.47667,-0.52799 0.682,-0.836 0.20533,-0.30799 0.32267,-0.53532 0.352,-0.682 0.044,-0.16132 0.066,-0.32266 0.066,-0.484 0,-0.38132 -0.11,-0.62332 -0.33,-0.726 -0.22,-0.10266 -0.60867,-0.15399 -1.166,-0.154 -1.056,1e-5 -2.024,0.0807 -2.904,0.242 l -0.462,0.088 -0.22,-3.762 c 1.52534,-0.54265 3.11667,-0.81399 4.774,-0.814 1.672,10e-6 2.97733,0.38135 3.916,1.144 0.95333,0.74801 1.42999,1.79668 1.43,3.146 -1e-5,1.33468 -0.22001,2.38334 -0.66,3.146 -0.44001,0.76267 -1.26134,1.56201 -2.464,2.398 l -1.474,1.034 4.51,0 0,3.96"
         style="font-size:22px;font-style:normal;font-variant:normal;font-weight:900;font-stretch:normal;line-height:125%;letter-spacing:0px;word-spacing:0px;fill:#f5f5f5;fill-opacity:1;stroke:#323232;stroke-width:1.5;stroke-miterlimit:4;stroke-opacity:1;font-family:Titillium Web;-inkscape-font-specification:Titillium Web Heavy"
         id="path3952-9-8"
         inkscape:connector-curvature="0" />
    </g>
    <g
       id="21"
       transform="translate(-342.70332,791.36946)">
      <path
         d="m 340.5301,230.40597 -10.076,0 0,-3.784 1.914,-1.848 c 0.41067,-0.38133 0.80667,-0.76266 1.188,-1.144 0,1e-5 0.308,-0.30799 0.924,-0.924 0.24933,-0.24933 0.47666,-0.52799 0.682,-0.836 0.20533,-0.30799 0.32266,-0.53532 0.352,-0.682 0.044,-0.16132 0.066,-0.32266 0.066,-0.484 0,-0.38132 -0.11,-0.62332 -0.33,-0.726 -0.22,-0.10266 -0.60867,-0.15399 -1.166,-0.154 -1.056,1e-5 -2.024,0.0807 -2.904,0.242 l -0.462,0.088 -0.22,-3.762 c 1.52533,-0.54265 3.11667,-0.81399 4.774,-0.814 1.672,1e-5 2.97733,0.38135 3.916,1.144 0.95333,0.74801 1.42999,1.79668 1.43,3.146 -1e-5,1.33468 -0.22001,2.38334 -0.66,3.146 -0.44001,0.76267 -1.26134,1.56201 -2.464,2.398 l -1.474,1.034 4.51,0 0,3.96"
         style="font-size:22px;font-style:normal;font-variant:normal;font-weight:900;font-stretch:normal;line-height:125%;letter-spacing:0px;word-spacing:0px;fill:#f5f5f5;fill-opacity:1;stroke:#323232;stroke-width:1.5;stroke-miterlimit:4;stroke-opacity:1;font-family:Titillium Web;-inkscape-font-specification:Titillium Web Heavy"
         id="path3952-7"
         inkscape:connector-curvature="0" />
      <path
         d="m 352.9541,215.74297 0,14.498 -4.994,0 0,-9.152 -3.036,1.21 -1.32,-3.564 5.148,-2.992 4.202,0"
         style="font-size:22px;font-style:normal;font-variant:normal;font-weight:900;font-stretch:normal;line-height:125%;letter-spacing:0px;word-spacing:0px;fill:#f5f5f5;fill-opacity:1;stroke:#323232;stroke-width:1.5;stroke-miterlimit:4;stroke-opacity:1;font-family:Titillium Web;-inkscape-font-specification:Titillium Web Heavy"
         id="path3950-9"
         inkscape:connector-curvature="0" />
    </g>
    <g
       id="20"
       transform="translate(-308.08233,791.36946)">
      <path
         d="m 305.9091,230.40597 -10.076,0 0,-3.784 1.914,-1.848 c 0.41066,-0.38133 0.80666,-0.76266 1.188,-1.144 -10e-6,1e-5 0.30799,-0.30799 0.924,-0.924 0.24932,-0.24933 0.47666,-0.52799 0.682,-0.836 0.20532,-0.30799 0.32266,-0.53532 0.352,-0.682 0.044,-0.16132 0.066,-0.32266 0.066,-0.484 -10e-6,-0.38132 -0.11001,-0.62332 -0.33,-0.726 -0.22001,-0.10266 -0.60868,-0.15399 -1.166,-0.154 -1.05601,1e-5 -2.02401,0.0807 -2.904,0.242 l -0.462,0.088 -0.22,-3.762 c 1.52533,-0.54265 3.11666,-0.81399 4.774,-0.814 1.67199,1e-5 2.97732,0.38135 3.916,1.144 0.95332,0.74801 1.42998,1.79668 1.43,3.146 -2e-5,1.33468 -0.22001,2.38334 -0.66,3.146 -0.44001,0.76267 -1.26135,1.56201 -2.464,2.398 l -1.474,1.034 4.51,0 0,3.96"
         style="font-size:22px;font-style:normal;font-variant:normal;font-weight:900;font-stretch:normal;line-height:125%;letter-spacing:0px;word-spacing:0px;fill:#f5f5f5;fill-opacity:1;stroke:#323232;stroke-width:1.5;stroke-miterlimit:4;stroke-opacity:1;font-family:Titillium Web;-inkscape-font-specification:Titillium Web Heavy"
         id="path3952-0"
         inkscape:connector-curvature="0" />
      <path
         d="m 308.8491,223.00297 c 0,-2.66932 0.43267,-4.59065 1.298,-5.764 0.86534,-1.18799 2.36133,-1.78199 4.488,-1.782 2.12666,10e-6 3.60799,0.58668 4.444,1.76 0.83599,1.15868 1.25399,3.08001 1.254,5.764 -10e-6,2.66934 -0.42534,4.598 -1.276,5.786 -0.83601,1.17333 -2.32467,1.76 -4.466,1.76 -2.14133,0 -3.63733,-0.58667 -4.488,-1.76 -0.836,-1.188 -1.254,-3.10933 -1.254,-5.764 m 6.116,-3.3 c -0.088,-0.0733 -0.21267,-0.10999 -0.374,-0.11 -0.16133,1e-5 -0.286,0.0367 -0.374,0.11 -0.088,0.0733 -0.16133,0.23468 -0.22,0.484 -0.10267,0.44001 -0.154,1.37868 -0.154,2.816 0,1.42267 0.044,2.34667 0.132,2.772 0.10267,0.41067 0.308,0.616 0.616,0.616 0.308,0 0.506,-0.20533 0.594,-0.616 0.10266,-0.42533 0.154,-1.18799 0.154,-2.288 0,-1.09999 -0.0147,-1.86266 -0.044,-2.288 -0.0147,-0.42532 -0.0513,-0.76266 -0.11,-1.012 -0.0587,-0.24932 -0.132,-0.41066 -0.22,-0.484"
         style="font-size:22px;font-style:normal;font-variant:normal;font-weight:900;font-stretch:normal;line-height:125%;letter-spacing:0px;word-spacing:0px;fill:#f5f5f5;fill-opacity:1;stroke:#323232;stroke-width:1.5;stroke-miterlimit:4;stroke-opacity:1;font-family:Titillium Web;-inkscape-font-specification:Titillium Web Heavy"
         id="path3968-5"
         inkscape:connector-curvature="0" />
    </g>
    <g
       id="19"
       transform="translate(-272.58483,792.24594)">
      <path
         d="m 269.6856,214.86649 0,14.498 -4.994,0 0,-9.152 -3.036,1.21 -1.32,-3.564 5.148,-2.992 4.202,0"
         style="font-size:22px;font-style:normal;font-variant:normal;font-weight:900;font-stretch:normal;line-height:125%;letter-spacing:0px;word-spacing:0px;fill:#f5f5f5;fill-opacity:1;stroke:#323232;stroke-width:1.5;stroke-miterlimit:4;stroke-opacity:1;font-family:Titillium Web;-inkscape-font-specification:Titillium Web Heavy"
         id="path3950-57"
         inkscape:connector-curvature="0" />
      <path
         d="m 278.4556,225.62449 c 0.57199,0 0.98266,-0.12466 1.232,-0.374 0.24932,-0.24933 0.39599,-0.62333 0.44,-1.122 l -0.22,0.088 c -0.51334,0.20534 -1.04868,0.308 -1.606,0.308 -1.67201,0 -2.90401,-0.39599 -3.696,-1.188 -0.792,-0.80666 -1.188,-2.05333 -1.188,-3.74 0,-1.70132 0.49133,-2.96265 1.474,-3.784 0.98266,-0.82132 2.33199,-1.23199 4.048,-1.232 2.02399,1e-5 3.51265,0.61601 4.466,1.848 0.95332,1.23201 1.42999,3.08001 1.43,5.544 -10e-6,2.948 -0.59401,4.994 -1.782,6.138 -0.58668,0.55733 -1.23201,0.95333 -1.936,1.188 -0.70401,0.23467 -1.42268,0.352 -2.156,0.352 -1.27601,0 -2.72801,-0.18333 -4.356,-0.55 l -0.814,-0.198 0.352,-3.652 c 1.64266,0.24934 3.07999,0.374 4.312,0.374 m 0.44,-4.994 c 0.45466,1e-5 0.87266,-0.088 1.254,-0.264 -1e-5,-0.67466 -0.0807,-1.15132 -0.242,-1.43 -0.16134,-0.29332 -0.48401,-0.43999 -0.968,-0.44 -0.68934,1e-5 -1.03401,0.35934 -1.034,1.078 -10e-6,0.70401 0.32999,1.05601 0.99,1.056"
         style="font-size:22px;font-style:normal;font-variant:normal;font-weight:900;font-stretch:normal;line-height:125%;letter-spacing:0px;word-spacing:0px;fill:#f5f5f5;fill-opacity:1;stroke:#323232;stroke-width:1.5;stroke-miterlimit:4;stroke-opacity:1;font-family:Titillium Web;-inkscape-font-specification:Titillium Web Heavy"
         id="path3966-3"
         inkscape:connector-curvature="0" />
    </g>
    <g
       id="18"
       transform="translate(-239.27855,793.56066)">
      <path
         d="m 236.37933,213.55177 0,14.498 -4.994,0 0,-9.152 -3.036,1.21 -1.32,-3.564 5.148,-2.992 4.202,0"
         style="font-size:22px;font-style:normal;font-variant:normal;font-weight:900;font-stretch:normal;line-height:125%;letter-spacing:0px;word-spacing:0px;fill:#f5f5f5;fill-opacity:1;stroke:#323232;stroke-width:1.5;stroke-miterlimit:4;stroke-opacity:1;font-family:Titillium Web;-inkscape-font-specification:Titillium Web Heavy"
         id="path3950-15"
         inkscape:connector-curvature="0" />
      <path
         d="m 245.76533,213.26577 c 2.74266,1e-5 4.45866,0.66001 5.148,1.98 0.26399,0.52801 0.39599,1.22468 0.396,2.09 -10e-6,0.85068 -0.11735,1.52534 -0.352,2.024 -0.22001,0.49867 -0.66001,0.93867 -1.32,1.32 0.76266,0.36667 1.26865,0.79201 1.518,1.276 0.24932,0.46934 0.37399,1.21734 0.374,2.244 -10e-6,2.75733 -1.92134,4.136 -5.764,4.136 -3.84267,0 -5.764,-1.39333 -5.764,-4.18 0,-0.95333 0.13933,-1.66466 0.418,-2.134 0.27867,-0.48399 0.77733,-0.93866 1.496,-1.364 -0.63067,-0.38133 -1.06334,-0.81399 -1.298,-1.298 -0.23467,-0.49866 -0.352,-1.22466 -0.352,-2.178 0,-2.61065 1.83333,-3.91599 5.5,-3.916 m 0,11.352 c 0.30799,0 0.52799,-0.066 0.66,-0.198 0.14666,-0.14666 0.21999,-0.43266 0.22,-0.858 -1e-5,-0.42533 -0.19067,-0.82866 -0.572,-1.21 l -0.594,0 c -0.39601,0.32267 -0.59401,0.78467 -0.594,1.386 -1e-5,0.58667 0.29333,0.88 0.88,0.88 m -0.022,-7.678 c -0.26401,1e-5 -0.44734,0.0807 -0.55,0.242 -0.088,0.16134 -0.13201,0.42534 -0.132,0.792 -1e-5,0.36668 0.13933,0.71868 0.418,1.056 l 0.594,0 c 0.27866,-0.29332 0.41799,-0.65999 0.418,-1.1 -1e-5,-0.65999 -0.24934,-0.98999 -0.748,-0.99"
         style="font-size:22px;font-style:normal;font-variant:normal;font-weight:900;font-stretch:normal;line-height:125%;letter-spacing:0px;word-spacing:0px;fill:#f5f5f5;fill-opacity:1;stroke:#323232;stroke-width:1.5;stroke-miterlimit:4;stroke-opacity:1;font-family:Titillium Web;-inkscape-font-specification:Titillium Web Heavy"
         id="path3964-1"
         inkscape:connector-curvature="0" />
    </g>
    <g
       id="17"
       transform="translate(-204.21931,793.56066)">
      <path
         d="m 201.32009,213.55177 0,14.498 -4.994,0 0,-9.152 -3.036,1.21 -1.32,-3.564 5.148,-2.992 4.202,0"
         style="font-size:22px;font-style:normal;font-variant:normal;font-weight:900;font-stretch:normal;line-height:125%;letter-spacing:0px;word-spacing:0px;fill:#f5f5f5;fill-opacity:1;stroke:#323232;stroke-width:1.5;stroke-miterlimit:4;stroke-opacity:1;font-family:Titillium Web;-inkscape-font-specification:Titillium Web Heavy"
         id="path3950-34"
         inkscape:connector-curvature="0" />
      <path
         d="m 206.52609,218.02877 0,-4.62 9.944,0 0,4.862 -3.872,9.922 -4.928,-1.012 3.652,-8.602 0,-0.55 -4.796,0"
         style="font-size:22px;font-style:normal;font-variant:normal;font-weight:900;font-stretch:normal;line-height:125%;letter-spacing:0px;word-spacing:0px;fill:#f5f5f5;fill-opacity:1;stroke:#323232;stroke-width:1.5;stroke-miterlimit:4;stroke-opacity:1;font-family:Titillium Web;-inkscape-font-specification:Titillium Web Heavy"
         id="path3962-3"
         inkscape:connector-curvature="0" />
    </g>
    <g
       id="16"
       transform="translate(-173.76159,793.34155)">
      <path
         d="m 170.86237,213.77088 0,14.498 -4.994,0 0,-9.152 -3.036,1.21 -1.32,-3.564 5.148,-2.992 4.202,0"
         style="font-size:22px;font-style:normal;font-variant:normal;font-weight:900;font-stretch:normal;line-height:125%;letter-spacing:0px;word-spacing:0px;fill:#f5f5f5;fill-opacity:1;stroke:#323232;stroke-width:1.5;stroke-miterlimit:4;stroke-opacity:1;font-family:Titillium Web;-inkscape-font-specification:Titillium Web Heavy"
         id="path3950-36"
         inkscape:connector-curvature="0" />
      <path
         d="m 180.97437,217.51088 c -0.572,1e-5 -0.98267,0.12468 -1.232,0.374 -0.24933,0.24934 -0.396,0.62334 -0.44,1.122 l 0.22,-0.088 c 0.51333,-0.20532 1.04866,-0.30799 1.606,-0.308 1.672,1e-5 2.90399,0.40334 3.696,1.21 0.79199,0.79201 1.18799,2.03867 1.188,3.74 -1e-5,1.68667 -0.49134,2.94067 -1.474,3.762 -0.98267,0.82133 -2.332,1.232 -4.048,1.232 -2.024,0 -3.51266,-0.616 -4.466,-1.848 -0.95333,-1.232 -1.43,-3.08 -1.43,-5.544 0,-2.94799 0.60134,-4.99399 1.804,-6.138 0.572,-0.55732 1.21,-0.95332 1.914,-1.188 0.704,-0.23465 1.42267,-0.35199 2.156,-0.352 1.276,1e-5 2.728,0.19068 4.356,0.572 l 0.814,0.176 -0.352,3.652 c -1.64267,-0.24932 -3.08,-0.37399 -4.312,-0.374 m -0.44,4.994 c -0.45467,10e-6 -0.87267,0.088 -1.254,0.264 0,0.67467 0.0807,1.15867 0.242,1.452 0.16133,0.27867 0.484,0.418 0.968,0.418 0.68933,0 1.034,-0.352 1.034,-1.056 0,-0.71866 -0.33,-1.07799 -0.99,-1.078"
         style="font-size:22px;font-style:normal;font-variant:normal;font-weight:900;font-stretch:normal;line-height:125%;letter-spacing:0px;word-spacing:0px;fill:#f5f5f5;fill-opacity:1;stroke:#323232;stroke-width:1.5;stroke-miterlimit:4;stroke-opacity:1;font-family:Titillium Web;-inkscape-font-specification:Titillium Web Heavy"
         id="path3960-8"
         inkscape:connector-curvature="0" />
    </g>
    <g
       id="15"
       transform="translate(-343.14159,813.71972)">
      <path
         d="m 340.24236,193.39271 0,14.498 -4.994,0 0,-9.152 -3.036,1.21 -1.32,-3.564 5.148,-2.992 4.202,0"
         style="font-size:22px;font-style:normal;font-variant:normal;font-weight:900;font-stretch:normal;line-height:125%;letter-spacing:0px;word-spacing:0px;fill:#f5f5f5;fill-opacity:1;stroke:#323232;stroke-width:1.5;stroke-miterlimit:4;stroke-opacity:1;font-family:Titillium Web;-inkscape-font-specification:Titillium Web Heavy"
         id="path3950-8"
         inkscape:connector-curvature="0" />
      <path
         d="m 354.84236,193.24971 0,4.4 -6.226,0 -0.11,0.968 c 0.63066,-0.21999 1.28332,-0.32999 1.958,-0.33 1.70132,1e-5 2.94799,0.34468 3.74,1.034 0.79199,0.68934 1.18799,1.90667 1.188,3.652 -10e-6,3.37333 -1.83335,5.06 -5.5,5.06 -0.68934,0 -1.51801,-0.0733 -2.486,-0.22 -0.96801,-0.132 -1.76,-0.27133 -2.376,-0.418 l -0.946,-0.22 0.374,-3.586 c 1.97999,0.29334 3.62999,0.44 4.95,0.44 0.74799,0 1.12199,-0.198 1.122,-0.594 -10e-6,-0.41066 -0.35201,-0.616 -1.056,-0.616 -0.46934,0 -0.96801,0.066 -1.496,0.198 l -0.264,0.066 -3.256,-0.396 0.308,-9.438 10.076,0"
         style="font-size:22px;font-style:normal;font-variant:normal;font-weight:900;font-stretch:normal;line-height:125%;letter-spacing:0px;word-spacing:0px;fill:#f5f5f5;fill-opacity:1;stroke:#323232;stroke-width:1.5;stroke-miterlimit:4;stroke-opacity:1;font-family:Titillium Web;-inkscape-font-specification:Titillium Web Heavy"
         id="path3958-6"
         inkscape:connector-curvature="0" />
    </g>
    <g
       id="14"
       transform="translate(-307.64409,813.71972)">
      <path
         d="m 304.74487,193.39271 0,14.498 -4.994,0 0,-9.152 -3.036,1.21 -1.32,-3.564 5.148,-2.992 4.202,0"
         style="font-size:22px;font-style:normal;font-variant:normal;font-weight:900;font-stretch:normal;line-height:125%;letter-spacing:0px;word-spacing:0px;fill:#f5f5f5;fill-opacity:1;stroke:#323232;stroke-width:1.5;stroke-miterlimit:4;stroke-opacity:1;font-family:Titillium Web;-inkscape-font-specification:Titillium Web Heavy"
         id="path3950-2"
         inkscape:connector-curvature="0" />
      <path
         d="m 314.35087,207.89071 0,-1.76 -5.96201,0 0,-3.564 1.98001,-9.174 5.764,0 -2.838,8.602 1.078,0 0.44,-2.486 4.532,-0.154 0,2.64 0.55,0 0,4.136 -0.55,0 0,1.76 -4.994,0"
         style="font-size:22px;font-style:normal;font-variant:normal;font-weight:900;font-stretch:normal;line-height:125%;letter-spacing:0px;word-spacing:0px;fill:#f5f5f5;fill-opacity:1;stroke:#323232;stroke-width:1.5;stroke-miterlimit:4;stroke-opacity:1;font-family:Titillium Web;-inkscape-font-specification:Titillium Web Heavy"
         id="path3956-8"
         inkscape:connector-curvature="0" />
    </g>
    <g
       id="13"
       transform="translate(-274.99516,814.5962)">
      <path
         d="m 272.09594,192.51623 0,14.498 -4.994,0 0,-9.152 -3.036,1.21 -1.32,-3.564 5.148,-2.992 4.202,0"
         style="font-size:22px;font-style:normal;font-variant:normal;font-weight:900;font-stretch:normal;line-height:125%;letter-spacing:0px;word-spacing:0px;fill:#f5f5f5;fill-opacity:1;stroke:#323232;stroke-width:1.5;stroke-miterlimit:4;stroke-opacity:1;font-family:Titillium Web;-inkscape-font-specification:Titillium Web Heavy"
         id="path3950-7"
         inkscape:connector-curvature="0" />
      <path
         d="m 280.88794,192.23023 c 2.15599,1e-5 3.71799,0.30801 4.686,0.924 0.98265,0.61601 1.47399,1.70135 1.474,3.256 -10e-6,0.80668 -0.10268,1.42268 -0.308,1.848 -0.19068,0.42534 -0.53535,0.81401 -1.034,1.166 0.55732,0.42534 0.95332,0.85067 1.188,1.276 0.23465,0.41067 0.35199,0.99734 0.352,1.76 -1e-5,1.83334 -0.47668,3.102 -1.43,3.806 -0.95335,0.68933 -2.42734,1.034 -4.422,1.034 -1.21734,0 -2.53734,-0.13933 -3.96,-0.418 l -0.726,-0.154 0.132,-3.85 c 1.68666,0.14667 2.88933,0.22 3.608,0.22 0.71866,0 1.19532,-0.0367 1.43,-0.11 0.23466,-0.088 0.35199,-0.264 0.352,-0.528 -10e-6,-0.27866 -0.0807,-0.46933 -0.242,-0.572 -0.16134,-0.10266 -0.46934,-0.17599 -0.924,-0.22 l -3.102,0 0,-3.894 2.904,0 c 0.79199,1e-5 1.18799,-0.21999 1.188,-0.66 -1e-5,-0.45466 -0.50601,-0.68199 -1.518,-0.682 -0.68934,1e-5 -1.70134,0.0513 -3.036,0.154 l -0.572,0.044 -0.11,-3.762 c 1.68666,-0.42532 3.04333,-0.63799 4.07,-0.638"
         style="font-size:22px;font-style:normal;font-variant:normal;font-weight:900;font-stretch:normal;line-height:125%;letter-spacing:0px;word-spacing:0px;fill:#f5f5f5;fill-opacity:1;stroke:#323232;stroke-width:1.5;stroke-miterlimit:4;stroke-opacity:1;font-family:Titillium Web;-inkscape-font-specification:Titillium Web Heavy"
         id="path3954-77"
         inkscape:connector-curvature="0" />
    </g>
    <g
       id="12"
       transform="translate(-238.40208,815.25357)">
      <path
         d="m 235.50286,191.85886 0,14.498 -4.994,0 0,-9.152 -3.036,1.21 -1.32,-3.564 5.148,-2.992 4.202,0"
         style="font-size:22px;font-style:normal;font-variant:normal;font-weight:900;font-stretch:normal;line-height:125%;letter-spacing:0px;word-spacing:0px;fill:#f5f5f5;fill-opacity:1;stroke:#323232;stroke-width:1.5;stroke-miterlimit:4;stroke-opacity:1;font-family:Titillium Web;-inkscape-font-specification:Titillium Web Heavy"
         id="path3950-3"
         inkscape:connector-curvature="0" />
      <path
         d="m 250.56486,206.52186 -10.076,0 0,-3.784 1.914,-1.848 c 0.41067,-0.38133 0.80667,-0.76266 1.188,-1.144 0,1e-5 0.308,-0.30799 0.924,-0.924 0.24933,-0.24933 0.47666,-0.52799 0.682,-0.836 0.20533,-0.30799 0.32266,-0.53532 0.352,-0.682 0.044,-0.16132 0.066,-0.32266 0.066,-0.484 0,-0.38132 -0.11,-0.62332 -0.33,-0.726 -0.22,-0.10266 -0.60867,-0.15399 -1.166,-0.154 -1.056,1e-5 -2.024,0.0807 -2.904,0.242 l -0.462,0.088 -0.22,-3.762 c 1.52533,-0.54265 3.11667,-0.81399 4.774,-0.814 1.672,1e-5 2.97733,0.38135 3.916,1.144 0.95333,0.74801 1.42999,1.79668 1.43,3.146 -1e-5,1.33468 -0.22001,2.38334 -0.66,3.146 -0.44001,0.76267 -1.26134,1.56201 -2.464,2.398 l -1.474,1.034 4.51,0 0,3.96"
         style="font-size:22px;font-style:normal;font-variant:normal;font-weight:900;font-stretch:normal;line-height:125%;letter-spacing:0px;word-spacing:0px;fill:#f5f5f5;fill-opacity:1;stroke:#323232;stroke-width:1.5;stroke-miterlimit:4;stroke-opacity:1;font-family:Titillium Web;-inkscape-font-specification:Titillium Web Heavy"
         id="path3952-6"
         inkscape:connector-curvature="0" />
    </g>
    <g
       id="11"
       transform="translate(-206.19139,813.93885)">
      <path
         d="m 203.29217,193.17358 0,14.498 -4.994,0 0,-9.152 -3.036,1.21 -1.32,-3.564 5.148,-2.992 4.202,0"
         style="font-size:22px;font-style:normal;font-variant:normal;font-weight:900;font-stretch:normal;line-height:125%;letter-spacing:0px;word-spacing:0px;fill:#f5f5f5;fill-opacity:1;stroke:#323232;stroke-width:1.5;stroke-miterlimit:4;stroke-opacity:1;font-family:Titillium Web;-inkscape-font-specification:Titillium Web Heavy"
         id="path3950-1"
         inkscape:connector-curvature="0" />
      <path
         d="m 216.44217,193.17358 0,14.498 -4.994,0 0,-9.152 -3.036,1.21 -1.32,-3.564 5.148,-2.992 4.202,0"
         style="font-size:22px;font-style:normal;font-variant:normal;font-weight:900;font-stretch:normal;line-height:125%;letter-spacing:0px;word-spacing:0px;fill:#f5f5f5;fill-opacity:1;stroke:#323232;stroke-width:1.5;stroke-miterlimit:4;stroke-opacity:1;font-family:Titillium Web;-inkscape-font-specification:Titillium Web Heavy"
         id="path3950-5"
         inkscape:connector-curvature="0" />
    </g>
    <g
       id="10"
       transform="translate(-174.78247,814.95358)">
      <path
         d="m 171.88325,192.15885 0,14.498 -4.994,0 0,-9.152 -3.036,1.21 -1.32,-3.564 5.148,-2.992 4.202,0"
         style="font-size:22px;font-style:normal;font-variant:normal;font-weight:900;font-stretch:normal;line-height:125%;letter-spacing:0px;word-spacing:0px;fill:#f5f5f5;fill-opacity:1;stroke:#323232;stroke-width:1.5;stroke-miterlimit:4;stroke-opacity:1;font-family:Titillium Web;-inkscape-font-specification:Titillium Web Heavy"
         id="path3778-3"
         inkscape:connector-curvature="0" />
      <path
         d="m 175.54925,199.41885 c 0,-2.66932 0.43267,-4.59065 1.298,-5.764 0.86534,-1.18799 2.36133,-1.78199 4.488,-1.782 2.12666,1e-5 3.60799,0.58668 4.444,1.76 0.83599,1.15868 1.25399,3.08001 1.254,5.764 -1e-5,2.66934 -0.42534,4.598 -1.276,5.786 -0.83601,1.17333 -2.32467,1.76 -4.466,1.76 -2.14133,0 -3.63733,-0.58667 -4.488,-1.76 -0.836,-1.188 -1.254,-3.10933 -1.254,-5.764 m 6.116,-3.3 c -0.088,-0.0733 -0.21267,-0.10999 -0.374,-0.11 -0.16133,1e-5 -0.286,0.0367 -0.374,0.11 -0.088,0.0733 -0.16133,0.23468 -0.22,0.484 -0.10267,0.44001 -0.154,1.37868 -0.154,2.816 0,1.42267 0.044,2.34667 0.132,2.772 0.10267,0.41067 0.308,0.616 0.616,0.616 0.308,0 0.506,-0.20533 0.594,-0.616 0.10266,-0.42533 0.154,-1.18799 0.154,-2.288 0,-1.09999 -0.0147,-1.86266 -0.044,-2.288 -0.0147,-0.42532 -0.0513,-0.76266 -0.11,-1.012 -0.0587,-0.24932 -0.132,-0.41066 -0.22,-0.484"
         style="font-size:22px;font-style:normal;font-variant:normal;font-weight:900;font-stretch:normal;line-height:125%;letter-spacing:0px;word-spacing:0px;fill:#f5f5f5;fill-opacity:1;stroke:#323232;stroke-width:1.5;stroke-miterlimit:4;stroke-opacity:1;font-family:Titillium Web;-inkscape-font-specification:Titillium Web Heavy"
         id="path3968-8"
         inkscape:connector-curvature="0" />
    </g>
  </g>
</svg>
