<?xml version="1.0" encoding="UTF-8" standalone="no"?>
<svg
   xmlns:dc="http://purl.org/dc/elements/1.1/"
   xmlns:cc="http://creativecommons.org/ns#"
   xmlns:rdf="http://www.w3.org/1999/02/22-rdf-syntax-ns#"
   xmlns:svg="http://www.w3.org/2000/svg"
   xmlns="http://www.w3.org/2000/svg"
   xmlns:sodipodi="http://sodipodi.sourceforge.net/DTD/sodipodi-0.dtd"
   xmlns:inkscape="http://www.inkscape.org/namespaces/inkscape"
   height="24"
   width="24"
   version="1.1"
   id="svg4"
   sodipodi:docname="comment.svg"
   inkscape:version="0.92.4 (fd57863, 2020-04-02)">
  <metadata
     id="metadata10">
    <rdf:RDF>
      <cc:Work
         rdf:about="">
        <dc:format>image/svg+xml</dc:format>
        <dc:type
           rdf:resource="http://purl.org/dc/dcmitype/StillImage" />
        <dc:title></dc:title>
      </cc:Work>
    </rdf:RDF>
  </metadata>
  <defs
     id="defs8" />
  <sodipodi:namedview
     pagecolor="#ffffff"
     bordercolor="#666666"
     borderopacity="1"
     objecttolerance="10"
     gridtolerance="10"
     guidetolerance="10"
     inkscape:pageopacity="0"
     inkscape:pageshadow="2"
     inkscape:window-width="1920"
     inkscape:window-height="1016"
     id="namedview6"
     showgrid="false"
     inkscape:zoom="14.75"
     inkscape:cx="8"
     inkscape:cy="8"
     inkscape:window-x="0"
     inkscape:window-y="27"
     inkscape:window-maximized="1"
     inkscape:current-layer="svg4" />
  <path
     d="m 0,1.841 v 19.5 h 9 c 1.4625,0 2.403,1.2 2.403,1.2 l 0.585,0.777 0.6,-0.765 c 0,0 0.978,-1.1895 2.418,-1.212 H 24 v -19.5 h -3 v 1.5 h 1.5 v 16.5 h -7.512 c -1.5375,0.0225 -2.436,0.717 -2.982,1.236 A 4.188,4.188 0 0 0 9,19.841 H 1.5 V 3.341 H 9 c 1.4745,0 2.4,1.1985 2.4,1.1985 L 12,5.342 12.6,4.5395 c 0,0 0.9255,-1.1985 2.4,-1.1985 v 10.5 l 4.5,-1.5 V 1.841 H 15 c -1.554,0 -2.4525,0.6975 -3,1.23 -0.5475,-0.5325 -1.446,-1.23 -3,-1.23 z m 4.5,4.5 v 1.5 H 9 v -1.5 z m 0,3 v 1.5 H 9 v -1.5 z m 0,3 v 1.5 H 9 v -1.5 z m 0,3 v 1.5 H 9 v -1.5 z"
     style="color:#000000;font-weight:400;line-height:normal;font-family:sans-serif;font-variant-ligatures:none;font-variant-position:normal;font-variant-caps:normal;font-variant-numeric:normal;font-variant-alternates:normal;font-feature-settings:normal;text-indent:0;text-align:start;text-decoration:none;text-decoration-line:none;text-decoration-style:solid;text-decoration-color:#000000;text-transform:none;white-space:normal;shape-padding:0;overflow:visible;isolation:auto;mix-blend-mode:normal;fill:#808080;stroke-width:1.5;marker:none"
     font-weight="400"
     overflow="visible"
     id="path2"
     inkscape:connector-curvature="0" />
</svg>
