<?xml version="1.0" encoding="UTF-8" standalone="no"?>
<svg
   xmlns:dc="http://purl.org/dc/elements/1.1/"
   xmlns:cc="http://creativecommons.org/ns#"
   xmlns:rdf="http://www.w3.org/1999/02/22-rdf-syntax-ns#"
   xmlns:svg="http://www.w3.org/2000/svg"
   xmlns="http://www.w3.org/2000/svg"
   xmlns:sodipodi="http://sodipodi.sourceforge.net/DTD/sodipodi-0.dtd"
   xmlns:inkscape="http://www.inkscape.org/namespaces/inkscape"
   inkscape:version="1.0 (6e3e5246a0, 2020-05-07)"
   sodipodi:docname="create.svg"
   id="svg4"
   version="1.1"
   width="24"
   height="24">
  <metadata
     id="metadata10">
    <rdf:RDF>
      <cc:Work
         rdf:about="">
        <dc:format>image/svg+xml</dc:format>
        <dc:type
           rdf:resource="http://purl.org/dc/dcmitype/StillImage" />
        <dc:title></dc:title>
      </cc:Work>
    </rdf:RDF>
  </metadata>
  <defs
     id="defs8" />
  <sodipodi:namedview
     inkscape:current-layer="svg4"
     inkscape:window-maximized="1"
     inkscape:window-y="27"
     inkscape:window-x="0"
     inkscape:cy="12.36258"
     inkscape:cx="-12.902214"
     inkscape:zoom="13.59375"
     showgrid="false"
     id="namedview6"
     inkscape:window-height="1016"
     inkscape:window-width="1920"
     inkscape:pageshadow="2"
     inkscape:pageopacity="0"
     guidetolerance="10"
     gridtolerance="10"
     objecttolerance="10"
     borderopacity="1"
     bordercolor="#666666"
     pagecolor="#ffffff" />
  <path
     id="path2"
     fill="#808080"
     overflow="visible"
     color="#000000"
     style="stroke-width:1.5;marker:none"
     d="m 12,1.5 -0.003,0.0015 -0.0015,0.003 -0.003,0.0015 -0.003,0.003 C 10.725,4.224 9.747,6.99 9.1905,8.685 c -1.8285,0 -4.839,0.0705 -7.71,0.4425 v 0.003 L 1.482,9.1335 1.4835,9.1365 1.485,9.138 c 2.19,2.043 4.521,3.8265 5.9625,4.8795 -0.564,1.74 -1.4295,4.626 -1.962,7.47 h 0.012 c 2.619,-1.4535 5.037,-3.117 6.483,-4.1625 1.4805,1.074 3.9585,2.7885 6.4995,4.1745 v -0.003 -0.003 -0.003 l 0.0015,-0.003 c -0.5715,-2.94 -1.407,-5.754 -1.9545,-7.452 1.479,-1.0755 3.8745,-2.9025 5.9775,-4.89 L 22.5,9.144 H 22.497 L 22.494,9.141 22.4925,9.138 C 19.518,8.775 16.5855,8.7 14.8005,8.6955 14.2365,6.9555 13.239,4.1145 11.997,1.5 Z" />
</svg>
