<?xml version="1.0" encoding="UTF-8" standalone="no"?>
<svg
   xmlns:dc="http://purl.org/dc/elements/1.1/"
   xmlns:cc="http://creativecommons.org/ns#"
   xmlns:rdf="http://www.w3.org/1999/02/22-rdf-syntax-ns#"
   xmlns:svg="http://www.w3.org/2000/svg"
   xmlns="http://www.w3.org/2000/svg"
   xmlns:sodipodi="http://sodipodi.sourceforge.net/DTD/sodipodi-0.dtd"
   xmlns:inkscape="http://www.inkscape.org/namespaces/inkscape"
   height="48"
   width="48"
   version="1.1"
   id="svg4"
   sodipodi:docname="system-users-symbolic.svg"
   inkscape:version="0.92.4 (fd57863, 2020-04-02)">
  <metadata
     id="metadata10">
    <rdf:RDF>
      <cc:Work
         rdf:about="">
        <dc:format>image/svg+xml</dc:format>
        <dc:type
           rdf:resource="http://purl.org/dc/dcmitype/StillImage" />
        <dc:title></dc:title>
      </cc:Work>
    </rdf:RDF>
  </metadata>
  <defs
     id="defs8" />
  <sodipodi:namedview
     pagecolor="#ffffff"
     bordercolor="#666666"
     borderopacity="1"
     objecttolerance="10"
     gridtolerance="10"
     guidetolerance="10"
     inkscape:pageopacity="0"
     inkscape:pageshadow="2"
     inkscape:window-width="1920"
     inkscape:window-height="1016"
     id="namedview6"
     showgrid="false"
     inkscape:zoom="14.75"
     inkscape:cx="-1.5254237"
     inkscape:cy="16.135593"
     inkscape:window-x="0"
     inkscape:window-y="27"
     inkscape:window-maximized="1"
     inkscape:current-layer="svg4" />
  <path
     d="m 24,3 c -1.587,0 -3.096,0.294 -4.482,0.885 -1.38,0.564 -2.604,1.389 -3.621,2.46 l -0.006,0.012 -0.006,0.006 a 11.46,11.46 0 0 0 -2.298,3.84 13.653,13.653 0 0 0 -0.81,4.8 c 0,1.74 0.261,3.366 0.81,4.836 0.54,1.446 1.308,2.724 2.298,3.798 l 0.006,0.006 0.006,0.006 c 1.014,1.068 2.229,1.908 3.603,2.496 l 0.012,0.006 0.012,0.006 C 20.91,26.721 22.416,27 24,27 c 1.584,0 3.084,-0.279 4.47,-0.843 v -0.006 a 10.41,10.41 0 0 0 3.57,-2.502 c 1.02,-1.074 1.8,-2.358 2.34,-3.81 0.555,-1.47 0.816,-3.093 0.816,-4.839 h 0.024 c 0,-1.719 -0.261,-3.327 -0.81,-4.794 A 11.076,11.076 0 0 0 32.07,6.357 9.996,9.996 0 0 0 28.482,3.885 11.34,11.34 0 0 0 24,3 Z m 0,3 c 1.218,0 2.31,0.219 3.306,0.645 l 0.03,0.012 0.03,0.006 a 6.9,6.9 0 0 1 2.511,1.728 v 0.03 c 0.72,0.759 1.293,1.692 1.707,2.82 v 0.015 c 0.39,1.053 0.582,2.259 0.597,3.606 V 15 c 0,1.446 -0.216,2.7 -0.621,3.786 v 0.006 a 8.124,8.124 0 0 1 -1.71,2.793 l -0.03,0.012 v 0.012 c -0.702,0.759 -1.542,1.35 -2.544,1.782 A 8.667,8.667 0 0 1 24,24 c -1.23,0 -2.331,-0.216 -3.33,-0.621 H 20.661 A 7.74,7.74 0 0 1 18.147,21.633 L 17.994,21.423 17.97,21.405 A 8.394,8.394 0 0 1 16.398,18.792 10.785,10.785 0 0 1 15.777,15 c 0,-1.413 0.213,-2.658 0.621,-3.75 l 0.006,-0.006 v -0.012 c 0.414,-1.128 0.975,-2.052 1.665,-2.808 l 0.036,-0.03 c 0.72,-0.75 1.56,-1.329 2.55,-1.734 L 20.673,6.648 20.697,6.642 C 21.687,6.222 22.782,6 24,6 Z m 21,42 h -3 c 0,-2.595 -0.21,-3.9 -0.705,-5.499 -0.495,-1.599 -1.23,-2.712 -2.442,-3.63 -2.43,-1.83 -6.33,-2.799 -14.766,-2.799 -8.439,0 -12.495,0.966 -14.925,2.799 -1.215,0.915 -1.95,2.028 -2.448,3.63 C 6.216,44.103 6.006,45.405 6,48 L 3,47.994 c 0.006,-2.742 0.207,-4.32 0.849,-6.384 0.642,-2.064 1.782,-3.831 3.507,-5.133 3.45,-2.601 8.085,-3.402 16.731,-3.402 8.643,0 13.128,0.801 16.575,3.405 1.722,1.302 2.859,3.072 3.498,5.136 C 44.802,43.68 45,45.255 45,48 Z"
     font-weight="400"
     letter-spacing="0"
     overflow="visible"
     style="color:#000000;font-weight:400;line-height:125%;font-family:Ubuntu;-inkscape-font-specification:'Ubuntu, Normal';font-variant-ligatures:normal;font-variant-position:normal;font-variant-caps:normal;font-variant-numeric:normal;font-variant-alternates:normal;font-feature-settings:normal;text-indent:0;text-align:start;text-decoration:none;text-decoration-line:none;text-decoration-style:solid;text-decoration-color:#000000;letter-spacing:0;word-spacing:0;text-transform:none;text-orientation:mixed;white-space:normal;shape-padding:0;overflow:visible;isolation:auto;mix-blend-mode:normal;fill:#808080;stroke-width:3"
     word-spacing="0"
     id="path2"
     inkscape:connector-curvature="0" />
</svg>
