<?xml version="1.0" encoding="UTF-8" standalone="no"?>
<svg
   xmlns:osb="http://www.openswatchbook.org/uri/2009/osb"
   xmlns:dc="http://purl.org/dc/elements/1.1/"
   xmlns:cc="http://creativecommons.org/ns#"
   xmlns:rdf="http://www.w3.org/1999/02/22-rdf-syntax-ns#"
   xmlns:svg="http://www.w3.org/2000/svg"
   xmlns="http://www.w3.org/2000/svg"
   xmlns:xlink="http://www.w3.org/1999/xlink"
   xmlns:sodipodi="http://sodipodi.sourceforge.net/DTD/sodipodi-0.dtd"
   xmlns:inkscape="http://www.inkscape.org/namespaces/inkscape"
   height="32"
   width="32"
   version="1.0"
   id="svg2"
   inkscape:version="0.48.4 r9939"
   sodipodi:docname="labels.svg">
  <sodipodi:namedview
     pagecolor="#ffffff"
     bordercolor="#666666"
     borderopacity="1"
     objecttolerance="10"
     gridtolerance="10"
     guidetolerance="10"
     inkscape:pageopacity="0"
     inkscape:pageshadow="2"
     inkscape:window-width="1680"
     inkscape:window-height="1026"
     id="namedview89"
     showgrid="false"
     inkscape:zoom="4.0677704"
     inkscape:cx="77.771911"
     inkscape:cy="-53.99395"
     inkscape:window-x="0"
     inkscape:window-y="24"
     inkscape:window-maximized="1"
     inkscape:current-layer="svg2" />
  <metadata
     id="metadata50">
    <rdf:RDF>
      <cc:Work
         rdf:about="">
        <dc:format>image/svg+xml</dc:format>
        <dc:type
           rdf:resource="http://purl.org/dc/dcmitype/StillImage" />
      </cc:Work>
    </rdf:RDF>
  </metadata>
  <defs
     id="defs3274">
    <linearGradient
       id="linearGradient4055"
       osb:paint="solid">
      <stop
         id="stop4057" />
    </linearGradient>
    <linearGradient
       id="linearGradient3404"
       y2="24.628"
       gradientUnits="userSpaceOnUse"
       x2="20.05"
       y1="16.408"
       x1="18.03">
      <stop
         id="stop2687"
         stop-color="#fff"
         stop-opacity="0.275" />
      <stop
         id="stop2689"
         offset="1"
         stop-color="#fff"
         stop-opacity="0.078" />
    </linearGradient>
    <radialGradient
       id="radialGradient3402"
       gradientUnits="userSpaceOnUse"
       cy="5.593"
       cx="4.02"
       gradientTransform="matrix(-0.016802,1.3943,-1.7966,-0.021651,-5.3658,-19.339)"
       r="10.273">
      <stop
         id="stop3754"
         stop-color="#fff" />
      <stop
         id="stop3760"
         offset="0.848"
         stop-color="#fff" />
      <stop
         id="stop3756"
         offset="1"
         stop-color="#fff"
         stop-opacity="0" />
    </radialGradient>
    <linearGradient
       id="linearGradient3400"
       y2="4.303"
       gradientUnits="userSpaceOnUse"
       x2="0"
       gradientTransform="matrix(0.99458,0,0,0.99458,-19.857,-19.778)"
       y1="20.882">
      <stop
         id="stop3624"
         stop-color="#bb2b12" />
      <stop
         id="stop3626"
         offset="1"
         stop-color="#cd7233" />
    </linearGradient>
    <radialGradient
       id="radialGradient3398"
       gradientUnits="userSpaceOnUse"
       cy="8.561"
       cx="7.819"
       gradientTransform="matrix(1.69,0,0,1.0436,-24.967,-20.534)"
       r="11.268">
      <stop
         id="stop3618"
         stop-color="#edb763" />
      <stop
         id="stop3270"
         offset="0.5"
         stop-color="#de7f32" />
      <stop
         id="stop3620"
         offset="1"
         stop-color="#d24413" />
    </radialGradient>
    <linearGradient
       id="linearGradient3396"
       y2="23.06"
       gradientUnits="userSpaceOnUse"
       x2="0"
       gradientTransform="translate(-19.518,-21.496)"
       y1="2.602">
      <stop
         id="stop5159"
         stop-color="#c1c1c1" />
      <stop
         id="stop5161"
         offset="1"
         stop-color="#909090" />
    </linearGradient>
    <linearGradient
       id="linearGradient3394"
       y2="37.503"
       gradientUnits="userSpaceOnUse"
       x2="0"
       gradientTransform="translate(14.86,-35.997)"
       y1="17.956">
      <stop
         id="stop11113"
         stop-color="#fff" />
      <stop
         id="stop11115"
         offset="0.91"
         stop-color="#cdcdcd" />
      <stop
         id="stop11117"
         offset="1"
         stop-color="#a1a1a1" />
    </linearGradient>
    <radialGradient
       id="radialGradient3392"
       xlink:href="#linearGradient5060"
       gradientUnits="userSpaceOnUse"
       cy="486.65"
       cx="605.71"
       gradientTransform="matrix(-2.7744,0,0,1.9697,112.76,-872.89)"
       r="117.14" />
    <linearGradient
       id="linearGradient5060">
      <stop
         id="stop5062"
         stop-opacity="0.12" />
      <stop
         id="stop5064"
         offset="1"
         stop-opacity="0" />
    </linearGradient>
    <radialGradient
       id="radialGradient3390"
       xlink:href="#linearGradient5060"
       gradientUnits="userSpaceOnUse"
       cy="486.65"
       cx="605.71"
       gradientTransform="matrix(2.7744,0,0,1.9697,-1891.6,-872.89)"
       r="117.14" />
    <linearGradient
       id="linearGradient3388"
       y2="609.51"
       gradientUnits="userSpaceOnUse"
       x2="0"
       gradientTransform="matrix(2.7744,0,0,1.9697,-1892.2,-872.89)"
       y1="366.65">
      <stop
         id="stop5050"
         stop-opacity="0" />
      <stop
         id="stop5056"
         offset="0.5" />
      <stop
         id="stop5052"
         offset="1"
         stop-opacity="0" />
    </linearGradient>
  </defs>
  <g
     id="fn"
     transform="translate(-52.636454,-59.339566)">
    <path
       style="fill:#000000;fill-opacity:0.80392157;fill-rule:evenodd;stroke:none"
       d="m 68.636456,59.339564 c 0,8.836557 -7.163444,16.000001 -15.999996,16.000001 -8.83656,0 -16.000004,-7.163444 -16.000004,-16.000001 0,-8.836555 7.163444,-15.999999 16.000004,-15.999999 8.836552,0 15.999996,7.163444 15.999996,16 z"
       id="label-4"
       inkscape:connector-curvature="0" />
    <path
       d="m 50.136456,66.269565 0,-7.36 -2.06,0 0,-2.04 2.06,0 0,-0.54 c -3e-6,-0.759989 0.106663,-1.386655 0.32,-1.88 0.226663,-0.506654 0.526663,-0.906654 0.9,-1.2 0.373328,-0.306653 0.799995,-0.519986 1.28,-0.64 0.479994,-0.133319 0.973327,-0.199986 1.48,-0.2 0.519992,1.4e-5 1.053325,0.04668 1.6,0.14 0.546657,0.09335 1.03999,0.24668 1.48,0.46 l -0.42,2 c -0.306676,-0.106655 -0.693343,-0.213322 -1.16,-0.32 -0.453342,-0.119988 -0.886675,-0.179988 -1.3,-0.18 -0.226674,1.2e-5 -0.446674,0.02001 -0.66,0.06 -0.200007,0.04001 -0.380006,0.126678 -0.54,0.26 -0.146673,0.133345 -0.266673,0.326678 -0.36,0.58 -0.09334,0.240011 -0.140006,0.56001 -0.14,0.96 l 0,0.5 3.86,0 0,2.04 -3.86,0 0,7.36 -2.48,0"
       style="font-size:20px;font-style:normal;font-variant:normal;font-weight:bold;font-stretch:normal;line-height:125%;letter-spacing:0px;word-spacing:0px;fill:#f5f5f5;fill-opacity:1;stroke:none;font-family:Ubuntu Mono;-inkscape-font-specification:Ubuntu Mono Bold"
       id="path3844"
       inkscape:connector-curvature="0" />
  </g>
  <g
     id="en"
     transform="translate(-164.7094,-94.933741)">
    <path
       style="fill:#000000;fill-opacity:0.80392157;fill-rule:evenodd;stroke:none"
       d="m 180.7094,94.933739 c 0,8.836561 -7.16345,16.000001 -16,16.000001 -8.83656,0 -16,-7.16344 -16,-16.000001 0,-8.836555 7.16344,-15.999999 16,-15.999999 8.83655,0 16,7.163444 16,16 z"
       id="label-4-6-6"
       inkscape:connector-curvature="0" />
    <path
       d="m 160.3694,95.02374 c 0,-0.826661 0.12667,-1.553327 0.38,-2.18 0.25333,-0.626659 0.58667,-1.146659 1,-1.56 0.41333,-0.426658 0.88666,-0.746658 1.42,-0.96 0.53333,-0.213324 1.08,-0.31999 1.64,-0.32 1.38666,1e-5 2.43999,0.413343 3.16,1.24 0.71999,0.813341 1.07999,2.006673 1.08,3.58 -1e-5,0.160005 -0.007,0.326671 -0.02,0.5 -1e-5,0.173338 -0.007,0.313337 -0.02,0.42 l -6.1,0 c 0,0.613337 0.25333,1.100003 0.76,1.46 0.50666,0.346669 1.15999,0.520002 1.96,0.52 0.49333,2e-6 0.95999,-0.05333 1.4,-0.16 0.45333,-0.106664 0.83333,-0.213331 1.14,-0.32 l 0.34,2.1 c -0.42667,0.146667 -0.88001,0.266667 -1.36,0.36 -0.48001,0.106666 -1.02001,0.16 -1.62,0.16 -0.8,0 -1.52,-0.1 -2.16,-0.3 -0.62667,-0.213333 -1.16667,-0.519999 -1.62,-0.92 -0.44,-0.413332 -0.78,-0.919998 -1.02,-1.52 -0.24,-0.599997 -0.36,-1.299996 -0.36,-2.1 m 6.3,-0.98 c -1e-5,-0.253327 -0.0333,-0.493327 -0.1,-0.72 -0.0667,-0.239993 -0.17334,-0.453327 -0.32,-0.64 -0.14667,-0.18666 -0.33334,-0.333326 -0.56,-0.44 -0.22667,-0.119992 -0.50667,-0.179992 -0.84,-0.18 -0.32,8e-6 -0.6,0.05334 -0.84,0.16 -0.22667,0.106674 -0.42,0.25334 -0.58,0.44 -0.14667,0.186674 -0.26667,0.400007 -0.36,0.64 -0.08,0.240006 -0.13334,0.486673 -0.16,0.74 l 3.76,0"
       style="font-size:20px;font-style:normal;font-variant:normal;font-weight:bold;font-stretch:normal;line-height:125%;letter-spacing:0px;word-spacing:0px;fill:#f5f5f5;fill-opacity:1;stroke:none;font-family:Ubuntu Mono;-inkscape-font-specification:Ubuntu Mono Bold"
       id="path3842"
       inkscape:connector-curvature="0" />
  </g>
  <g
     id="dn"
     transform="translate(-108.65903,-91.983721)">
    <path
       style="fill:#000000;fill-opacity:0.80392157;fill-rule:evenodd;stroke:none"
       d="m 124.65903,91.98372 c 0,8.83656 -7.16344,16 -15.99999,16 -8.836561,0 -16.000005,-7.16344 -16.000005,-16 0,-8.836555 7.163444,-15.999999 16.000005,-15.999999 8.83655,0 15.99999,7.163444 15.99999,16 z"
       id="label-4-6-9"
       inkscape:connector-curvature="0" />
    <path
       d="m 106.15571,93.070381 c 0,0.840003 0.15333,1.526669 0.46,2.06 0.32,0.533335 0.82666,0.800001 1.52,0.8 0.2,10e-7 0.38666,-0.0067 0.56,-0.02 0.17333,-0.01333 0.35333,-0.03333 0.54,-0.06 l 0,-5.12 c -0.18667,-0.10666 -0.4,-0.193326 -0.64,-0.26 -0.24,-0.07999 -0.49334,-0.119993 -0.76,-0.12 -0.58667,7e-6 -1.01334,0.23334 -1.28,0.7 -0.26667,0.466673 -0.4,1.140005 -0.4,2.02 m 5.54,4.48 c -0.45334,0.146666 -1.00667,0.266666 -1.66,0.36 -0.65334,0.09333 -1.29334,0.139999 -1.92,0.14 -1.46667,-10e-7 -2.58,-0.433334 -3.34,-1.3 -0.74667,-0.866665 -1.12,-2.053331 -1.12,-3.56 0,-1.533328 0.31333,-2.739993 0.94,-3.62 0.64,-0.893325 1.58,-1.339991 2.82,-1.34 0.33333,9e-6 0.66,0.04001 0.98,0.12 0.32,0.06668 0.6,0.166676 0.84,0.3 l 0,-4.280001 2.46,-0.42 0,13.600001"
       style="font-size:20px;font-style:normal;font-variant:normal;font-weight:bold;font-stretch:normal;line-height:125%;letter-spacing:0px;word-spacing:0px;fill:#f5f5f5;fill-opacity:1;stroke:none;font-family:Ubuntu Mono;-inkscape-font-specification:Ubuntu Mono Bold"
       id="path3840"
       inkscape:connector-curvature="0" />
  </g>
  <g
     id="cn"
     transform="translate(-67.850435,-92.721228)">
    <path
       style="fill:#000000;fill-opacity:0.80392157;fill-rule:evenodd;stroke:none"
       d="m 83.850436,92.721224 c 0,8.836556 -7.163442,16.000006 -15.999994,16.000006 -8.83656,0 -16.000004,-7.16345 -16.000004,-16.000006 0,-8.836555 7.163444,-15.999999 16.000004,-15.999999 8.836552,0 15.999994,7.163444 15.999994,16 z"
       id="label-4-6-5"
       inkscape:connector-curvature="0" />
    <path
       d="m 63.384602,92.731228 c -10e-7,-0.679995 0.106665,-1.319995 0.32,-1.920001 0.213331,-0.599992 0.539998,-1.119992 0.98,-1.56 0.439997,-0.453324 0.99333,-0.806657 1.66,-1.06 0.679995,-0.266657 1.486661,-0.39999 2.42,-0.4 0.559993,10e-6 1.066659,0.04001 1.52,0.12 0.453325,0.08001 0.913324,0.213343 1.38,0.4 l -0.54,1.98 c -0.266675,-0.09333 -0.566675,-0.173325 -0.9,-0.24 -0.320008,-0.07999 -0.733341,-0.119992 -1.24,-0.12 -0.586673,8e-6 -1.080006,0.07334 -1.48,0.22 -0.386672,0.133341 -0.700005,0.326674 -0.94,0.58 -0.240004,0.240007 -0.413337,0.53334 -0.52,0.88 -0.106671,0.346673 -0.160004,0.720006 -0.16,1.12 -4e-6,0.866671 0.239996,1.54667 0.72,2.04 0.493328,0.493336 1.326661,0.740002 2.5,0.740001 0.386659,10e-7 0.786659,-0.02667 1.2,-0.08 0.426658,-0.05333 0.813324,-0.139998 1.16,-0.26 l 0.36,2.019999 c -0.346676,0.133334 -0.766676,0.24 -1.26,0.32 -0.493341,0.09333 -1.073341,0.14 -1.74,0.14 -0.960006,0 -1.786672,-0.126666 -2.48,-0.38 -0.680004,-0.253332 -1.240003,-0.599999 -1.68,-1.039999 -0.440002,-0.439999 -0.766669,-0.959998 -0.98,-1.560001 -0.200001,-0.599996 -0.300001,-1.246662 -0.3,-1.939999"
       style="font-size:20px;font-style:normal;font-variant:normal;font-weight:bold;font-stretch:normal;line-height:125%;letter-spacing:0px;word-spacing:0px;fill:#f5f5f5;fill-opacity:1;stroke:none;font-family:Ubuntu Mono;-inkscape-font-specification:Ubuntu Mono Bold"
       id="path3838"
       inkscape:connector-curvature="0" />
  </g>
  <g
     id="bn"
     transform="translate(-27.287674,-80.42948)">
    <path
       style="fill:#000000;fill-opacity:0.80392157;fill-rule:evenodd;stroke:none"
       d="m 43.287676,80.429478 c 0,8.836557 -7.163444,16.000001 -15.999996,16.000001 -8.83656,0 -16.000004,-7.163444 -16.000004,-16.000001 0,-8.836555 7.163444,-15.999999 16.000004,-15.999999 8.836552,0 15.999996,7.163444 15.999996,16 z"
       id="label-4-6-7"
       inkscape:connector-curvature="0" />
    <path
       d="m 28.867676,81.516139 c -7e-6,-0.879994 -0.146674,-1.553327 -0.44,-2.02 -0.280007,-0.466659 -0.71334,-0.699992 -1.3,-0.7 -0.266672,8e-6 -0.533338,0.04001 -0.8,0.12 -0.253338,0.06667 -0.473338,0.153341 -0.66,0.26 l 0,5.1 c 0.186662,0.04 0.379995,0.06667 0.58,0.08 0.213328,0.01333 0.393328,0.02 0.54,0.02 0.639994,2e-6 1.14666,-0.213331 1.52,-0.64 0.373326,-0.439997 0.559993,-1.179996 0.56,-2.22 m 2.5,0.06 c -10e-6,0.746671 -0.10001,1.42667 -0.3,2.04 -0.200009,0.600002 -0.493342,1.113335 -0.88,1.54 -0.386675,0.426667 -0.860008,0.76 -1.42,1 -0.560007,0.226667 -1.200006,0.34 -1.92,0.34 -0.640005,0 -1.293337,-0.04667 -1.96,-0.14 -0.666669,-0.09333 -1.226669,-0.213333 -1.68,-0.36 l 0,-13.18 2.46,-0.42 0,4.7 c 0.346662,-0.159991 0.679995,-0.266657 1,-0.32 0.319995,-0.06666 0.639994,-0.09999 0.96,-0.1 0.613327,10e-6 1.153326,0.12001 1.62,0.36 0.466658,0.226676 0.853325,0.560009 1.16,1 0.319991,0.426675 0.559991,0.940007 0.72,1.54 0.15999,0.600006 0.23999,1.266672 0.24,2"
       style="font-size:20px;font-style:normal;font-variant:normal;font-weight:bold;font-stretch:normal;line-height:125%;letter-spacing:0px;word-spacing:0px;fill:#f5f5f5;fill-opacity:1;stroke:none;font-family:Ubuntu Mono;-inkscape-font-specification:Ubuntu Mono Bold"
       id="path3836"
       inkscape:connector-curvature="0" />
  </g>
  <g
     id="an"
     transform="translate(-15.210258,-33.303738)">
    <path
       style="fill:#000000;fill-opacity:0.80392157;fill-rule:evenodd;stroke:none"
       d="m 31.21026,33.303736 c 0,8.836557 -7.163444,16.000001 -15.999996,16.000001 -8.83656,0 -16.000004,-7.163444 -16.000004,-16.000001 0,-8.836555 7.163444,-15.999999 16.000004,-15.999999 8.836552,0 15.999996,7.163444 15.999996,16 z"
       id="label-4-6"
       inkscape:connector-curvature="0" />
    <path
       d="m 15.38026,36.253737 c 0.266661,2e-6 0.526661,2e-6 0.78,0 0.253327,-0.01333 0.473327,-0.03333 0.66,-0.06 l 0,-2.16 c -0.160007,-0.02666 -0.35334,-0.04666 -0.58,-0.06 -0.226673,-0.02666 -0.433339,-0.04 -0.62,-0.04 -0.253339,4e-6 -0.500005,0.02 -0.74,0.06 -0.240005,0.02667 -0.453338,0.08 -0.64,0.16 -0.173338,0.08 -0.313337,0.193337 -0.42,0.34 -0.10667,0.14667 -0.160004,0.340003 -0.16,0.58 -4e-6,0.426669 0.159996,0.733336 0.48,0.92 0.319995,0.173335 0.733328,0.260002 1.24,0.26 m -0.22,-7.88 c 0.773327,1e-5 1.413327,0.09334 1.92,0.28 0.519992,0.173342 0.933325,0.426676 1.24,0.76 0.306658,0.320008 0.526658,0.720008 0.66,1.2 0.133324,0.466674 0.199991,0.99334 0.2,1.58 l 0,5.6 c -0.360009,0.08 -0.893342,0.173333 -1.6,0.28 -0.706674,0.106666 -1.500006,0.16 -2.38,0.16 -0.600005,0 -1.146671,-0.05333 -1.64,-0.16 -0.480003,-0.106667 -0.893336,-0.28 -1.24,-0.52 -0.346669,-0.253333 -0.613335,-0.573332 -0.8,-0.96 -0.186668,-0.399998 -0.280001,-0.886664 -0.28,-1.46 -10e-7,-0.546663 0.106665,-1.006663 0.32,-1.38 0.213331,-0.373329 0.499998,-0.673328 0.86,-0.9 0.359997,-0.226661 0.77333,-0.386661 1.24,-0.48 0.466662,-0.106661 0.953329,-0.159994 1.46,-0.16 0.639994,6e-6 1.20666,0.05334 1.7,0.16 l 0,-0.3 c -7e-6,-0.46666 -0.146673,-0.853327 -0.44,-1.16 -0.29334,-0.319993 -0.800006,-0.479992 -1.52,-0.48 -0.466671,8e-6 -0.920004,0.03334 -1.36,0.1 -0.42667,0.06667 -0.773336,0.146674 -1.04,0.24 l -0.34,-1.98 c 0.306664,-0.106657 0.739997,-0.199991 1.3,-0.28 0.559996,-0.09332 1.139995,-0.13999 1.74,-0.14"
       style="font-size:20px;font-style:normal;font-variant:normal;font-weight:bold;font-stretch:normal;line-height:125%;letter-spacing:0px;word-spacing:0px;fill:#f5f5f5;fill-opacity:1;stroke:none;font-family:Ubuntu Mono;-inkscape-font-specification:Ubuntu Mono Bold"
       id="path3834"
       inkscape:connector-curvature="0" />
  </g>
  <g
     id="fs"
     transform="translate(-63.917082,-181.71347)">
    <path
       style="fill:#000000;fill-opacity:0.80392157;fill-rule:evenodd;stroke:none"
       d="m 79.917084,181.71347 c 0,8.83655 -7.16345,16 -16,16 -8.83656,0 -16,-7.16345 -16,-16 0,-8.83656 7.16344,-16 16,-16 8.83655,0 16,7.16344 16,16 z"
       id="label-4-6-1"
       inkscape:connector-curvature="0" />
    <path
       d="m 60.127084,187.90347 0,-12.38 7.58,0 0,2.04 -5.12,0 0,3 4.48,0 0,2.04 -4.48,0 0,5.3 -2.46,0"
       style="font-size:20px;font-style:normal;font-variant:normal;font-weight:bold;font-stretch:normal;line-height:125%;letter-spacing:0px;word-spacing:0px;fill:#f5f5f5;fill-opacity:1;stroke:none;font-family:Ubuntu Mono;-inkscape-font-specification:Ubuntu Mono Bold"
       id="path3856"
       inkscape:connector-curvature="0" />
  </g>
  <g
     id="es"
     transform="translate(-19.912626,-182.69681)">
    <path
       style="fill:#000000;fill-opacity:0.80392157;fill-rule:evenodd;stroke:none"
       d="m 35.912628,182.6968 c 0,8.83656 -7.16344,16.00001 -16,16.00001 -8.83656,0 -16.0000001,-7.16345 -16.0000001,-16.00001 0,-8.83655 7.1634401,-15.99999 16.0000001,-15.99999 8.83656,0 16,7.16344 16,16 z"
       id="label-4-6-63"
       inkscape:connector-curvature="0" />
    <path
       d="m 15.942628,188.88681 0,-12.38 7.5,0 0,2.04 -5.04,0 0,2.78 4.38,0 0,2.04 -4.38,0 0,3.48 5.48,0 0,2.04 -7.94,0"
       style="font-size:20px;font-style:normal;font-variant:normal;font-weight:bold;font-stretch:normal;line-height:125%;letter-spacing:0px;word-spacing:0px;fill:#f5f5f5;fill-opacity:1;stroke:none;font-family:Ubuntu Mono;-inkscape-font-specification:Ubuntu Mono Bold"
       id="path3854"
       inkscape:connector-curvature="0" />
  </g>
  <g
     id="ds"
     transform="translate(-162.25104,-144.83823)">
    <path
       style="fill:#000000;fill-opacity:0.80392157;fill-rule:evenodd;stroke:none"
       d="m 178.25104,144.83823 c 0,8.83655 -7.16344,16 -15.99999,16 -8.83656,0 -16,-7.16345 -16,-16 0,-8.83656 7.16344,-16 16,-16 8.83655,0 15.99999,7.16344 15.99999,16 z"
       id="label-4-6-79"
       inkscape:connector-curvature="0" />
    <path
       d="m 161.0127,149.01823 c 0.0667,0.0133 0.13999,0.02 0.22,0.02 0.08,0 0.15333,0 0.22,0 0.55999,0 1.02666,-0.10666 1.4,-0.32 0.38666,-0.21333 0.69332,-0.50666 0.92,-0.88 0.23999,-0.37333 0.40666,-0.81333 0.5,-1.32 0.10666,-0.51999 0.15999,-1.08666 0.16,-1.7 -1e-5,-0.53333 -0.04,-1.05333 -0.12,-1.56 -0.08,-0.50666 -0.22001,-0.95332 -0.42,-1.34 -0.20001,-0.38666 -0.47334,-0.69332 -0.82,-0.92 -0.34667,-0.23999 -0.79334,-0.35999 -1.34,-0.36 -0.10667,1e-5 -0.22667,0.007 -0.36,0.02 -0.13334,1e-5 -0.25334,0.0133 -0.36,0.04 l 0,8.32 m 5.92,-4.2 c -1e-5,1.14667 -0.14668,2.12667 -0.44,2.94 -0.28001,0.8 -0.67334,1.45334 -1.18,1.96 -0.50668,0.50667 -1.11334,0.88 -1.82,1.12 -0.69334,0.22667 -1.46001,0.34 -2.3,0.34 -0.44001,0 -0.87334,-0.0267 -1.3,-0.08 -0.41334,-0.04 -0.86,-0.11333 -1.34,-0.22 l 0,-12.08 c 0.56,-0.11999 1.08666,-0.19999 1.58,-0.24 0.49333,-0.04 0.95333,-0.06 1.38,-0.06 0.81333,1e-5 1.55333,0.12001 2.22,0.36 0.67999,0.24001 1.25332,0.62001 1.72,1.14 0.46666,0.50668 0.82666,1.16001 1.08,1.96 0.26665,0.78668 0.39999,1.74001 0.4,2.86"
       style="font-size:20px;font-style:normal;font-variant:normal;font-weight:bold;font-stretch:normal;line-height:125%;letter-spacing:0px;word-spacing:0px;fill:#f5f5f5;fill-opacity:1;stroke:none;font-family:Ubuntu Mono;-inkscape-font-specification:Ubuntu Mono Bold"
       id="path3852"
       inkscape:connector-curvature="0" />
  </g>
  <g
     id="cs"
     transform="translate(-112.10072,-141.1507)">
    <path
       style="fill:#000000;fill-opacity:0.80392157;fill-rule:evenodd;stroke:none"
       d="m 128.10072,141.1507 c 0,8.83656 -7.16344,16 -15.99999,16 -8.83656,0 -16.000007,-7.16344 -16.000007,-16 0,-8.83655 7.163447,-16 16.000007,-16 8.83655,0 15.99999,7.16345 15.99999,16 z"
       id="label-4-6-3"
       inkscape:connector-curvature="0" />
    <path
       d="m 112.32323,147.6107 c -1.74667,0 -3.08001,-0.56 -4,-1.68 -0.92,-1.12 -1.38,-2.71333 -1.38,-4.78 0,-1.02666 0.14,-1.93999 0.42,-2.74 0.28,-0.79999 0.66666,-1.47332 1.16,-2.02 0.50666,-0.55999 1.09999,-0.97999 1.78,-1.26 0.69333,-0.29332 1.44666,-0.43999 2.26,-0.44 0.43999,1e-5 0.83332,0.04 1.18,0.12 0.35999,0.0667 0.67332,0.14668 0.94,0.24 0.26666,0.0933 0.48666,0.19335 0.66,0.3 0.18666,0.10668 0.32665,0.18668 0.42,0.24 l -0.64,1.96 c -0.30668,-0.19999 -0.68001,-0.36666 -1.12,-0.5 -0.42668,-0.14666 -0.92001,-0.21999 -1.48,-0.22 -0.38667,1e-5 -0.76667,0.0733 -1.14,0.22 -0.36001,0.13334 -0.68667,0.36668 -0.98,0.7 -0.28001,0.32001 -0.51334,0.75334 -0.7,1.3 -0.17334,0.54667 -0.26001,1.22667 -0.26,2.04 -1e-5,1.41334 0.23999,2.5 0.72,3.26 0.49333,0.74667 1.29333,1.12 2.4,1.12 0.63999,0 1.16666,-0.0733 1.58,-0.22 0.42666,-0.14666 0.76666,-0.29333 1.02,-0.44 l 0.62,1.94 c -0.34668,0.21333 -0.82001,0.41333 -1.42,0.6 -0.58668,0.17333 -1.26668,0.26 -2.04,0.26"
       style="font-size:20px;font-style:normal;font-variant:normal;font-weight:bold;font-stretch:normal;line-height:125%;letter-spacing:0px;word-spacing:0px;fill:#f5f5f5;fill-opacity:1;stroke:none;font-family:Ubuntu Mono;-inkscape-font-specification:Ubuntu Mono Bold"
       id="path3850"
       inkscape:connector-curvature="0" />
  </g>
  <g
     id="bs"
     transform="translate(-61.704562,-143.85489)">
    <path
       style="fill:#000000;fill-opacity:0.80392157;fill-rule:evenodd;stroke:none"
       d="m 77.704563,143.85489 c 0,8.83656 -7.163442,16 -15.999994,16 -8.83656,0 -16.000004,-7.16344 -16.000004,-16 0,-8.83656 7.163444,-16 16.000004,-16 8.836552,0 15.999994,7.16344 15.999994,16 z"
       id="label-4-6-74"
       inkscape:connector-curvature="0" />
    <path
       d="m 65.854564,146.29489 c -1e-5,0.74667 -0.126676,1.37334 -0.38,1.88 -0.253343,0.49333 -0.600009,0.89333 -1.04,1.2 -0.426675,0.29333 -0.940007,0.50667 -1.54,0.64 -0.586673,0.12 -1.220006,0.18 -1.9,0.18 -0.546671,0 -1.113337,-0.0333 -1.7,-0.1 -0.586669,-0.0533 -1.166669,-0.14 -1.74,-0.26 l 0,-12.02 c 0.466665,-0.08 0.979997,-0.14665 1.54,-0.2 0.559996,-0.0667 1.113329,-0.1 1.66,-0.1 0.933328,1e-5 1.693327,0.10001 2.28,0.3 0.586659,0.18668 1.046659,0.44001 1.38,0.76 0.333325,0.30668 0.559991,0.65334 0.68,1.04 0.119991,0.38668 0.179991,0.77334 0.18,1.16 -9e-6,0.58668 -0.146676,1.10667 -0.44,1.56 -0.280009,0.45334 -0.660008,0.81334 -1.14,1.08 0.839991,0.30667 1.406658,0.72001 1.7,1.24 0.306657,0.52 0.45999,1.06667 0.46,1.64 m -5.84,-1.68 0,3.36 c 0.173329,0.0267 0.359996,0.0467 0.56,0.06 0.213329,0.0133 0.419995,0.02 0.62,0.02 0.279995,0 0.553328,-0.02 0.82,-0.06 0.26666,-0.0533 0.499993,-0.14 0.7,-0.26 0.213326,-0.13333 0.38666,-0.31333 0.52,-0.54 0.133326,-0.24 0.199993,-0.54 0.2,-0.9 -7e-6,-0.6 -0.193341,-1.02666 -0.58,-1.28 -0.37334,-0.26666 -0.880006,-0.39999 -1.52,-0.4 l -1.32,0 m 0.96,-2.04 c 0.626661,1e-5 1.099994,-0.13333 1.42,-0.4 0.319993,-0.27999 0.479993,-0.65999 0.48,-1.14 -7e-6,-0.29332 -0.04667,-0.52666 -0.14,-0.7 -0.09334,-0.18666 -0.220007,-0.32666 -0.38,-0.42 -0.160006,-0.10666 -0.346673,-0.17332 -0.56,-0.2 -0.213339,-0.04 -0.433339,-0.06 -0.66,-0.06 -0.186672,1e-5 -0.380005,0.007 -0.58,0.02 -0.200004,0.0133 -0.380004,0.0333 -0.54,0.06 l 0,2.84 0.96,0"
       style="font-size:20px;font-style:normal;font-variant:normal;font-weight:bold;font-stretch:normal;line-height:125%;letter-spacing:0px;word-spacing:0px;fill:#f5f5f5;fill-opacity:1;stroke:none;font-family:Ubuntu Mono;-inkscape-font-specification:Ubuntu Mono Bold"
       id="path3848"
       inkscape:connector-curvature="0" />
  </g>
  <g
     id="as"
     transform="translate(-19.666792,-141.88821)"
     inkscape:label="#as">
    <path
       style="fill:#000000;fill-opacity:0.80392157;fill-rule:evenodd;stroke:none"
       d="m 35.666794,141.88821 c 0,8.83656 -7.163444,16 -15.999996,16 -8.83656,0 -16.000004,-7.16344 -16.000004,-16 0,-8.83656 7.163444,-16 16.000004,-16 8.836552,0 15.999996,7.16344 15.999996,16 z"
       id="label-4-6-51"
       inkscape:connector-curvature="0" />
    <path
       d="m 21.846794,148.07821 -0.58,-2.86 -3.3,0 -0.56,2.86 -2.56,0 c 0.586665,-2.44 1.179998,-4.66 1.78,-6.66 0.599997,-2.01332 1.179996,-3.91999 1.74,-5.72 l 2.68,0 c 0.586659,1.81334 1.166659,3.74001 1.74,5.78 0.586657,2.02667 1.153324,4.22667 1.7,6.6 l -2.64,0 m -2.2,-9.98 c -0.133339,0.46668 -0.260005,0.91334 -0.38,1.34 -0.106672,0.41334 -0.213338,0.82667 -0.32,1.24 -0.09334,0.40001 -0.186671,0.80667 -0.28,1.22 -0.08,0.41334 -0.160004,0.84001 -0.24,1.28 l 2.42,0 c -0.08001,-0.43999 -0.160006,-0.86666 -0.24,-1.28 -0.08001,-0.41333 -0.17334,-0.81999 -0.28,-1.22 -0.09334,-0.41333 -0.200006,-0.82666 -0.32,-1.24 -0.106672,-0.42666 -0.226672,-0.87332 -0.36,-1.34"
       style="font-size:20px;font-style:normal;font-variant:normal;font-weight:bold;font-stretch:normal;line-height:125%;letter-spacing:0px;word-spacing:0px;fill:#f5f5f5;fill-opacity:1;stroke:none;font-family:Ubuntu Mono;-inkscape-font-specification:Ubuntu Mono Bold"
       id="path3846"
       inkscape:connector-curvature="0" />
  </g>
</svg>
