<?xml version="1.0" encoding="UTF-8" standalone="no"?>
<svg xmlns="http://www.w3.org/2000/svg" xmlns:xlink="http://www.w3.org/1999/xlink" xmlns:sodipodi="http://sodipodi.sourceforge.net/DTD/sodipodi-0.dtd" xmlns:inkscape="http://www.inkscape.org/namespaces/inkscape" height="32" width="32" version="1.0">
 <metadata id="metadata50"/>
 <defs id="defs3274">
  <linearGradient id="linearGradient4055" osb:paint="solid">
   <stop id="stop4057"/>
  </linearGradient>
  <linearGradient id="linearGradient3404" y2="24.628" gradientUnits="userSpaceOnUse" x2="20.05" y1="16.408" x1="18.03">
   <stop id="stop2687" stop-color="#fff" stop-opacity="0.275"/>
   <stop id="stop2689" offset="1" stop-color="#fff" stop-opacity="0.078"/>
  </linearGradient>
  <radialGradient id="radialGradient3402" gradientUnits="userSpaceOnUse" cy="5.593" cx="4.02" gradientTransform="matrix(-0.016802,1.3943,-1.7966,-0.021651,-5.3658,-19.339)" r="10.273">
   <stop id="stop3754" stop-color="#fff"/>
   <stop id="stop3760" offset="0.848" stop-color="#fff"/>
   <stop id="stop3756" offset="1" stop-color="#fff" stop-opacity="0"/>
  </radialGradient>
  <linearGradient id="linearGradient3400" y2="4.303" gradientUnits="userSpaceOnUse" x2="0" gradientTransform="matrix(0.99458,0,0,0.99458,-19.857,-19.778)" y1="20.882">
   <stop id="stop3624" stop-color="#bb2b12"/>
   <stop id="stop3626" offset="1" stop-color="#cd7233"/>
  </linearGradient>
  <radialGradient id="radialGradient3398" gradientUnits="userSpaceOnUse" cy="8.561" cx="7.819" gradientTransform="matrix(1.69,0,0,1.0436,-24.967,-20.534)" r="11.268">
   <stop id="stop3618" stop-color="#edb763"/>
   <stop id="stop3270" offset="0.5" stop-color="#de7f32"/>
   <stop id="stop3620" offset="1" stop-color="#d24413"/>
  </radialGradient>
  <linearGradient id="linearGradient3396" y2="23.06" gradientUnits="userSpaceOnUse" x2="0" gradientTransform="translate(-19.518,-21.496)" y1="2.602">
   <stop id="stop5159" stop-color="#c1c1c1"/>
   <stop id="stop5161" offset="1" stop-color="#909090"/>
  </linearGradient>
  <linearGradient id="linearGradient3394" y2="37.503" gradientUnits="userSpaceOnUse" x2="0" gradientTransform="translate(14.86,-35.997)" y1="17.956">
   <stop id="stop11113" stop-color="#fff"/>
   <stop id="stop11115" offset="0.91" stop-color="#cdcdcd"/>
   <stop id="stop11117" offset="1" stop-color="#a1a1a1"/>
  </linearGradient>
  <radialGradient id="radialGradient3392" xlink:href="#linearGradient5060" gradientUnits="userSpaceOnUse" cy="486.65" cx="605.71" gradientTransform="matrix(-2.7744,0,0,1.9697,112.76,-872.89)" r="117.14"/>
  <linearGradient id="linearGradient5060">
   <stop id="stop5062" stop-opacity="0.12"/>
   <stop id="stop5064" offset="1" stop-opacity="0"/>
  </linearGradient>
  <radialGradient id="radialGradient3390" xlink:href="#linearGradient5060" gradientUnits="userSpaceOnUse" cy="486.65" cx="605.71" gradientTransform="matrix(2.7744,0,0,1.9697,-1891.6,-872.89)" r="117.14"/>
  <linearGradient id="linearGradient3388" y2="609.51" gradientUnits="userSpaceOnUse" x2="0" gradientTransform="matrix(2.7744,0,0,1.9697,-1892.2,-872.89)" y1="366.65">
   <stop id="stop5050" stop-opacity="0"/>
   <stop id="stop5056" offset="0.5"/>
   <stop id="stop5052" offset="1" stop-opacity="0"/>
  </linearGradient>
 </defs>
 <g id="a" transform="translate(2.0040775,-46.004086)">
  <g id="g3979" inkscape:label="#a">
   <g id="g3795" inkscape:label="#a">
    <g id="as" transform="matrix(0.727138,0,0,0.72713802,-19.455388,28.552773)">
     <path inkscape:connector-curvature="0" id="label" d="m 46.004076,23.999999 c 0,12.152516 -9.851561,22.004076 -22.004076,22.004076 -12.152516,0 -22.0040765,-9.85156 -22.0040765,-22.004076 C 1.9959235,11.847484 11.847484,1.995924 24,1.995924 c 12.152515,0 22.004076,9.85156 22.004076,22.004075 z" fill-rule="evenodd" fill-opacity="0.8"/>
     <g id="text4114" fill="#ffffff">
      <path id="path4408" d="m 19.44043,26.80957 7.492187,0 -3.746094,-9.707031 -3.746093,9.707031 m -5.769532,7.396485 0,-1.449219 1.791016,0 7.273438,-18.962891 2.296875,0 7.287109,18.962891 2.009766,0 0,1.449219 -7.423829,0 0,-1.449219 2.269532,0 -1.708985,-4.484375 -8.585937,0 -1.708985,4.484375 2.242188,0 0,1.449219 -5.742188,0" inkscape:connector-curvature="0"/>
     </g>
    </g>
    <g id="fn" transform="matrix(0.72713804,0,0,0.72713804,-81.027959,36.538967)">
     <path inkscape:connector-curvature="0" id="label-4" d="m 130.68204,13.016948 c 0,12.152516 -9.85156,22.004076 -22.00407,22.004076 -12.15252,0 -22.00408,-9.85156 -22.00408,-22.004076 0,-12.15251447 9.85156,-22.004074 22.00408,-22.004074 12.15251,0 22.00407,9.85155953 22.00407,22.004075 z" fill-rule="evenodd" fill-opacity="0.8"/>
     <g id="text4114-4" fill="#ffffff">
      <path id="path4441" d="m 114.19456,5.8118706 -1.32617,0 c -0.009,-0.6835752 -0.20509,-1.203106 -0.58789,-1.5585938 -0.37371,-0.355449 -0.92058,-0.5331832 -1.64062,-0.5332031 -0.93881,1.99e-5 -1.59962,0.2597853 -1.98242,0.7792969 -0.38282,0.5104353 -0.57423,1.42645 -0.57422,2.7480468 l 0,1.8730469 4.06054,0 0,1.4628907 -4.06054,0 0,11.621094 3.22656,0 0,1.449218 -8.14844,0 0,-1.449218 2.40625,0 0,-11.621094 -2.40625,0 0,-1.4628907 2.40625,0 0,-1.8183594 c 0,-1.6223778 0.41927,-2.848288 1.25781,-3.6777343 0.84765,-0.8294062 2.08724,-1.2441194 3.71875,-1.2441407 0.61067,2.13e-5 1.22135,0.054709 1.83204,0.1640625 0.61066,0.109396 1.21678,0.2780157 1.81835,0.5058594 l 0,2.7617188" inkscape:connector-curvature="0"/>
     </g>
    </g>
    <g id="en" transform="matrix(0.72713794,0,0,0.72713804,-61.037819,42.158881)">
     <path inkscape:connector-curvature="0" id="label-6" d="m 103.19052,5.2881344 c 0,12.1525156 -9.851565,22.0040756 -22.00408,22.0040756 -12.152515,0 -22.004076,-9.85156 -22.004076,-22.0040756 0,-12.1525145 9.851561,-22.0040744 22.004077,-22.0040744 12.152515,0 22.004079,9.8515599 22.004079,22.0040754 z" fill-rule="evenodd" fill-opacity="0.8"/>
     <g id="text4114-2" fill="#ffffff">
      <path id="path4438" d="m 88.077065,5.554738 -10.841797,0 0,0.109375 c -5e-6,1.9596404 0.369136,3.4407587 1.107422,4.443359 0.738275,0.993491 1.827466,1.490236 3.267578,1.490235 1.102854,1e-6 2.005197,-0.287108 2.707031,-0.861328 0.710925,-0.583331 1.20767,-1.4446585 1.490234,-2.5839847 l 2.023438,0 c -0.401056,1.5950549 -1.143894,2.7936217 -2.228516,3.5957027 -1.075532,0.802084 -2.492849,1.203125 -4.251953,1.203125 -2.123704,0 -3.832687,-0.697265 -5.126953,-2.091796 -1.285158,-1.4036432 -1.927736,-3.2630163 -1.927734,-5.5781255 -2e-6,-2.2968654 0.633461,-4.147124 1.90039,-5.55078121 1.266923,-1.40363159 2.930332,-2.10545379 4.990235,-2.10546879 2.196604,1.5e-5 3.8828,0.6790508 5.058593,2.03710942 C 87.4208,1.0111298 88.031476,2.9753205 88.077065,5.554738 M 85.110268,4.1055193 C 85.055568,2.4102169 84.695542,1.1341765 84.03019,0.27739429 83.373929,-0.58847798 82.426013,-1.0214203 81.18644,-1.0214338 c -1.15756,1.35e-5 -2.069017,0.43295582 -2.734375,1.29882809 -0.66537,0.86589681 -1.070969,2.14193721 -1.216797,3.82812501 l 7.875,0" inkscape:connector-curvature="0"/>
     </g>
    </g>
    <g id="dn" transform="matrix(0.72713799,0,0,0.72713805,-34.022798,58.131269)">
     <path inkscape:connector-curvature="0" id="label-1" d="m 66.037975,-16.677967 c 0,12.1525157 -9.851562,22.0040757 -22.004077,22.0040757 -12.152516,0 -22.004076,-9.85156 -22.004076,-22.0040757 0,-12.152515 9.85156,-22.004074 22.004077,-22.004074 12.152515,0 22.004076,9.851559 22.004076,22.004075 z" fill-rule="evenodd" fill-opacity="0.8"/>
     <g id="text4114-0" fill="#ffffff">
      <path id="path4435" d="m 49.482143,-7.6887093 2.40625,0 0,1.4492188 -4.921875,0 0,-2.2695313 c -0.492199,0.9114597 -1.121104,1.5859382 -1.886718,2.0234375 -0.75652,0.4283853 -1.695321,0.6425778 -2.816407,0.6425782 -1.786464,-4e-7 -3.249353,-0.7063799 -4.388671,-2.1191407 -1.130211,-1.4218718 -1.695314,-3.2721302 -1.695313,-5.5507812 -10e-7,-2.278636 0.565102,-4.124338 1.695313,-5.537109 1.130204,-1.412747 2.593093,-2.119126 4.388671,-2.119141 1.121086,1.5e-5 2.059887,0.218765 2.816407,0.65625 0.765614,0.428399 1.394519,1.09832 1.886718,2.009766 l 0,-7.560547 -2.378906,0 0,-1.449219 4.894531,0 0,19.8242187 m -2.515625,-5.0996097 0,-1.435547 c -1.2e-5,-1.740875 -0.337251,-3.071603 -1.011718,-3.992187 -0.665375,-0.92056 -1.636078,-1.380846 -2.91211,-1.380859 -1.294278,1.3e-5 -2.274094,0.510429 -2.939453,1.53125 -0.656255,1.020844 -0.984379,2.53842 -0.984375,4.552734 -4e-6,2.005214 0.32812,3.5227902 0.984375,4.5527344 0.665359,1.0299496 1.645175,1.544923 2.939453,1.5449218 1.276032,1.2e-6 2.246735,-0.4557275 2.91211,-1.3671875 0.674467,-0.9205694 1.011706,-2.2558547 1.011718,-4.0058597" inkscape:connector-curvature="0"/>
     </g>
    </g>
    <g id="cn" transform="matrix(0.72713788,0,0,0.72713795,-19.455385,28.552775)">
     <path inkscape:connector-curvature="0" id="label-41" d="m 46.00408,23.999997 c 0,12.152516 -9.85157,22.004081 -22.00408,22.004081 -12.15251,0 -22.00408,-9.851566 -22.00408,-22.004081 0,-12.152515 9.85157,-22.0040745 22.00408,-22.0040745 12.15251,0 22.00408,9.8515595 22.00408,22.0040755 z" fill-rule="evenodd" fill-opacity="0.8"/>
     <g transform="translate(-21.152542,7.2203389)" id="text4114-27" fill="#ffffff">
      <path inkscape:connector-curvature="0" id="path4432" d="m 51.653519,19.684935 c -0.355483,1.549482 -1.039076,2.729819 -2.050782,3.541015 -1.01173,0.811198 -2.319671,1.216797 -3.923828,1.216797 -2.114589,0 -3.814457,-0.697265 -5.099609,-2.091797 -1.285158,-1.403642 -1.927736,-3.263016 -1.927734,-5.578125 -2e-6,-2.324209 0.642576,-4.179025 1.927734,-5.564453 1.285152,-1.3945169 2.98502,-2.0917818 5.099609,-2.0917968 0.920564,1.5e-5 1.836579,0.1093899 2.748047,0.328125 0.911446,0.2096498 1.827461,0.5332172 2.748047,0.9707028 l 0,3.71875 -1.462891,0 c -0.191418,-1.27603 -0.610689,-2.205717 -1.257812,-2.789062 -0.638031,-0.58332 -1.554046,-0.874987 -2.748047,-0.875 -1.35808,1.3e-5 -2.38347,0.528659 -3.076172,1.585937 -0.692713,1.048188 -1.039067,2.620452 -1.039062,4.716797 -5e-6,2.09636 0.341792,3.673181 1.02539,4.730469 0.692703,1.057293 1.722649,1.585938 3.089844,1.585937 1.084626,10e-7 1.95051,-0.28255 2.597656,-0.847656 0.647124,-0.565102 1.089181,-1.417314 1.326172,-2.55664 l 2.023438,0"/>
     </g>
    </g>
    <g id="bn" transform="matrix(0.72713804,0,0,0.72713804,-61.826584,69.469693)">
     <path inkscape:connector-curvature="0" id="label-3" d="m 104.27526,-32.271188 c 0,12.152516 -9.851559,22.004076 -22.004074,22.004076 -12.152515,0 -22.004076,-9.85156 -22.004076,-22.004076 0,-12.152514 9.851561,-22.004074 22.004077,-22.004074 12.152515,0 22.004073,9.85156 22.004073,22.004075 z" fill-rule="evenodd" fill-opacity="0.8"/>
     <g id="text4114-6" fill="#ffffff">
      <path id="path4429" d="m 76.836617,-23.281929 0,-18.375 -2.419922,0 0,-1.449219 4.935547,0 0,9.009766 c 0.492181,-0.911445 1.116529,-1.581367 1.873046,-2.009766 0.765617,-0.437485 1.708975,-0.656235 2.830079,-0.65625 1.786446,1.5e-5 3.244777,0.706395 4.375,2.119141 1.130192,1.412772 1.695296,3.258473 1.695312,5.537109 -1.6e-5,2.278651 -0.56512,4.12891 -1.695312,5.550781 -1.130223,1.412761 -2.588554,2.119141 -4.375,2.119141 -1.121104,0 -2.064462,-0.214193 -2.830079,-0.642578 -0.756517,-0.437499 -1.380865,-1.111978 -1.873046,-2.023438 l 0,2.269532 -4.935547,0 0,-1.449219 2.419922,0 m 2.515625,-5.099609 c -6e-6,1.750004 0.332676,3.08529 0.998046,4.005859 0.674472,0.91146 1.649732,1.367189 2.925782,1.367187 1.285145,2e-6 2.255847,-0.514972 2.912109,-1.544921 0.665351,-1.029945 0.998033,-2.547521 0.998047,-4.552735 -1.4e-5,-2.014313 -0.332696,-3.53189 -0.998047,-4.552734 -0.656262,-1.020821 -1.626964,-1.531237 -2.912109,-1.53125 -1.27605,1.3e-5 -2.25131,0.460299 -2.925782,1.380859 -0.66537,0.920584 -0.998052,2.251312 -0.998046,3.992188 l 0,1.435547" inkscape:connector-curvature="0"/>
     </g>
    </g>
    <g id="an" transform="matrix(0.72713793,0,0,0.72713804,-82.432928,57.588997)" inkscape:label="#an">
     <path inkscape:connector-curvature="0" id="label-2" d="m 132.61425,-15.932205 c 0,12.152516 -9.85157,22.004076 -22.00408,22.004076 -12.152516,0 -22.004077,-9.85156 -22.004077,-22.004076 0,-12.152514 9.851561,-22.004074 22.004077,-22.004074 12.15251,0 22.00408,9.85156 22.00408,22.004075 z" fill-rule="evenodd" fill-opacity="0.8"/>
     <g id="text4114-7" fill="#ffffff">
      <path id="path4426" d="m 113.10529,-13.232007 0,-3.076172 -3.24024,0 c -1.2487,8e-6 -2.17839,0.268888 -2.78906,0.806641 -0.61068,0.537766 -0.91602,1.362635 -0.91602,2.474609 0,1.011722 0.30989,1.813805 0.92969,2.40625 0.61979,0.592449 1.45833,0.888673 2.51563,0.888672 1.04816,10e-7 1.89126,-0.323566 2.52929,-0.970703 0.64713,-0.647133 0.97069,-1.490231 0.97071,-2.529297 m 2.51562,-4.511719 0,7.628906 2.24219,0 0,1.4492192 -4.75781,0 0,-1.5722652 c -0.556,0.6744797 -1.19858,1.171224 -1.92774,1.490234 -0.72917,0.3190102 -1.58139,0.4785152 -2.55664,0.4785156 -1.61329,-4e-7 -2.89388,-0.4283854 -3.8418,-1.2851563 -0.94791,-0.8567693 -1.42187,-2.0143203 -1.42187,-3.4726563 0,-1.5039 0.54231,-2.670566 1.62695,-3.5 1.08463,-0.829418 2.61588,-1.244131 4.59375,-1.244141 l 3.52735,0 0,-0.998046 c -2e-5,-1.102854 -0.33725,-1.955066 -1.01172,-2.556641 -0.66538,-0.610664 -1.60418,-0.916002 -2.81641,-0.916016 -1.00261,1.4e-5 -1.80014,0.227878 -2.39258,0.683594 -0.59245,0.455742 -0.96159,1.13022 -1.10742,2.023438 l -1.29883,0 0,-2.939454 c 0.875,-0.373683 1.72265,-0.651678 2.54297,-0.833984 0.82942,-0.191391 1.63606,-0.287094 2.41992,-0.287109 2.01432,1.5e-5 3.54557,0.501316 4.59375,1.503906 1.05728,0.993502 1.58593,2.442719 1.58594,4.347656" inkscape:connector-curvature="0"/>
     </g>
    </g>
    <g id="fs" transform="matrix(0.72713793,0,0,0.72713804,-59.460299,21.034904)">
     <path inkscape:connector-curvature="0" id="label-0" d="m 101.02103,34.338982 c 0,12.152516 -9.851566,22.004076 -22.004081,22.004076 -12.152516,0 -22.004076,-9.85156 -22.004076,-22.004076 0,-12.152515 9.85156,-22.004074 22.004077,-22.004074 12.152515,0 22.00408,9.851559 22.00408,22.004075 z" fill-rule="evenodd" fill-opacity="0.8"/>
     <g id="text4114-79" fill="#ffffff">
      <path id="path4423" d="m 70.663437,44.545036 0,-1.449218 2.597656,0 0,-17.5 -2.597656,0 0,-1.462891 16.707031,0 0,4.539062 -1.68164,0 0,-2.857421 -9.652344,0 0,6.835937 6.972656,0 0,-2.556641 1.681641,0 0,6.78125 -1.681641,0 0,-2.55664 -6.972656,0 0,8.777344 3.267578,0 0,1.449218 -8.640625,0" inkscape:connector-curvature="0"/>
     </g>
    </g>
    <g id="es" transform="matrix(0.727138,0,0,0.72713804,-13.613636,68.804176)">
     <path inkscape:connector-curvature="0" id="label-34" d="m 37.970178,-31.355933 c 0,12.152516 -9.851562,22.004076 -22.004077,22.004076 -12.1525153,0 -22.0040758,-9.85156 -22.0040758,-22.004076 0,-12.152515 9.8515605,-22.004074 22.0040768,-22.004074 12.152515,0 22.004076,9.851559 22.004076,22.004075 z" fill-rule="evenodd" fill-opacity="0.8"/>
     <g id="text4114-9" fill="#ffffff">
      <path id="path4420" d="m 7.6399302,-21.149879 0,-1.449219 2.5976558,0 0,-17.5 -2.5976558,0 0,-1.462891 16.4335938,0 0,4.539063 -1.681641,0 0,-2.857422 -9.378906,0 0,6.835937 6.685547,0 0,-2.55664 1.681641,0 0,6.78125 -1.681641,0 0,-2.556641 -6.685547,0 0,8.544922 9.597656,0 0,-2.857422 1.681641,0 0,4.539063 -16.6523438,0" inkscape:connector-curvature="0"/>
     </g>
    </g>
    <g id="ds" transform="matrix(0.727138,0,0,0.72713801,-16.127809,-17.343192)">
     <path inkscape:connector-curvature="0" id="label-5" d="m 41.427805,87.118643 c 0,12.152516 -9.851562,22.004077 -22.004077,22.004077 -12.1525151,0 -22.0040756,-9.851561 -22.0040756,-22.004077 0,-12.152515 9.8515605,-22.004075 22.0040766,-22.004075 12.152515,0 22.004076,9.85156 22.004076,22.004075 z" fill-rule="evenodd" fill-opacity="0.8"/>
     <g id="text4114-5" fill="#ffffff">
      <path id="path4417" d="m 15.151268,95.875481 2.542969,0 c 2.652331,1e-6 4.684881,-0.756509 6.097656,-2.269532 1.421858,-1.513015 2.132795,-3.682284 2.132813,-6.507812 -1.8e-5,-2.825508 -0.706398,-4.985662 -2.119141,-6.480469 C 22.39279,79.122895 20.355683,78.3755 17.694237,78.375481 l -2.542969,0 0,17.5 m -5.3730469,1.449218 0,-1.449218 2.5976559,0 0,-17.5 -2.5976559,0 0,-1.462891 8.1210939,0 c 3.518216,2e-5 6.257145,0.897806 8.216797,2.693359 1.96873,1.795589 2.953104,4.292983 2.953125,7.492188 -2.1e-5,3.20834 -0.984395,5.714848 -2.953125,7.519531 -1.968766,1.804689 -4.707696,2.707031 -8.216797,2.707031 l -8.1210939,0" inkscape:connector-curvature="0"/>
     </g>
    </g>
    <g id="cs" transform="matrix(0.72713799,0,0,0.72713802,-43.068888,-3.687788)">
     <path inkscape:connector-curvature="0" id="label-43" d="m 78.478653,68.338982 c 0,12.152516 -9.851562,22.004076 -22.004077,22.004076 -12.152516,0 -22.004076,-9.85156 -22.004076,-22.004076 0,-12.152515 9.85156,-22.004075 22.004077,-22.004075 12.152515,0 22.004076,9.85156 22.004076,22.004075 z" fill-rule="evenodd" fill-opacity="0.8"/>
     <g id="text4114-3" fill="#ffffff">
      <path id="path4414" d="m 65.55954,73.130974 c -0.601582,1.904951 -1.6133,3.349611 -3.035156,4.333984 -1.412776,0.975261 -3.20379,1.46289 -5.373047,1.462891 -1.33074,-10e-7 -2.565764,-0.227865 -3.705078,-0.683594 -1.13933,-0.455728 -2.151048,-1.12565 -3.035157,-2.009766 -1.020837,-1.02083 -1.781904,-2.178381 -2.283203,-3.472656 -0.492189,-1.303378 -0.738283,-2.775382 -0.738281,-4.416015 -2e-6,-3.171862 0.916013,-5.7285 2.748047,-7.669922 1.832025,-1.950501 4.247387,-2.925761 7.246094,-2.925782 1.111966,2.1e-5 2.296861,0.145854 3.554687,0.4375 1.257796,0.291687 2.61131,0.733744 4.060547,1.326172 l 0,4.703125 -1.544922,0 c -0.337257,-1.713525 -1.016293,-2.975894 -2.037109,-3.787109 -1.011734,-0.811179 -2.433607,-1.216778 -4.265625,-1.216797 -2.178395,1.9e-5 -3.828133,0.774758 -4.949219,2.324219 -1.121099,1.54038 -1.681645,3.809909 -1.681641,6.808594 -4e-6,2.98959 0.560542,5.259119 1.681641,6.808593 1.121086,1.540367 2.770824,2.310548 4.949219,2.310547 1.522122,10e-7 2.775376,-0.360024 3.759765,-1.080078 0.984359,-0.729164 1.695296,-1.813798 2.132813,-3.253906 l 2.515625,0" inkscape:connector-curvature="0"/>
     </g>
    </g>
    <g id="bs" transform="matrix(0.72713802,0,0,0.72713802,-87.288739,11.816275)">
     <path inkscape:connector-curvature="0" id="label-03" d="m 139.29221,47.016948 c 0,12.152517 -9.85156,22.004077 -22.00408,22.004077 -12.15251,0 -22.004071,-9.85156 -22.004071,-22.004076 0,-12.152515 9.851561,-22.004075 22.004081,-22.004075 12.15251,0 22.00407,9.85156 22.00407,22.004075 z" fill-rule="evenodd" fill-opacity="0.8"/>
     <g id="text4114-62" fill="#ffffff">
      <path id="path4411" d="m 114.00005,55.773781 4.08789,0 c 1.64061,10e-7 2.83918,-0.355467 3.5957,-1.066406 0.75649,-0.710935 1.13475,-1.841142 1.13477,-3.390625 -2e-5,-1.540358 -0.37828,-2.66145 -1.13477,-3.363282 -0.74741,-0.710927 -1.94598,-1.066396 -3.5957,-1.066406 l -4.08789,0 0,8.886719 m 0,-10.335938 3.47265,0 c 1.49478,1.2e-5 2.58397,-0.287097 3.26758,-0.861328 0.69269,-0.574205 1.03905,-1.481105 1.03906,-2.720703 -1e-5,-1.248681 -0.34637,-2.155581 -1.03906,-2.720703 -0.68361,-0.5742 -1.7728,-0.861309 -3.26758,-0.861328 l -3.47265,0 0,7.164062 M 108.627,57.223 l 0,-1.449219 2.59766,0 0,-17.5 -2.59766,0 0,-1.462891 10.07617,0 c 2.05988,2.1e-5 3.60936,0.423848 4.64844,1.271485 1.04816,0.83856 1.57225,2.096371 1.57226,3.773437 -10e-6,1.212254 -0.3646,2.178399 -1.09375,2.898438 -0.72006,0.720063 -1.77735,1.16212 -3.17187,1.326171 1.73175,0.218761 3.04425,0.77475 3.9375,1.667969 0.90232,0.884123 1.3535,2.073575 1.35351,3.56836 -10e-6,2.023441 -0.63803,3.513674 -1.91406,4.470703 -1.27606,0.957031 -3.26759,1.435547 -5.97461,1.435547 l -9.43359,0" inkscape:connector-curvature="0"/>
     </g>
    </g>
   </g>
  </g>
 </g>
</svg>
